<svg xmlns="http://www.w3.org/2000/svg" width="68.608" height="84" viewBox="0 0 68.608 84">
  <g id="Icon_left_copy" data-name="Icon (left) copy" transform="translate(-505.392 -930.169)">
    <g id="Layer_47" data-name="Layer 47">
      <g id="Group_164" data-name="Group 164">
        <g id="Group_163" data-name="Group 163">
          <g id="Group_162" data-name="Group 162">
            <g id="Group_161" data-name="Group 161">
              <g id="Group_160" data-name="Group 160">
                <path id="Path_23488" data-name="Path 23488" d="M573.1,944.182a3.692,3.692,0,0,0-2.787-1.27h-8.083c.119-1.293.184-2.355.219-3.1h.183a3.693,3.693,0,0,0,3.689-3.689v-2.262a3.693,3.693,0,0,0-3.689-3.689H516.763a3.693,3.693,0,0,0-3.689,3.689v2.262a3.693,3.693,0,0,0,3.689,3.689h.184c.035.747.1,1.807.221,3.1h-8.086a3.688,3.688,0,0,0-3.654,4.2,37.138,37.138,0,0,0,5.131,14.558,20.121,20.121,0,0,0,17.33,9.584,16.851,16.851,0,0,0,7.8,4.2v3.732a1.229,1.229,0,0,0,2.459,0v-3.355h.027q.352.028.71.044l.086,0c.24.009.481.015.723.015s.493-.006.737-.015l.059,0q.348-.015.69-.043l.061,0v12.553h-3.093v-4.2a1.229,1.229,0,1,0-2.459,0v4.2h-9.054a3.789,3.789,0,0,0-3.679,2.869l-3.6,14.3H516.05a1.23,1.23,0,0,0-1.23,1.23v6.149a1.23,1.23,0,0,0,1.23,1.23h47.292a1.23,1.23,0,0,0,1.23-1.23v-6.149a1.23,1.23,0,0,0-1.23-1.23h-3.311l-1.237-4.918a1.23,1.23,0,1,0-2.385.6l1.086,4.318H521.9l3.445-13.705a1.333,1.333,0,0,1,1.3-1.009h26.119a1.333,1.333,0,0,1,1.294,1.009l1.15,4.574a1.23,1.23,0,1,0,2.385-.6l-1.15-4.573a3.788,3.788,0,0,0-3.679-2.869H543.7V975.452a16.9,16.9,0,0,0,7.778-4.2,20.122,20.122,0,0,0,17.353-9.584,37.144,37.144,0,0,0,5.131-14.558A3.686,3.686,0,0,0,573.1,944.182Zm-10.984,63.838v3.69H517.28v-3.69Zm-45.35-70.67a1.231,1.231,0,0,1-1.229-1.23v-2.262a1.231,1.231,0,0,1,1.229-1.23h45.866a1.231,1.231,0,0,1,1.229,1.23v2.262a1.231,1.231,0,0,1-1.229,1.23H516.763Zm34.266,30.877c-.247.277-.5.542-.756.8a1.237,1.237,0,0,0-.284.276,14.476,14.476,0,0,1-7.856,3.951c-.137.021-.275.041-.414.059l-.2.023c-.153.017-.306.033-.46.046l-.074.007q-.3.024-.612.036h-.042c-.417.016-.837.016-1.255,0l-.067,0c-.2-.008-.391-.02-.584-.035l-.039,0c-.18-.015-.359-.034-.537-.054-.09-.01-.18-.022-.27-.034l-.2-.029A14.481,14.481,0,0,1,529.4,969.3a1.222,1.222,0,0,0-.274-.268,19.406,19.406,0,0,1-1.624-1.835c-2.59-3.317-4.632-7.907-6.071-13.643a1.23,1.23,0,0,0-2.386.6c1.52,6.059,3.689,10.9,6.445,14.464a17.622,17.622,0,0,1-12.872-8.288,34.633,34.633,0,0,1-4.754-13.556,1.228,1.228,0,0,1,1.218-1.4h8.352c.146,1.181.332,2.472.569,3.836a1.23,1.23,0,1,0,2.423-.421c-.284-1.633-.492-3.166-.645-4.524,0-.04.006-.08.006-.121a1.231,1.231,0,0,0-.061-.381c-.177-1.668-.269-3.037-.315-3.951h40.57c-.048.915-.14,2.288-.319,3.963a1.218,1.218,0,0,0-.057.369c0,.035,0,.068.005.1a68.02,68.02,0,0,1-2.415,12.066A31.783,31.783,0,0,1,551.029,968.227Zm20.5-21.457a34.642,34.642,0,0,1-4.754,13.557,17.627,17.627,0,0,1-12.892,8.29,36.08,36.08,0,0,0,5.679-11.635,69.509,69.509,0,0,0,2.4-11.611h8.348a1.228,1.228,0,0,1,1.218,1.4Z" fill="#545050"/>
              </g>
            </g>
          </g>
        </g>
      </g>
    </g>
  </g>
</svg>
