<svg xmlns="http://www.w3.org/2000/svg" width="84" height="84" viewBox="0 0 84 84">
  <g id="Group_169" data-name="Group 169" transform="translate(-1206.837 -929.762)">
    <g id="Group_168" data-name="Group 168">
      <path id="Path_23500" data-name="Path 23500" d="M1212.914,976.908a16.321,16.321,0,0,1-3.616-10.227v-9.947a1.23,1.23,0,0,0-2.461,0v9.947A18.8,18.8,0,0,0,1211,978.455l14.742,18.238a8.387,8.387,0,0,1,1.86,5.26v10.579a1.23,1.23,0,0,0,2.461,0v-10.579a10.86,10.86,0,0,0-2.408-6.808Zm71.648-39.761a6.43,6.43,0,0,0-6.57,6.419v15.667a5.552,5.552,0,0,0-3.949.378l-12.608,6.28a25.737,25.737,0,0,0-5.563,3.747c-.022.02-.044.041-.066.06a19.915,19.915,0,0,1-.975-2.137,19.66,19.66,0,0,1-.963-3.367,7.584,7.584,0,0,0,9.981-4.953,8.837,8.837,0,0,0,2.709-15.977,187.635,187.635,0,0,0-17.589-13.5,7.714,7.714,0,0,0-7.267,4.989,7.6,7.6,0,0,0-10.586,8.512,8.836,8.836,0,0,0,2.708,15.977,7.581,7.581,0,0,0,9.981,4.952,19.483,19.483,0,0,1-.963,3.367,19.952,19.952,0,0,1-.974,2.138c-.022-.019-.043-.04-.066-.059a25.731,25.731,0,0,0-5.563-3.748l-12.609-6.28a5.551,5.551,0,0,0-3.949-.378V943.566a6.422,6.422,0,1,0-12.844.1v7.322a1.23,1.23,0,1,0,2.461,0V943.67a3.962,3.962,0,1,1,7.923-.1v17.1a5.58,5.58,0,0,0,.335,8.125l12.638,10.8a1.23,1.23,0,1,0,1.6-1.87l-12.638-10.8a3.084,3.084,0,0,1,3.379-5.106l12.608,6.28a23.342,23.342,0,0,1,9.02,7.962,20.532,20.532,0,0,1,3.444,11.4v25.074a1.231,1.231,0,0,0,2.461,0V987.458a20.526,20.526,0,0,1,3.445-11.4,23.342,23.342,0,0,1,9.02-7.962l12.607-6.279a3.089,3.089,0,0,1,2.843.048,3.084,3.084,0,0,1,.537,5.058l-12.638,10.8a1.23,1.23,0,1,0,1.6,1.87l12.637-10.8a5.54,5.54,0,0,0,.336-8.117V943.566a3.99,3.99,0,0,1,4.054-3.959,4.037,4.037,0,0,1,3.869,4.063v23.011a16.324,16.324,0,0,1-3.617,10.228l-5.2,6.432a1.23,1.23,0,0,0,1.914,1.547l5.2-6.432a18.792,18.792,0,0,0,4.164-11.775V943.67a6.511,6.511,0,0,0-6.275-6.523Zm-41.114,24.517a5.061,5.061,0,0,1-2.347.568,5.125,5.125,0,0,1-5.026-4.141,1.419,1.419,0,0,0-1.15-1.136l-.02,0a6.375,6.375,0,0,1-1.919-11.935,1.421,1.421,0,0,0,.688-1.724,5.128,5.128,0,0,1,8.045-5.654,1.231,1.231,0,0,0,1.992-.817,5.156,5.156,0,0,1,10.251,0,1.231,1.231,0,0,0,1.992.817,5.061,5.061,0,0,1,3-1.119,5.137,5.137,0,0,1,3.858,1.556,5.051,5.051,0,0,1,1.2,5.2,1.434,1.434,0,0,0,.684,1.738,6.375,6.375,0,0,1-1.92,11.935l-.02,0a1.418,1.418,0,0,0-1.149,1.134,5.124,5.124,0,0,1-7.388,3.568,5.978,5.978,0,0,0-.682-.3,23.908,23.908,0,0,1,1.83-10.19,1.915,1.915,0,0,0-.327-2l-1.79-2.028a1.9,1.9,0,0,0-2.956.129,13.732,13.732,0,0,0-.906,1.4q-.249.441-.467.9-.22-.537-.478-1.055a15.761,15.761,0,0,0-.779-1.386,1.885,1.885,0,0,0-1.459-.885,1.924,1.924,0,0,0-1.591.65l-1.978,2.282a1.911,1.911,0,0,0-.315,1.983,23.929,23.929,0,0,1,1.83,10.2,6.286,6.286,0,0,0-.695.3Zm8.015,13.029a23.042,23.042,0,0,0-2.626,5.326,23.046,23.046,0,0,0-2.626-5.326,25.865,25.865,0,0,0-2.52-3.205,22.342,22.342,0,0,0,1.448-3.042c2.459-6.374,1.312-13.6-.424-17.917l1.244-1.436a13.6,13.6,0,0,1,1.463,4.052,1.439,1.439,0,0,0,1.412,1.179h.015a1.441,1.441,0,0,0,1.422-1.147,11.566,11.566,0,0,1,1.6-3.872l1.086,1.231c-1.537,3.669-2.611,12.236-.421,17.91a22.322,22.322,0,0,0,1.447,3.042,25.865,25.865,0,0,0-2.52,3.205Zm26.241,12.9a1.231,1.231,0,0,0-1.73.183l-5.956,7.368a10.861,10.861,0,0,0-2.407,6.808v10.579a1.23,1.23,0,1,0,2.46,0v-10.579a8.4,8.4,0,0,1,1.861-5.261l5.955-7.367A1.23,1.23,0,0,0,1277.7,987.594Z" fill="#545050"/>
    </g>
  </g>
</svg>
