<?xml version="1.0" standalone="no"?>
<!DOCTYPE svg PUBLIC "-//W3C//DTD SVG 1.1//EN" "http://www.w3.org/Graphics/SVG/1.1/DTD/svg11.dtd" >
<svg xmlns="http://www.w3.org/2000/svg" xmlns:xlink="http://www.w3.org/1999/xlink" version="1.1">
<metadata>
Created by FontForge 20170731 at Mon Jul 15 19:50:36 2019
 By Aleksey,,,
</metadata>
<defs>
<font id="LeagueSpartan-Bold" horiz-adv-x="0" >
  <font-face 
    font-family="League Spartan"
    font-weight="700"
    font-stretch="normal"
    units-per-em="1000"
    panose-1="0 0 8 0 0 0 0 0 0 0"
    ascent="800"
    descent="-200"
    x-height="410"
    cap-height="660"
    bbox="-436 -448 1083 1143"
    underline-thickness="50"
    underline-position="-150"
    unicode-range="U+0020-2265"
  />
<missing-glyph horiz-adv-x="298" 
 />
    <glyph glyph-name=".notdef" horiz-adv-x="298" 
 />
    <glyph glyph-name=".null" 
 />
    <glyph glyph-name="nonmarkingreturn" horiz-adv-x="333" 
 />
    <glyph glyph-name="space" unicode=" " horiz-adv-x="265" 
 />
    <glyph glyph-name="exclam" unicode="!" horiz-adv-x="304" 
d="M225 688l-30 -474h-101l-30 474h161zM80.5 14.5q-26.5 26.5 -26.5 63.5t26.5 64t63.5 27q38 0 64.5 -26.5t26.5 -64.5t-26.5 -64t-64.5 -26q-37 0 -63.5 26.5z" />
    <glyph glyph-name="quotedbl" unicode="&#x22;" horiz-adv-x="408" 
d="M156 653.5q20 -18.5 20 -41.5v-4q0 -34 -54 -226h-42q-39 192 -39 226v4q0 23 20.5 41.5t47.5 18.5t47 -18.5zM332 653.5q20 -18.5 20 -41.5v-4q0 -34 -54 -226h-41q-39 192 -39 226v4q0 23 20 41.5t47 18.5t47 -18.5z" />
    <glyph glyph-name="numbersign" unicode="#" horiz-adv-x="677" 
d="M494 390l-31 -119h85l-29 -97h-82l-46 -174h-100l46 174h-109l-46 -174h-100l46 174h-80l29 97h76l32 119h-85l29 97h81l46 173h101l-46 -173h108l46 173h101l-46 -173h80l-29 -97h-77zM394 390h-109l-31 -119h108z" />
    <glyph glyph-name="dollar" unicode="$" horiz-adv-x="559" 
d="M456 52.5q-54 -48.5 -139 -60.5v-95h-85v92q-55 4 -102 18t-77.5 30t-38.5 24l74 124q10 -8 38.5 -23t65.5 -27t70 -12q46 0 70 18t24 48q0 32 -30.5 55t-101.5 50q-76 31 -120.5 76.5t-44.5 121.5q0 68 49 115.5t124 60.5v99h85v-97q65 -5 113 -25t66 -35l-71 -119
q-21 15 -56 31t-72 16q-40 0 -63.5 -14t-23.5 -41t27.5 -47t91.5 -44q181 -66 181 -209q0 -82 -54 -130.5z" />
    <glyph glyph-name="percent" unicode="%" horiz-adv-x="797" 
d="M48 593q22 36 62 57t90 21t89.5 -21t61.5 -57t22 -79q0 -42 -22 -78t-61.5 -57t-89.5 -21q-51 0 -90.5 21t-61.5 57t-22 78q0 43 22 79zM239 0h-98l413 660h98zM147.5 462q19.5 -20 51.5 -20q31 0 50.5 20t19.5 52t-19.5 53t-50.5 21t-51 -21t-20 -53t19.5 -52zM441 224
q22 36 61.5 57t89.5 21t89.5 -21t61.5 -57t22 -79q0 -42 -22 -78t-61.5 -57t-89.5 -21q-51 0 -90 21t-61 57t-22 78q0 43 22 79zM540.5 93q19.5 -20 51.5 -20q31 0 50.5 20t19.5 52t-19.5 53t-50.5 21t-51 -21t-20 -53t19.5 -52z" />
    <glyph glyph-name="ampersand" unicode="&#x26;" horiz-adv-x="696" 
d="M50 274q32 40 71.5 62t69.5 30q-27 15 -52.5 54.5t-25.5 88.5q0 44 24.5 81t71.5 59.5t112 22.5q94 0 144.5 -45.5t50.5 -119.5q0 -46 -29 -83.5t-62.5 -59.5t-44.5 -25l96 -102q40 33 85 96l98 -88q-4 -9 -32 -43t-56 -55l140 -147h-185l-66 70q-45 -37 -98.5 -59.5
t-124.5 -22.5q-59 0 -109 22t-80 65t-30 102q0 57 32 97zM274 544.5q-17 -15.5 -17 -37.5q0 -24 17.5 -49.5t30.5 -38.5q22 8 49.5 32t27.5 56q0 23 -16.5 38t-45.5 15t-46 -15.5zM234.5 264q-18.5 -11 -34 -29.5t-15.5 -43.5q0 -32 22 -49t57 -17q28 0 55 12.5t47 30.5
l-103 110q-10 -3 -28.5 -14z" />
    <glyph glyph-name="quotesingle" unicode="'" horiz-adv-x="241" 
d="M160.5 653.5q20.5 -18.5 20.5 -41.5v-4q0 -34 -54 -226h-42q-39 192 -39 226v4q0 23 20.5 41.5t46.5 18.5q27 0 47.5 -18.5z" />
    <glyph glyph-name="parenleft" unicode="(" horiz-adv-x="326" 
d="M81.5 -15q-41.5 117 -41.5 253q0 139 44.5 260.5t108.5 201.5l88 -39q-47 -64 -79.5 -174t-32.5 -249q0 -132 29.5 -237.5t71.5 -168.5l-88 -40q-59 76 -100.5 193z" />
    <glyph glyph-name="parenright" unicode=")" horiz-adv-x="326" 
d="M115.5 0.5q29.5 105.5 29.5 237.5q0 139 -32.5 249t-79.5 174l88 39q64 -80 108.5 -201.5t44.5 -260.5q0 -136 -41.5 -253t-100.5 -193l-88 40q42 63 71.5 168.5z" />
    <glyph glyph-name="asterisk" unicode="*" horiz-adv-x="415" 
d="M347 559l-96 -31l63 -76l-58 -41l-56 74l-56 -74l-58 41l64 76l-97 31l21 63l91 -28l1 94h69v-94l91 28z" />
    <glyph glyph-name="plus" unicode="+" horiz-adv-x="531" 
d="M198 126v145h-145v121h145v145h122v-145h144v-121h-144v-145h-122z" />
    <glyph glyph-name="comma" unicode="," horiz-adv-x="290" 
d="M202 141.5q26 -27.5 26 -75.5q0 -64 -39 -124.5t-94 -90.5l-40 45q33 18 60.5 45t36.5 56q-9 -5 -28 -5q-31 0 -54 24t-23 62t26.5 64.5t63.5 26.5q39 0 65 -27.5z" />
    <glyph glyph-name="hyphen" unicode="-" horiz-adv-x="378" 
d="M311 291v-127h-258v127h258z" />
    <glyph glyph-name="period" unicode="." horiz-adv-x="304" 
d="M80.5 14.5q-26.5 26.5 -26.5 63.5t26.5 63.5t63.5 26.5q38 0 64 -26t26 -64q0 -37 -26 -63.5t-64 -26.5q-37 0 -63.5 26.5z" />
    <glyph glyph-name="slash" unicode="/" horiz-adv-x="495" 
d="M134 -96h-118l329 784h118z" />
    <glyph glyph-name="zero" unicode="0" horiz-adv-x="593" 
d="M58.5 517q36.5 77 97.5 116t134 39t133.5 -39t97 -116t36.5 -187q0 -117 -36 -194t-96.5 -112.5t-134.5 -35.5t-134.5 35.5t-97 112.5t-36.5 194q0 110 36.5 187zM201.5 171q31.5 -53 88.5 -53q56 0 87.5 53.5t31.5 158.5q0 100 -32 156t-87 56q-56 0 -88 -56t-32 -156
q0 -106 31.5 -159z" />
    <glyph glyph-name="one" unicode="1" horiz-adv-x="327" 
d="M12 558l183 102h70v-660h-147v473l-106 -55v140z" />
    <glyph glyph-name="two" unicode="2" horiz-adv-x="569" 
d="M207 523.5q-30 -23.5 -46.5 -50.5t-19.5 -37l-126 57q3 21 29.5 63.5t84 79t148.5 36.5q87 0 140.5 -32.5t76.5 -81.5t23 -102q0 -78 -53.5 -148.5t-110.5 -115t-91 -63.5h250v-129h-472v117q70 49 132 96t129.5 118.5t67.5 126.5q0 89 -92 89q-40 0 -70 -23.5z" />
    <glyph glyph-name="three" unicode="3" horiz-adv-x="537" 
d="M97 619.5q50 52.5 163 52.5q62 0 111 -23t76.5 -65t27.5 -97q0 -48 -25 -85t-58 -46q25 -4 50.5 -24t42 -53t16.5 -75q0 -62 -31.5 -111t-87 -77t-125.5 -28q-99 0 -161 47t-85 114l135 67q13 -42 41.5 -71.5t69.5 -29.5q45 0 71.5 26.5t26.5 67.5t-28 62.5t-70 21.5h-13
v106h17q35 0 58.5 21t23.5 56q0 34 -22.5 56t-62.5 22q-36 0 -59.5 -18t-36.5 -43t-9 -21l-119 57q13 38 63 90.5z" />
    <glyph glyph-name="four" unicode="4" horiz-adv-x="525" 
d="M499 268v-129h-76v-139h-147v139h-272v105l261 416h158v-392h76zM275 471l-123 -203h124v203h-1z" />
    <glyph glyph-name="five" unicode="5" horiz-adv-x="540" 
d="M183 132q25 -21 67 -21q46 0 72.5 29t26.5 77t-24.5 75t-67.5 27q-40 0 -63.5 -19.5t-32.5 -36.5l-122 45l58 352h370v-129h-246l-21 -127q6 9 34.5 20.5t66.5 11.5q51 0 96 -22.5t73 -69t28 -115.5q0 -72 -31 -127t-86 -84.5t-125 -29.5q-97 0 -155 41.5t-80 99.5
l127 56q10 -32 35 -53z" />
    <glyph glyph-name="six" unicode="6" horiz-adv-x="562" 
d="M410 412q48 -27 78 -77.5t30 -115.5q0 -66 -33 -118.5t-89 -82.5t-123 -30q-68 0 -124.5 28.5t-89 82.5t-32.5 126q0 74 23.5 129.5t63.5 103.5l165 202h172l-204 -239q18 18 62 18q53 0 101 -27zM348 139.5q31 31.5 31 75.5t-31 75t-75 31t-75.5 -31t-31.5 -75
t31.5 -75.5t75.5 -31.5t75 31.5z" />
    <glyph glyph-name="seven" unicode="7" horiz-adv-x="544" 
d="M524 561l-319 -561h-162l309 531h-301v129h473v-99z" />
    <glyph glyph-name="eight" unicode="8" horiz-adv-x="560" 
d="M154.5 13q-55.5 25 -88.5 70t-33 101q0 119 117 172q-42 24 -65.5 57t-23.5 86q0 52 28.5 91t77 60.5t106.5 21.5q60 0 107.5 -21.5t75 -60.5t27.5 -91q0 -53 -22.5 -86t-64.5 -57q118 -54 118 -172q0 -56 -32.5 -101t-88 -70t-119.5 -25t-119.5 25zM328.5 425
q22.5 23 22.5 55t-22.5 55t-54.5 23t-55 -23t-23 -55t23 -55t55 -23t54.5 23zM334.5 142q25.5 25 25.5 61t-25.5 61t-61.5 25t-61.5 -25t-25.5 -61t25.5 -61t61.5 -25t61.5 25z" />
    <glyph glyph-name="nine" unicode="9" horiz-adv-x="562" 
d="M132 248q-48 27 -78 77.5t-30 115.5q0 66 33 118.5t89 82.5t123 30q68 0 124.5 -28.5t89 -82.5t32.5 -126q0 -74 -23.5 -129.5t-63.5 -103.5l-165 -202h-172l204 239q-18 -18 -62 -18q-53 0 -101 27zM194 520.5q-31 -31.5 -31 -75.5t31 -75t75 -31t75.5 31t31.5 75
t-31.5 75.5t-75.5 31.5t-75 -31.5z" />
    <glyph glyph-name="colon" unicode=":" horiz-adv-x="283" 
d="M78.5 14.5q-26.5 26.5 -26.5 63.5t26.5 63.5t63.5 26.5q38 0 64 -26t26 -64q0 -37 -26 -63.5t-64 -26.5q-37 0 -63.5 26.5zM78.5 305.5q-26.5 26.5 -26.5 63.5t26.5 63.5t63.5 26.5q38 0 64 -26t26 -64q0 -37 -26 -63.5t-64 -26.5q-37 0 -63.5 26.5z" />
    <glyph glyph-name="semicolon" unicode=";" horiz-adv-x="287" 
d="M68.5 306.5q-26.5 26.5 -26.5 63.5t26.5 63.5t63.5 26.5q38 0 64 -26t26 -64q0 -37 -26 -63.5t-64 -26.5q-37 0 -63.5 26.5zM196 141.5q26 -27.5 26 -75.5q0 -64 -39 -124.5t-94 -90.5l-40 45q33 18 60.5 45t36.5 56q-9 -5 -28 -5q-31 0 -54 24t-23 62t26.5 64.5
t63.5 26.5q39 0 65 -27.5z" />
    <glyph glyph-name="less" unicode="&#x3c;" horiz-adv-x="545" 
d="M44 277v112l437 186v-131l-283 -112l283 -111v-129z" />
    <glyph glyph-name="equal" unicode="=" horiz-adv-x="520" 
d="M458 488v-122h-410v122h410zM458 297v-122h-410v122h410z" />
    <glyph glyph-name="greater" unicode="&#x3e;" horiz-adv-x="545" 
d="M328 332l-283 112v131l437 -186v-112l-437 -185v129z" />
    <glyph glyph-name="question" unicode="?" horiz-adv-x="482" 
d="M215 399q75 41 75 92q0 57 -73 57q-35 0 -57 -22t-32 -51l-122 49q2 18 27.5 53.5t76.5 65t126 29.5q61 0 110 -19.5t76.5 -55.5t27.5 -84q0 -57 -34.5 -95t-86.5 -70q-24 -14 -33 -32.5t-9 -48.5v-53h-130v94q0 60 58 91zM160.5 14.5q-26.5 26.5 -26.5 63.5
q0 38 26.5 64.5t63.5 26.5q38 0 64.5 -26.5t26.5 -64.5t-26.5 -64t-64.5 -26q-37 0 -63.5 26.5z" />
    <glyph glyph-name="at" unicode="@" horiz-adv-x="761" 
d="M197.5 31.5q-80.5 43.5 -127 121.5t-46.5 177t49 177t131.5 121.5t180.5 43.5q94 0 175.5 -40.5t131 -113.5t49.5 -164q0 -59 -24.5 -98.5t-62.5 -58.5t-80 -19q-31 0 -54 14.5t-34 35.5q-33 -67 -132 -67q-46 0 -83 22.5t-58.5 61t-21.5 84.5q0 68 43 112.5t109 44.5
q30 0 56.5 -11.5t45.5 -30.5v32h93v-157q0 -46 37 -46q24 0 38.5 21.5t14.5 64.5q0 60 -31.5 108t-87 75.5t-124.5 27.5q-67 0 -124 -32t-90.5 -87.5t-33.5 -120.5t31.5 -118t86 -83.5t121.5 -30.5q50 0 86.5 15t56.5 37l93 -80q-30 -34 -91 -58t-145 -24q-98 0 -178.5 43.5
zM427 279q19 20 19 48t-19.5 46.5t-47.5 18.5q-29 0 -48.5 -19t-19.5 -47q0 -29 19 -48t49 -19q29 0 48 20z" />
    <glyph glyph-name="A" unicode="A" horiz-adv-x="673" 
d="M660 0h-157l-49 133h-254l-49 -133h-158l260 660h147zM328 474h-2l-78 -211h157z" />
    <glyph glyph-name="B" unicode="B" horiz-adv-x="558" 
d="M423.5 621q59.5 -39 59.5 -123q0 -56 -31 -97t-75 -50q55 -7 94.5 -48.5t39.5 -115.5q0 -85 -56 -136t-157 -51h-252v660h225q93 0 152.5 -39zM316 416q21 21 21 56q0 39 -22 54.5t-65 15.5h-57v-147h63q39 0 60 21zM356 201q0 39 -24.5 58.5t-71.5 19.5h-67v-161h70
q93 0 93 83z" />
    <glyph glyph-name="C" unicode="C" horiz-adv-x="583" 
d="M376 536q-58 0 -103.5 -25.5t-71 -72.5t-25.5 -108t25 -107.5t70.5 -72.5t104.5 -26q96 0 147 37v-148q-21 -11 -62.5 -18t-84.5 -7q-111 0 -191 44.5t-121.5 122.5t-41.5 175q0 96 44 174t124.5 123t185.5 45q99 0 147 -26v-149q-47 39 -147 39z" />
    <glyph glyph-name="D" unicode="D" horiz-adv-x="599" 
d="M413 618q70 -42 105 -116t35 -172t-35 -172t-105 -116t-173 -42h-197v660h197q103 0 173 -42zM227 131q83 0 126.5 55t43.5 144t-43.5 144t-126.5 55h-37v-398h37z" />
    <glyph glyph-name="E" unicode="E" horiz-adv-x="505" 
d="M435 531h-245v-138h242v-125h-242v-139h245v-129h-392v660h392v-129z" />
    <glyph glyph-name="F" unicode="F" horiz-adv-x="479" 
d="M426 531h-233v-136h215v-128h-215v-267h-147v660h380v-129z" />
    <glyph glyph-name="G" unicode="G" horiz-adv-x="741" 
d="M697 327q0 -94 -43.5 -171.5t-120.5 -122.5t-174 -45q-99 0 -176 45.5t-119.5 123.5t-42.5 173q0 94 44.5 172.5t122 124t171.5 45.5q80 0 148 -33t115 -91l-117 -89q-25 35 -62.5 55t-83.5 20q-54 0 -96 -27.5t-65.5 -74t-23.5 -102.5q0 -55 23.5 -102t65.5 -74.5
t96 -27.5q60 0 104.5 36.5t60.5 93.5h-174v112h347v-41z" />
    <glyph glyph-name="H" unicode="H" horiz-adv-x="624" 
d="M189 0h-147v660h147v-265h217v265h146v-660h-146v267h-217v-267z" />
    <glyph glyph-name="I" unicode="I" horiz-adv-x="269" 
d="M195 0h-148v660h148v-660z" />
    <glyph glyph-name="J" unicode="J" horiz-adv-x="409" 
d="M292.5 45q-55.5 -57 -151.5 -57q-42 0 -76 10.5t-55 24.5t-27 23l55 128q12 -17 33 -30t49 -13q37 0 59 24t22 76v429h147v-457q0 -101 -55.5 -158z" />
    <glyph glyph-name="K" unicode="K" horiz-adv-x="576" 
d="M384 0l-205 289v-289h-147v660h147v-271l188 271h167l-226 -319l251 -341h-175z" />
    <glyph glyph-name="L" unicode="L" horiz-adv-x="489" 
d="M193 129h240v-129h-387v660h147v-531z" />
    <glyph glyph-name="M" unicode="M" horiz-adv-x="819" 
d="M594 0v392l7 109l-25 -125l-113 -323h-144l-112 323l-25 125l6 -109v-392h-147v660h207l134 -443l9 -52l9 52l135 443h206v-660h-147z" />
    <glyph glyph-name="N" unicode="N" horiz-adv-x="666" 
d="M190 0h-147v660h159l243 -429h1v429h148v-660h-159l-244 430h-1v-430z" />
    <glyph glyph-name="O" unicode="O" horiz-adv-x="742" 
d="M65.5 502.5q44.5 78.5 122 124t171.5 45.5q95 0 172.5 -45.5t121.5 -124t44 -172.5t-43 -172.5t-120.5 -124t-174.5 -45.5q-99 0 -176 45.5t-119.5 123.5t-42.5 173q0 94 44.5 172.5zM197.5 228q23.5 -47 65.5 -74.5t96 -27.5t96 27.5t65.5 74.5t23.5 102
q0 56 -23.5 102.5t-65.5 74t-96 27.5t-96 -27.5t-65.5 -74t-23.5 -102.5q0 -55 23.5 -102z" />
    <glyph glyph-name="P" unicode="P" horiz-adv-x="552" 
d="M444 608q63 -52 63 -151q0 -66 -29.5 -114t-81 -72.5t-115.5 -24.5h-91v-246h-147v660h238q100 0 163 -52zM320 385q30 22 30 69t-30 68t-80 21h-50v-180h50q50 0 80 22z" />
    <glyph glyph-name="Q" unicode="Q" horiz-adv-x="730" 
d="M584 -15q23 6 38 13.5t18 11.5l50 -97q-17 -27 -57.5 -48t-95.5 -21q-33 0 -56 7t-54 21t-54.5 21t-56.5 7q-28 0 -51 -8.5t-37.5 -18t-16.5 -13.5l-61 72q44 49 113 68q-73 20 -128 68t-84.5 115.5t-29.5 146.5q0 94 44.5 172.5t122 124t171.5 45.5q95 0 172.5 -45.5
t121.5 -124t44 -172.5q0 -80 -31.5 -149.5t-89.5 -117.5t-134 -66l20 -5q45 -13 74 -13q25 0 48 6zM197.5 228q23.5 -47 65.5 -74.5t96 -27.5t96 27.5t65.5 74.5t23.5 102q0 56 -23.5 102.5t-65.5 74t-96 27.5t-96 -27.5t-65.5 -74t-23.5 -102.5q0 -55 23.5 -102z" />
    <glyph glyph-name="R" unicode="R" horiz-adv-x="590" 
d="M409.5 636q45.5 -24 71.5 -69.5t26 -107.5q0 -58 -21 -98.5t-52 -61.5t-61 -25l160 -274h-165l-143 263h-39v-263h-147v660h268q57 0 102.5 -24zM327 386.5q28 21.5 28 68.5q0 46 -27.5 67t-72.5 21h-69v-178h68q45 0 73 21.5z" />
    <glyph glyph-name="S" unicode="S" horiz-adv-x="559" 
d="M382 660q46 -12 75 -26.5t39 -23.5l-71 -119q-21 15 -56 31t-72 16q-40 0 -63.5 -14t-23.5 -41t27.5 -47t91.5 -44q181 -66 181 -209q0 -64 -34.5 -108t-90.5 -65.5t-123 -21.5q-62 0 -115.5 14t-88 31.5t-44.5 27.5l74 124q10 -8 38.5 -23t65.5 -27t70 -12q46 0 70 18
t24 48q0 32 -30.5 55t-101.5 50q-76 31 -120.5 76.5t-44.5 121.5q0 53 30.5 94t81.5 63.5t110 22.5q55 0 101 -12z" />
    <glyph glyph-name="T" unicode="T" horiz-adv-x="509" 
d="M8 660h462v-129h-157v-531h-148v531h-157v129z" />
    <glyph glyph-name="U" unicode="U" horiz-adv-x="636" 
d="M572 254q0 -81 -32 -141t-91.5 -92.5t-141.5 -32.5q-124 0 -195 71.5t-71 194.5v406h147v-398q0 -67 31.5 -103.5t87.5 -36.5q55 0 86 36.5t31 103.5v398h148v-406z" />
    <glyph glyph-name="V" unicode="V" horiz-adv-x="673" 
d="M4 660h166l152 -472l153 472h166l-236 -660h-166z" />
    <glyph glyph-name="W" unicode="W" horiz-adv-x="912" 
d="M866 660l-151 -660h-177l-100 411l-100 -411h-178l-150 660h169l79 -461l124 461h112l124 -461l79 461h169z" />
    <glyph glyph-name="X" unicode="X" horiz-adv-x="703" 
d="M484 0l-153 232l-149 -232h-178l235 355l-213 305h187l123 -191l123 191h179l-209 -305l248 -355h-193z" />
    <glyph glyph-name="Y" unicode="Y" horiz-adv-x="599" 
d="M162 660l122 -254l122 254h178l-226 -422v-238h-148v238l-227 422h179z" />
    <glyph glyph-name="Z" unicode="Z" horiz-adv-x="629" 
d="M263 129h307v-129h-564l328 531h-282v129h540z" />
    <glyph glyph-name="bracketleft" unicode="[" horiz-adv-x="360" 
d="M300 688v-106h-138v-684h138v-106h-255v896h255z" />
    <glyph glyph-name="backslash" unicode="\" horiz-adv-x="495" 
d="M17 688h119l329 -688h-118z" />
    <glyph glyph-name="bracketright" unicode="]" horiz-adv-x="360" 
d="M46 -208v106h138v684h-138v106h255v-896h-255z" />
    <glyph glyph-name="asciicircum" unicode="^" horiz-adv-x="421" 
d="M204 573l-75 -89h-127l166 188h73l164 -188h-125z" />
    <glyph glyph-name="underscore" unicode="_" horiz-adv-x="421" 
d="M413 -13v-84h-408v84h408z" />
    <glyph glyph-name="grave" unicode="`" horiz-adv-x="335" 
d="M115 671l162 -140l-44 -60l-189 110z" />
    <glyph glyph-name="a" unicode="a" horiz-adv-x="565" 
d="M337 35q-19 -19 -49 -33t-67 -14q-59 0 -104.5 28.5t-70.5 78.5t-25 110t25 109.5t70.5 78.5t104.5 29q53 0 90.5 -23.5t49.5 -48.5v60h149v-410h-148v67q-6 -13 -25 -32zM196.5 134q28.5 -28 68.5 -28q42 0 69 28t27 71t-27 71.5t-69 28.5q-40 0 -68.5 -28.5
t-28.5 -71.5t28.5 -71z" />
    <glyph glyph-name="b" unicode="b" horiz-adv-x="557" 
d="M190 688v-338q12 27 47 49.5t88 22.5q58 0 104.5 -29t73 -78.5t26.5 -109.5t-26.5 -109.5t-73 -78.5t-104.5 -29q-47 0 -83.5 23.5t-53.5 55.5v-67h-148v688h150zM353.5 276.5q-28.5 28.5 -68.5 28.5q-42 0 -68.5 -28.5t-26.5 -71.5t26.5 -71t68.5 -28q40 0 68.5 28
t28.5 71t-28.5 71.5z" />
    <glyph glyph-name="c" unicode="c" horiz-adv-x="426" 
d="M308.5 114.5q19.5 8.5 27.5 17.5l69 -102q-17 -14 -55 -28t-88 -14q-70 0 -123.5 27t-83 76t-29.5 115q0 65 29.5 114t83 75.5t123.5 26.5q48 0 87.5 -14t56.5 -28l-70 -102q-15 11 -30.5 19t-41.5 8q-38 0 -66 -28.5t-28 -70.5q0 -43 28 -71.5t66 -28.5q25 0 44.5 8.5z
" />
    <glyph glyph-name="d" unicode="d" horiz-adv-x="557" 
d="M363 0v67q-17 -32 -53.5 -55.5t-83.5 -23.5q-58 0 -104.5 29t-73 78.5t-26.5 109.5t26.5 109.5t73 78.5t104.5 29q53 0 88 -22.5t47 -49.5v338h150v-688h-148zM197.5 134q28.5 -28 68.5 -28q42 0 68.5 28t26.5 71t-26.5 71.5t-68.5 28.5q-40 0 -68.5 -28.5t-28.5 -71.5
t28.5 -71z" />
    <glyph glyph-name="e" unicode="e" horiz-adv-x="501" 
d="M192 122.5q26 -25.5 69 -25.5q39 0 73 14t56 32l65 -95q-56 -60 -200 -60q-68 0 -121 26t-83.5 76t-30.5 120q0 60 27.5 108t78 76t117.5 28q100 0 159.5 -56t59.5 -161q0 -16 -1 -21h-298q3 -36 29 -61.5zM297.5 300.5q-19.5 22.5 -52.5 22.5t-54.5 -22t-23.5 -56h152
q-2 33 -21.5 55.5z" />
    <glyph glyph-name="f" unicode="f" horiz-adv-x="352" 
d="M79 519q0 57 24.5 98t64.5 62t86 21q41 0 72 -9t39 -15l-52 -116q-4 4 -13.5 8.5t-23.5 4.5q-20 0 -34 -15t-14 -52v-96h91v-123h-91v-287h-149v287h-68v123h68v109z" />
    <glyph glyph-name="g" unicode="g" horiz-adv-x="565" 
d="M510 410v-421q0 -67 -33 -114t-90 -71t-128 -24q-72 0 -131.5 19.5t-93.5 63.5l88 91q21 -25 51.5 -40.5t78.5 -15.5q51 0 80.5 26t29.5 73v70q-6 -13 -25 -32t-49 -33t-67 -14q-59 0 -104.5 28.5t-70.5 78.5t-25 110t25 109.5t70.5 78.5t104.5 29q53 0 90.5 -23.5
t49.5 -48.5v60h149zM334 134q27 28 27 71t-27 71.5t-69 28.5q-40 0 -68.5 -28.5t-28.5 -71.5t28.5 -71t68.5 -28q42 0 69 28z" />
    <glyph glyph-name="h" unicode="h" horiz-adv-x="553" 
d="M413 404q40 -18 65.5 -56.5t25.5 -96.5v-251h-150v226q0 44 -19.5 67t-54.5 23q-36 0 -63 -27.5t-27 -67.5v-221h-151v688h151v-338q5 16 25 33t49.5 28t62.5 11q46 0 86 -18z" />
    <glyph glyph-name="i" unicode="i" horiz-adv-x="261" 
d="M64.5 521.5q-24.5 24.5 -24.5 59.5t25 60.5t59 25.5q35 0 60.5 -25.5t25.5 -60.5q0 -34 -25.5 -59t-60.5 -25t-59.5 24.5zM197 410v-410h-149v410h149z" />
    <glyph glyph-name="j" unicode="j" horiz-adv-x="268" 
d="M71 521.5q-25 24.5 -25 59.5t25 60.5t60 25.5t60 -25.5t25 -60.5t-25 -59.5t-60 -24.5t-60 24.5zM-24 -212.5q-30 7.5 -47 18.5l46 112q15 -12 38 -12q42 0 42 67v437h149v-461q0 -77 -39 -123t-119 -46q-40 0 -70 7.5z" />
    <glyph glyph-name="k" unicode="k" horiz-adv-x="510" 
d="M297 215l214 -215h-173l-160 166v-166h-150v688h150v-421l144 143h169z" />
    <glyph glyph-name="l" unicode="l" horiz-adv-x="249" 
d="M42 688h150v-688h-150v688z" />
    <glyph glyph-name="m" unicode="m" horiz-adv-x="809" 
d="M719.5 376.5q42.5 -45.5 42.5 -135.5v-241h-147v218q0 48 -14.5 72.5t-51.5 24.5q-35 0 -56.5 -26.5t-21.5 -70.5v-218h-137v218q0 97 -65 97q-35 0 -56.5 -26t-21.5 -71v-218h-148v410h148v-58q6 16 27 32.5t51 27t62 10.5q92 0 127 -79q10 30 52.5 54.5t93.5 24.5
q73 0 115.5 -45.5z" />
    <glyph glyph-name="n" unicode="n" horiz-adv-x="548" 
d="M409.5 404q40.5 -18 66 -56.5t25.5 -96.5v-251h-150v226q0 43 -21 66.5t-56 23.5t-61.5 -27.5t-26.5 -67.5v-221h-150v410h150v-60q6 16 26 33t49.5 28t61.5 11q46 0 86.5 -18z" />
    <glyph glyph-name="o" unicode="o" horiz-adv-x="516" 
d="M131.5 15.5q-52.5 27.5 -82 77t-29.5 111.5t29.5 112t82 78t119.5 28q66 0 118 -28t81 -78t29 -112t-29 -111.5t-81 -77t-118 -27.5q-67 0 -119.5 27.5zM313.5 137q23.5 26 23.5 68q0 41 -23.5 67.5t-62.5 26.5q-40 0 -64 -26.5t-24 -67.5q0 -42 24 -68t64 -26
q39 0 62.5 26z" />
    <glyph glyph-name="p" unicode="p" horiz-adv-x="565" 
d="M41 410h150v-60q13 26 50 49t90 23q58 0 103.5 -29t71 -78.5t25.5 -109.5t-25.5 -109.5t-71 -78.5t-103.5 -29q-37 0 -67.5 14t-49.5 33t-24 32v-275h-149v618zM355.5 276.5q-28.5 28.5 -68.5 28.5q-42 0 -69 -28.5t-27 -71.5t27 -71t69 -28q40 0 68.5 28t28.5 71
t-28.5 71.5z" />
    <glyph glyph-name="q" unicode="q" horiz-adv-x="565" 
d="M375 67q-5 -13 -24 -32t-49.5 -33t-67.5 -14q-58 0 -103.5 29t-71 78.5t-25.5 109.5t25.5 109.5t71 78.5t103.5 29q53 0 90 -23t50 -49v60h150v-618h-149v275zM209.5 134q28.5 -28 68.5 -28q42 0 69 28t27 71t-27 71.5t-69 28.5q-40 0 -68.5 -28.5t-28.5 -71.5t28.5 -71z
" />
    <glyph glyph-name="r" unicode="r" horiz-adv-x="395" 
d="M357.5 414.5q22.5 -7.5 38.5 -17.5l-59 -122q-9 11 -26.5 19t-41.5 8q-43 0 -66.5 -30.5t-23.5 -64.5v-207h-149v410h149v-58q12 25 45.5 47.5t84.5 22.5q26 0 48.5 -7.5z" />
    <glyph glyph-name="s" unicode="s" horiz-adv-x="429" 
d="M325 409q45 -13 59 -22l-49 -89q-12 9 -37 19t-55 10q-26 0 -42.5 -8t-16.5 -23q0 -14 18 -24t54 -17q58 -12 96 -40t38 -85q0 -77 -59.5 -109.5t-142.5 -32.5q-64 0 -107 16t-60 29l48 99q17 -13 45 -25.5t60 -12.5t50 9t18 26t-17 26.5t-53 17.5q-53 11 -91.5 40.5
t-38.5 86.5q0 58 53.5 90t130.5 32q54 0 99 -13z" />
    <glyph glyph-name="t" unicode="t" horiz-adv-x="362" 
d="M78 579h148v-169h93v-123h-93v-111q0 -58 35 -58q12 0 22.5 5t12.5 9l52 -112q-10 -9 -47.5 -20.5t-82.5 -11.5q-64 0 -102 35.5t-38 105.5v158h-70v123h70v169z" />
    <glyph glyph-name="u" unicode="u" horiz-adv-x="547" 
d="M266 111q82 0 82 109v190h148v-206q0 -100 -60.5 -158t-169.5 -58q-108 0 -168.5 58t-60.5 158v206h147v-190q0 -109 82 -109z" />
    <glyph glyph-name="v" unicode="v" horiz-adv-x="545" 
d="M266 136l100 274h160l-173 -410h-175l-173 410h160z" />
    <glyph glyph-name="w" unicode="w" horiz-adv-x="728" 
d="M123 0l-135 410h159l66 -227l95 219h99l93 -219l67 227h159l-135 -410h-138l-96 234l-96 -234h-138z" />
    <glyph glyph-name="x" unicode="x" horiz-adv-x="543" 
d="M358 0l-98 128l-98 -128h-155l174 209l-157 201h168l77 -106l81 106h152l-152 -190l175 -220h-167z" />
    <glyph glyph-name="y" unicode="y" horiz-adv-x="513" 
d="M507 410l-282 -618h-150l95 208l-171 410h149l100 -280l112 280h147z" />
    <glyph glyph-name="z" unicode="z" horiz-adv-x="448" 
d="M230 105h190v-105h-422l206 306h-173v104h405z" />
    <glyph glyph-name="braceleft" unicode="{" horiz-adv-x="365" 
d="M88 300q15 14 15 41v214q0 56 30.5 94.5t95.5 38.5h76v-109h-38q-24 0 -35.5 -12t-11.5 -37v-204q0 -35 -14 -55.5t-47 -30.5q34 -11 47.5 -31.5t13.5 -54.5v-204q0 -24 11 -36.5t36 -12.5h38v-109h-76q-65 0 -95.5 38.5t-30.5 94.5v214q0 27 -15 41t-42 14v92
q27 0 42 14z" />
    <glyph glyph-name="bar" unicode="|" horiz-adv-x="220" 
d="M39 688h134v-688h-134v688z" />
    <glyph glyph-name="braceright" unicode="}" horiz-adv-x="381" 
d="M271 180q-15 -14 -15 -41v-214q0 -56 -30.5 -94.5t-95.5 -38.5h-76v109h38q25 0 36 12.5t11 36.5v204q0 34 13.5 54.5t47.5 31.5q-33 10 -47 30.5t-14 55.5v204q0 25 -11.5 37t-35.5 12h-38v109h76q65 0 95.5 -38.5t30.5 -94.5v-214q0 -27 15 -41t42 -14v-92
q-27 0 -42 -14z" />
    <glyph glyph-name="asciitilde" unicode="~" horiz-adv-x="580" 
d="M455 277.5q-40 -32.5 -84 -32.5q-30 0 -53.5 10t-52.5 29q-20 14 -33 20t-26 6q-23 0 -43.5 -16t-35.5 -39l-85 53q29 47 69 79.5t83 32.5q32 0 56 -10.5t52 -29.5q20 -13 32.5 -19t25.5 -6q23 0 43.5 16t35.5 39l85 -53q-29 -47 -69 -79.5z" />
    <glyph glyph-name="exclamdown" unicode="&#xa1;" horiz-adv-x="304" 
d="M216.5 647q26.5 -26 26.5 -64t-26.5 -64.5t-64.5 -26.5q-37 0 -63.5 27t-26.5 64t26.5 63.5t63.5 26.5q38 0 64.5 -26zM203 447l30 -474h-161l30 474h101z" />
    <glyph glyph-name="cent" unicode="&#xa2;" horiz-adv-x="408" 
d="M405 30q-14 -12 -45 -24.5t-71 -16.5v-92h-85v96q-82 16 -130 72.5t-48 140.5t48 140t130 71v92h85v-88q39 -4 70.5 -16.5t46.5 -24.5l-70 -102q-15 11 -30.5 19t-41.5 8q-38 0 -66 -28.5t-28 -70.5q0 -43 28 -71.5t66 -28.5q25 0 44.5 8.5t27.5 17.5z" />
    <glyph glyph-name="sterling" unicode="&#xa3;" horiz-adv-x="612" 
d="M101 383q-14 43 -14 86q0 58 25.5 104.5t75.5 73t120 26.5q92 0 147 -44t72 -107l-121 -61q-7 39 -30 66.5t-62 27.5q-41 0 -62 -24.5t-21 -67.5q0 -32 13.5 -75.5t25.5 -72.5h139v-81h-119q3 -7 6 -21t3 -28q0 -30 -14 -53q10 -1 36 -12q20 -9 36 -14.5t35 -5.5
q20 0 32.5 10.5t18.5 23t6 15.5l119 -43q-16 -49 -56 -83.5t-102 -34.5q-35 0 -61 6.5t-63 19.5q-33 12 -52.5 17t-43.5 5q-14 0 -26 -7t-18.5 -16t-7.5 -13h-105q0 39 18 70.5t48 50t65 18.5q12 21 12 50q0 25 -9 45h-123v81h86q-15 25 -29 68z" />
    <glyph glyph-name="yen" unicode="&#xa5;" horiz-adv-x="599" 
d="M416 346h113v-91h-162l-9 -17v-44h171v-91h-171v-103h-148v103h-170v91h170v44l-9 17h-161v91h112l-169 314h179l122 -254l122 254h178z" />
    <glyph glyph-name="brokenbar" unicode="&#xa6;" horiz-adv-x="220" 
d="M43 688h120v-266h-120v266zM43 266h120v-266h-120v266z" />
    <glyph glyph-name="section" unicode="&#xa7;" horiz-adv-x="537" 
d="M94 -177.5q-53 42.5 -70 103.5l131 35q8 -26 28.5 -44t52.5 -18q68 0 68 52q0 25 -30 45t-99 45q-77 27 -113.5 69t-36.5 103q0 34 19.5 65.5t47.5 53.5t53 30q-84 60 -84 146q0 45 24.5 82.5t72 59.5t111.5 22q82 0 131 -41t65 -100l-127 -30q-8 22 -25 37t-42 15
q-27 0 -43.5 -12t-16.5 -30q0 -26 24.5 -45t89.5 -43q81 -30 125.5 -73.5t44.5 -107.5q0 -98 -114 -149q77 -45 77 -140q0 -48 -25.5 -87.5t-76 -62.5t-120.5 -23q-89 0 -142 42.5zM178 286q-18 -19 -18 -45q0 -25 23.5 -43.5t66.5 -36.5q20 -7 43 -19q29 7 48 25t19 46
q0 40 -101 84q-34 15 -36 15q-27 -7 -45 -26z" />
    <glyph glyph-name="dieresis" unicode="&#xa8;" horiz-adv-x="473" 
d="M180 610.5q21 -21.5 21 -51.5t-21 -51.5t-51 -21.5q-31 0 -52 21.5t-21 51.5t21 51.5t52 21.5q30 0 51 -21.5zM381 610.5q21 -21.5 21 -51.5t-21 -51.5t-51 -21.5q-31 0 -52 21.5t-21 51.5t21 51.5t52 21.5q30 0 51 -21.5z" />
    <glyph glyph-name="copyright" unicode="&#xa9;" horiz-adv-x="745" 
d="M70 501q46 79 124.5 125t170.5 46q93 0 172 -46t125 -125t46 -171t-46 -171t-125 -125t-172 -46q-92 0 -170.5 46t-124.5 125t-46 171t46 171zM144.5 202q34.5 -59 93 -93.5t127.5 -34.5t128 34.5t93.5 93.5t34.5 128t-34.5 128t-93.5 93.5t-128 34.5t-127.5 -34.5
t-93 -93.5t-34.5 -128t34.5 -128zM437 393l33 68q-6 6 -33 16.5t-67 10.5q-44 0 -82 -21.5t-60.5 -58t-22.5 -80.5q0 -43 22.5 -79.5t60.5 -57.5t82 -21q28 0 54.5 7.5t45.5 18.5l-34 68q-24 -12 -49 -12q-31 0 -52 22.5t-21 54.5t20.5 54.5t52.5 22.5q23 0 50 -13z" />
    <glyph glyph-name="ordfeminine" unicode="&#xaa;" horiz-adv-x="424" 
d="M92.5 632.5q35.5 39.5 90.5 39.5q50 0 84 -32v24h86v-254h-85v30h-1q-14 -16 -35.5 -26.5t-48.5 -10.5q-55 0 -90.5 39t-35.5 95t35.5 95.5zM166 493.5q17 -17.5 43 -17.5t43 17.5t17 43.5q0 27 -17.5 44t-42.5 17t-42.5 -17t-17.5 -44q0 -26 17 -43.5z" />
    <glyph glyph-name="guillemotleft" unicode="&#xab;" horiz-adv-x="504" 
d="M23 222l155 200l73 -57l-111 -143l111 -142l-73 -57zM222 222l156 200l72 -57l-110 -143l110 -142l-72 -57z" />
    <glyph glyph-name="registered" unicode="&#xae;" horiz-adv-x="420" 
d="M48 582q24 41 65 65.5t89 24.5q49 0 90.5 -24.5t65.5 -65.5t24 -90q0 -48 -24 -89t-65.5 -65t-90.5 -24q-48 0 -89 24t-65 65t-24 89q0 49 24 90zM90.5 427q17.5 -30 47 -47t64.5 -17q55 0 93 37.5t38 91.5q0 35 -17.5 65.5t-47.5 48t-66 17.5q-35 0 -64.5 -17.5t-47 -48
t-17.5 -65.5t17.5 -65zM245 563q15 -13 15 -36q0 -18 -9 -30.5t-25 -17.5l58 -69h-48l-50 66h-1v-66h-37v166h58q24 0 39 -13zM212 506.5q8 3.5 8 17.5t-8.5 18t-23.5 4h-3v-43h4q15 0 23 3.5z" />
    <glyph glyph-name="macron" unicode="&#xaf;" horiz-adv-x="463" 
d="M387 602v-94h-325v94h325z" />
    <glyph glyph-name="degree" unicode="&#xb0;" horiz-adv-x="309" 
d="M81.5 676.5q26.5 22.5 66.5 22.5q38 0 64.5 -23t26.5 -58q0 -36 -25.5 -59t-65.5 -23q-41 0 -67 23t-26 59t26.5 58.5zM122.5 591.5q9.5 -10.5 25.5 -10.5q15 0 25 11t10 26q0 16 -10 26t-25 10t-25 -10t-10 -26t9.5 -26.5z" />
    <glyph glyph-name="plusminus" unicode="&#xb1;" horiz-adv-x="531" 
d="M198 339h-145v121h145v145h122v-145h144v-121h-144v-145h-122v145zM471 30h-424v122h424v-122z" />
    <glyph glyph-name="uni00B2" unicode="&#xb2;" horiz-adv-x="242" 
d="M72 580l-49 22q1 8 11 24.5t33 31t58 14.5q49 0 71 -25.5t22 -58.5q0 -30 -21 -57.5t-33 -37.5t-45 -33h97v-50h-183v46q3 2 65.5 46t62.5 86q0 35 -36 35q-31 0 -53 -43z" />
    <glyph glyph-name="uni00B3" unicode="&#xb3;" horiz-adv-x="220" 
d="M27.5 634q8.5 14 29 26.5t52.5 12.5q37 0 61 -20.5t24 -53.5q0 -20 -10 -34.5t-23 -17.5q16 -3 30 -20t14 -41q0 -38 -27.5 -62t-70.5 -24q-39 0 -64 18.5t-34 45.5l54 27q5 -17 16.5 -28.5t27.5 -11.5q18 0 28.5 10.5t10.5 26.5t-11 25t-28 9h-5v42h7q14 0 23.5 8.5
t9.5 22.5q0 13 -9 22t-25 9t-27 -9.5t-15 -23.5l-47 23q0 4 8.5 18z" />
    <glyph glyph-name="acute" unicode="&#xb4;" horiz-adv-x="477" 
d="M277 671l71 -90l-189 -110l-44 60z" />
    <glyph glyph-name="paragraph" unicode="&#xb6;" horiz-adv-x="553" 
d="M422 579h-50v-579h-81v247h-75q-62 0 -110 29t-73.5 77.5t-25.5 104.5t25.5 102t73 73t110.5 27h286v-660h-80v579z" />
    <glyph glyph-name="periodcentered" unicode="&#xb7;" horiz-adv-x="283" 
d="M78.5 151.5q-26.5 26.5 -26.5 63.5t26.5 63.5t63.5 26.5q38 0 64 -26t26 -64q0 -37 -26 -63.5t-64 -26.5q-37 0 -63.5 26.5z" />
    <glyph glyph-name="cedilla" unicode="&#xb8;" horiz-adv-x="381" 
d="M200 -43q44 4 77 -16.5t33 -58.5q0 -45 -33.5 -71.5t-82.5 -26.5q-42 0 -74.5 12t-50.5 30l49 55q13 -13 30 -21.5t34 -8.5q18 0 29 8.5t11 22.5q0 16 -13 25t-33 9q-28 0 -41 -7l-7 6l38 106l52 -18z" />
    <glyph glyph-name="uni00B9" unicode="&#xb9;" horiz-adv-x="129" 
d="M78 660h26v-250h-55v179l-40 -21v53z" />
    <glyph glyph-name="ordmasculine" unicode="&#xba;" horiz-adv-x="432" 
d="M101 634q44 38 109 38q64 0 107.5 -38t43.5 -97q0 -58 -43 -96t-108 -38q-68 0 -110.5 37.5t-42.5 96.5t44 97zM165.5 493q16.5 -17 43.5 -17q26 0 43.5 17.5t17.5 43.5q0 27 -17.5 44t-43.5 17q-25 0 -42.5 -17t-17.5 -44t16.5 -44z" />
    <glyph glyph-name="guillemotright" unicode="&#xbb;" horiz-adv-x="504" 
d="M150 222l-110 143l72 57l156 -200l-156 -199l-72 57zM350 222l-111 143l73 57l155 -200l-155 -199l-73 57z" />
    <glyph glyph-name="onequarter" unicode="&#xbc;" horiz-adv-x="702" 
d="M158 662h41v-387h-86v277l-62 -32v82zM107 0l384 660h90l-384 -660h-90zM663 81h-44v-81h-86v81h-159v61l153 243h92v-229h44v-75zM461 156h72v119h-1z" />
    <glyph glyph-name="onehalf" unicode="&#xbd;" horiz-adv-x="763" 
d="M150 662h41v-387h-86v277l-62 -32v82zM102 0l384 660h90l-384 -660h-90zM540.5 304.5q-17.5 -13.5 -27.5 -29.5t-11 -22l-74 34q2 13 17.5 37.5t49 46t86.5 21.5q74 0 107.5 -38.5t33.5 -88.5q0 -46 -31.5 -87.5t-67 -68.5t-51.5 -35h147v-76h-277v69q55 36 124 95
t69 104q0 52 -54 52q-23 0 -40.5 -13.5z" />
    <glyph glyph-name="threequarters" unicode="&#xbe;" horiz-adv-x="767" 
d="M57 615.5q13 20.5 42.5 39t76.5 18.5q54 0 89.5 -30t35.5 -78q0 -28 -14.5 -49.5t-34.5 -27.5q23 -3 43.5 -27.5t20.5 -60.5q0 -55 -40 -90.5t-102 -35.5q-57 0 -93.5 27.5t-50.5 66.5l79 39q8 -25 24.5 -42t40.5 -17q26 0 41.5 15.5t15.5 39.5t-16 36.5t-41 12.5h-8v61
h10q21 0 34.5 12t13.5 33q0 20 -13.5 33t-36.5 13q-42 0 -51.5 -24l-9.5 -24l-69 33q0 6 13 26.5zM171 0l384 660h90l-384 -660h-90zM712 81h-44v-81h-86v81h-159v61l153 243h92v-229h44v-75zM510 156h72v119h-1z" />
    <glyph glyph-name="questiondown" unicode="&#xbf;" horiz-adv-x="482" 
d="M307.5 644.5q26.5 -26.5 26.5 -63.5q0 -38 -26.5 -64.5t-63.5 -26.5q-38 0 -64.5 26.5t-26.5 64.5t26.5 64t64.5 26q37 0 63.5 -26.5zM253 260q-75 -41 -75 -92q0 -57 73 -57q35 0 57.5 22.5t31.5 50.5l122 -49q-2 -18 -27.5 -53.5t-76.5 -65t-126 -29.5q-61 0 -110 19.5
t-76.5 55.5t-27.5 84q0 57 34.5 95t86.5 70q24 14 33 32.5t9 48.5v53h130v-94q0 -60 -58 -91z" />
    <glyph glyph-name="Agrave" unicode="&#xc0;" horiz-adv-x="676" 
d="M660 0h-157l-49 133h-254l-49 -133h-158l260 660h147zM328 474h-2l-78 -211h157zM186 921l162 -140l-44 -60l-189 110z" />
    <glyph glyph-name="Aacute" unicode="&#xc1;" horiz-adv-x="676" 
d="M660 0h-157l-49 133h-254l-49 -133h-158l260 660h147zM328 474h-2l-78 -211h157zM418 920l71 -90l-189 -110l-44 60z" />
    <glyph glyph-name="Acircumflex" unicode="&#xc2;" horiz-adv-x="676" 
d="M660 0h-157l-49 133h-254l-49 -133h-158l260 660h147zM328 474h-2l-78 -211h157zM303 921l175 -128l-54 -72l-121 89l-122 -88l-54 71z" />
    <glyph glyph-name="Atilde" unicode="&#xc3;" horiz-adv-x="676" 
d="M660 0h-157l-49 133h-254l-49 -133h-158l260 660h147zM328 474h-2l-78 -211h157zM213.5 769q-9.5 -11 -14.5 -26h-80q11 57 38 96.5t70 39.5q23 0 42 -5.5t43 -15.5q15 -6 30 -11t28 -5t22.5 11t14.5 26h80q-11 -57 -38.5 -96.5t-70.5 -39.5q-22 0 -40 5.5t-43 15.5
q-4 1 -16.5 6t-23 7.5t-20.5 2.5q-12 0 -21.5 -11z" />
    <glyph glyph-name="Adieresis" unicode="&#xc4;" horiz-adv-x="676" 
d="M660 0h-157l-49 133h-254l-49 -133h-158l260 660h147zM328 474h-2l-78 -211h157zM253 860.5q21 -21.5 21 -51.5t-21 -51.5t-51 -21.5q-31 0 -52 21.5t-21 51.5t21 51.5t52 21.5q30 0 51 -21.5zM454 860.5q21 -21.5 21 -51.5t-21 -51.5t-51 -21.5q-31 0 -52 21.5t-21 51.5
t21 51.5t52 21.5q30 0 51 -21.5z" />
    <glyph glyph-name="Aring" unicode="&#xc5;" horiz-adv-x="676" 
d="M660 0h-157l-49 133h-254l-49 -133h-158l260 660h147zM328 474h-2l-78 -211h157zM212 917q37 32 91 32t90.5 -32t36.5 -81t-35.5 -81t-91.5 -32q-57 0 -92.5 31.5t-35.5 81.5q0 49 37 81zM273.5 805.5q11.5 -12.5 29.5 -12.5q17 0 29 13t12 30t-12 29.5t-29 12.5
t-29 -12.5t-12 -29.5q0 -18 11.5 -30.5z" />
    <glyph glyph-name="AE" unicode="&#xc6;" horiz-adv-x="859" 
d="M542 531v-138h242v-125h-242v-139h245v-129h-392v133h-173l-70 -133h-160l356 660h439v-129h-245zM395 245v211l-118 -211h118z" />
    <glyph glyph-name="Ccedilla" unicode="&#xc7;" horiz-adv-x="583" 
d="M272.5 510.5q-45.5 -25.5 -71 -72.5t-25.5 -108t25 -107.5t70.5 -72.5t104.5 -26q96 0 147 37v-148q-21 -11 -62.5 -18t-84.5 -7q-30 0 -59 3l-13 -34q44 4 77 -16.5t33 -58.5q0 -45 -33.5 -71.5t-82.5 -26.5q-42 0 -74.5 12t-50.5 30l49 55q13 -13 30 -21.5t34 -8.5
q18 0 29 8.5t11 22.5q0 16 -13 25t-33 9q-28 0 -41 -7l-7 6l31 87q-115 30 -178 118.5t-63 209.5q0 96 44 174t124.5 123t185.5 45q99 0 147 -26v-149q-47 39 -147 39q-58 0 -103.5 -25.5z" />
    <glyph glyph-name="Egrave" unicode="&#xc8;" horiz-adv-x="511" 
d="M435 531h-245v-138h242v-125h-242v-139h245v-129h-392v660h392v-129zM118 921l162 -140l-44 -60l-189 110z" />
    <glyph glyph-name="Eacute" unicode="&#xc9;" horiz-adv-x="511" 
d="M435 531h-245v-138h242v-125h-242v-139h245v-129h-392v660h392v-129zM292 921l71 -90l-189 -110l-44 60z" />
    <glyph glyph-name="Ecircumflex" unicode="&#xca;" horiz-adv-x="511" 
d="M435 531h-245v-138h242v-125h-242v-139h245v-129h-392v660h392v-129zM235 921l175 -128l-54 -72l-121 89l-122 -88l-54 71z" />
    <glyph glyph-name="Edieresis" unicode="&#xcb;" horiz-adv-x="511" 
d="M435 531h-245v-138h242v-125h-242v-139h245v-129h-392v660h392v-129zM192 860.5q21 -21.5 21 -51.5t-21 -51.5t-51 -21.5q-31 0 -52 21.5t-21 51.5t21 51.5t52 21.5q30 0 51 -21.5zM393 860.5q21 -21.5 21 -51.5t-21 -51.5t-51 -21.5q-31 0 -52 21.5t-21 51.5t21 51.5
t52 21.5q30 0 51 -21.5z" />
    <glyph glyph-name="Igrave" unicode="&#xcc;" horiz-adv-x="269" 
d="M195 0h-148v660h148v-660zM0 921l162 -140l-44 -60l-189 110z" />
    <glyph glyph-name="Iacute" unicode="&#xcd;" horiz-adv-x="269" 
d="M195 0h-148v660h148v-660zM203 921l71 -90l-189 -110l-44 60z" />
    <glyph glyph-name="Icircumflex" unicode="&#xce;" horiz-adv-x="269" 
d="M195 0h-148v660h148v-660zM118 921l175 -128l-54 -72l-121 89l-122 -88l-54 71z" />
    <glyph glyph-name="Idieresis" unicode="&#xcf;" horiz-adv-x="269" 
d="M195 0h-148v660h148v-660zM68 860.5q21 -21.5 21 -51.5t-21 -51.5t-51 -21.5q-31 0 -52 21.5t-21 51.5t21 51.5t52 21.5q30 0 51 -21.5zM269 860.5q21 -21.5 21 -51.5t-21 -51.5t-51 -21.5q-31 0 -52 21.5t-21 51.5t21 51.5t52 21.5q30 0 51 -21.5z" />
    <glyph glyph-name="Eth" unicode="&#xd0;" horiz-adv-x="650" 
d="M435.5 617.5q76.5 -42.5 121 -118t44.5 -169.5t-44.5 -169.5t-121 -118t-166.5 -42.5h-189v271h-67v119h67v270h189q90 0 166.5 -42.5zM350.5 158q43.5 26 67.5 71t24 100q0 56 -24 101.5t-67.5 71.5t-99.5 26h-24v-138h88v-119h-88v-139h24q56 0 99.5 26z" />
    <glyph glyph-name="Ntilde" unicode="&#xd1;" horiz-adv-x="675" 
d="M190 0h-147v660h159l243 -429h1v429h148v-660h-159l-244 430h-1v-430zM231.5 769q-9.5 -11 -14.5 -26h-80q11 57 38 96.5t70 39.5q23 0 42 -5.5t43 -15.5q15 -6 30 -11t28 -5t22.5 11t14.5 26h80q-11 -57 -38.5 -96.5t-70.5 -39.5q-22 0 -40 5.5t-43 15.5q-4 1 -16.5 6
t-23 7.5t-20.5 2.5q-12 0 -21.5 -11z" />
    <glyph glyph-name="Ograve" unicode="&#xd2;" horiz-adv-x="730" 
d="M65.5 502.5q44.5 78.5 122 124t171.5 45.5q95 0 172.5 -45.5t121.5 -124t44 -172.5t-43 -172.5t-120.5 -124t-174.5 -45.5q-99 0 -176 45.5t-119.5 123.5t-42.5 173q0 94 44.5 172.5zM197.5 228q23.5 -47 65.5 -74.5t96 -27.5t96 27.5t65.5 74.5t23.5 102
q0 56 -23.5 102.5t-65.5 74t-96 27.5t-96 -27.5t-65.5 -74t-23.5 -102.5q0 -55 23.5 -102zM232 921l162 -140l-44 -60l-189 110z" />
    <glyph glyph-name="Oacute" unicode="&#xd3;" horiz-adv-x="730" 
d="M65.5 502.5q44.5 78.5 122 124t171.5 45.5q95 0 172.5 -45.5t121.5 -124t44 -172.5t-43 -172.5t-120.5 -124t-174.5 -45.5q-99 0 -176 45.5t-119.5 123.5t-42.5 173q0 94 44.5 172.5zM197.5 228q23.5 -47 65.5 -74.5t96 -27.5t96 27.5t65.5 74.5t23.5 102
q0 56 -23.5 102.5t-65.5 74t-96 27.5t-96 -27.5t-65.5 -74t-23.5 -102.5q0 -55 23.5 -102zM433 921l71 -90l-189 -110l-44 60z" />
    <glyph glyph-name="Ocircumflex" unicode="&#xd4;" horiz-adv-x="730" 
d="M65.5 502.5q44.5 78.5 122 124t171.5 45.5q95 0 172.5 -45.5t121.5 -124t44 -172.5t-43 -172.5t-120.5 -124t-174.5 -45.5q-99 0 -176 45.5t-119.5 123.5t-42.5 173q0 94 44.5 172.5zM197.5 228q23.5 -47 65.5 -74.5t96 -27.5t96 27.5t65.5 74.5t23.5 102
q0 56 -23.5 102.5t-65.5 74t-96 27.5t-96 -27.5t-65.5 -74t-23.5 -102.5q0 -55 23.5 -102zM351 922l175 -128l-54 -72l-121 89l-122 -88l-54 71z" />
    <glyph glyph-name="Otilde" unicode="&#xd5;" horiz-adv-x="730" 
d="M65.5 502.5q44.5 78.5 122 124t171.5 45.5q95 0 172.5 -45.5t121.5 -124t44 -172.5t-43 -172.5t-120.5 -124t-174.5 -45.5q-99 0 -176 45.5t-119.5 123.5t-42.5 173q0 94 44.5 172.5zM197.5 228q23.5 -47 65.5 -74.5t96 -27.5t96 27.5t65.5 74.5t23.5 102
q0 56 -23.5 102.5t-65.5 74t-96 27.5t-96 -27.5t-65.5 -74t-23.5 -102.5q0 -55 23.5 -102zM259.5 769q-9.5 -11 -14.5 -26h-80q11 57 38 96.5t70 39.5q23 0 42 -5.5t43 -15.5q15 -6 30 -11t28 -5t22.5 11t14.5 26h80q-11 -57 -38.5 -96.5t-70.5 -39.5q-22 0 -40 5.5
t-43 15.5q-4 1 -16.5 6t-23 7.5t-20.5 2.5q-12 0 -21.5 -11z" />
    <glyph glyph-name="Odieresis" unicode="&#xd6;" horiz-adv-x="730" 
d="M65.5 502.5q44.5 78.5 122 124t171.5 45.5q95 0 172.5 -45.5t121.5 -124t44 -172.5t-43 -172.5t-120.5 -124t-174.5 -45.5q-99 0 -176 45.5t-119.5 123.5t-42.5 173q0 94 44.5 172.5zM197.5 228q23.5 -47 65.5 -74.5t96 -27.5t96 27.5t65.5 74.5t23.5 102
q0 56 -23.5 102.5t-65.5 74t-96 27.5t-96 -27.5t-65.5 -74t-23.5 -102.5q0 -55 23.5 -102zM300 860.5q21 -21.5 21 -51.5t-21 -51.5t-51 -21.5q-31 0 -52 21.5t-21 51.5t21 51.5t52 21.5q30 0 51 -21.5zM501 860.5q21 -21.5 21 -51.5t-21 -51.5t-51 -21.5q-31 0 -52 21.5
t-21 51.5t21 51.5t52 21.5q30 0 51 -21.5z" />
    <glyph glyph-name="multiply" unicode="&#xd7;" horiz-adv-x="516" 
d="M373 125l-121 121l-121 -121l-86 87l120 120l-120 121l86 85l120 -120l121 120l86 -86l-121 -121l121 -120z" />
    <glyph glyph-name="Oslash" unicode="&#xd8;" horiz-adv-x="730" 
d="M618 553q38 -45 58.5 -102t20.5 -121q0 -94 -43 -172.5t-120.5 -124t-174.5 -45.5q-126 0 -216 73l-91 -94l-52 46l94 98q-35 45 -54 100.5t-19 118.5q0 94 44.5 172.5t122 124t171.5 45.5q59 0 112 -18t97 -52l81 84l52 -47zM201 221l266 277q-45 36 -108 36
q-54 0 -96 -27.5t-65.5 -74t-23.5 -102.5q0 -58 27 -109zM514 445l-269 -278q49 -41 114 -41q54 0 96 27.5t65.5 74.5t23.5 102q0 63 -30 115z" />
    <glyph glyph-name="Ugrave" unicode="&#xd9;" horiz-adv-x="631" 
d="M572 254q0 -81 -32 -141t-91.5 -92.5t-141.5 -32.5q-124 0 -195 71.5t-71 194.5v406h147v-398q0 -67 31.5 -103.5t87.5 -36.5q55 0 86 36.5t31 103.5v398h148v-406zM188 922l162 -140l-44 -60l-189 110z" />
    <glyph glyph-name="Uacute" unicode="&#xda;" horiz-adv-x="631" 
d="M572 254q0 -81 -32 -141t-91.5 -92.5t-141.5 -32.5q-124 0 -195 71.5t-71 194.5v406h147v-398q0 -67 31.5 -103.5t87.5 -36.5q55 0 86 36.5t31 103.5v398h148v-406zM373 921l71 -90l-189 -110l-44 60z" />
    <glyph glyph-name="Ucircumflex" unicode="&#xdb;" horiz-adv-x="631" 
d="M572 254q0 -81 -32 -141t-91.5 -92.5t-141.5 -32.5q-124 0 -195 71.5t-71 194.5v406h147v-398q0 -67 31.5 -103.5t87.5 -36.5q55 0 86 36.5t31 103.5v398h148v-406zM305 923l175 -128l-54 -72l-121 89l-122 -88l-54 71z" />
    <glyph glyph-name="Udieresis" unicode="&#xdc;" horiz-adv-x="631" 
d="M572 254q0 -81 -32 -141t-91.5 -92.5t-141.5 -32.5q-124 0 -195 71.5t-71 194.5v406h147v-398q0 -67 31.5 -103.5t87.5 -36.5q55 0 86 36.5t31 103.5v398h148v-406zM251 856.5q21 -21.5 21 -51.5t-21 -51.5t-51 -21.5q-31 0 -52 21.5t-21 51.5t21 51.5t52 21.5
q30 0 51 -21.5zM452 856.5q21 -21.5 21 -51.5t-21 -51.5t-51 -21.5q-31 0 -52 21.5t-21 51.5t21 51.5t52 21.5q30 0 51 -21.5z" />
    <glyph glyph-name="Yacute" unicode="&#xdd;" horiz-adv-x="599" 
d="M162 660l122 -254l122 254h178l-226 -422v-238h-148v238l-227 422h179zM353 920l71 -90l-189 -110l-44 60z" />
    <glyph glyph-name="Thorn" unicode="&#xde;" horiz-adv-x="549" 
d="M189 538h98q98 0 159.5 -52.5t61.5 -151.5q0 -66 -29 -114t-79 -73t-113 -25h-98v-122h-147v660h147v-122zM322.5 263.5q24.5 24.5 24.5 69.5q0 44 -24 66t-66 22h-68v-182h68q41 0 65.5 24.5z" />
    <glyph glyph-name="germandbls" unicode="&#xdf;" horiz-adv-x="561" 
d="M342 141q28 27 28 73q0 48 -28 73.5t-76 25.5v104q38 0 65 24t27 64q0 39 -20.5 58.5t-57.5 19.5q-40 0 -63 -30.5t-23 -77.5v-475h-139v462q0 74 28.5 128t79 82t115.5 28q97 0 153.5 -49t56.5 -139q0 -50 -26 -88.5t-65 -55.5q52 -14 86 -56.5t34 -108.5
q0 -62 -33 -111t-90.5 -76.5t-127.5 -27.5v126q48 0 76 27z" />
    <glyph glyph-name="agrave" unicode="&#xe0;" horiz-adv-x="558" 
d="M337 35q-19 -19 -49 -33t-67 -14q-59 0 -104.5 28.5t-70.5 78.5t-25 110t25 109.5t70.5 78.5t104.5 29q53 0 90.5 -23.5t49.5 -48.5v60h149v-410h-148v67q-6 -13 -25 -32zM196.5 134q28.5 -28 68.5 -28q42 0 69 28t27 71t-27 71.5t-69 28.5q-40 0 -68.5 -28.5
t-28.5 -71.5t28.5 -71zM160 671l162 -140l-44 -60l-189 110z" />
    <glyph glyph-name="aacute" unicode="&#xe1;" horiz-adv-x="558" 
d="M337 35q-19 -19 -49 -33t-67 -14q-59 0 -104.5 28.5t-70.5 78.5t-25 110t25 109.5t70.5 78.5t104.5 29q53 0 90.5 -23.5t49.5 -48.5v60h149v-410h-148v67q-6 -13 -25 -32zM196.5 134q28.5 -28 68.5 -28q42 0 69 28t27 71t-27 71.5t-69 28.5q-40 0 -68.5 -28.5
t-28.5 -71.5t28.5 -71zM385 671l71 -90l-189 -110l-44 60z" />
    <glyph glyph-name="acircumflex" unicode="&#xe2;" horiz-adv-x="558" 
d="M337 35q-19 -19 -49 -33t-67 -14q-59 0 -104.5 28.5t-70.5 78.5t-25 110t25 109.5t70.5 78.5t104.5 29q53 0 90.5 -23.5t49.5 -48.5v60h149v-410h-148v67q-6 -13 -25 -32zM196.5 134q28.5 -28 68.5 -28q42 0 69 28t27 71t-27 71.5t-69 28.5q-40 0 -68.5 -28.5
t-28.5 -71.5t28.5 -71zM270 671l175 -128l-54 -72l-121 89l-122 -88l-54 71z" />
    <glyph glyph-name="atilde" unicode="&#xe3;" horiz-adv-x="558" 
d="M337 35q-19 -19 -49 -33t-67 -14q-59 0 -104.5 28.5t-70.5 78.5t-25 110t25 109.5t70.5 78.5t104.5 29q53 0 90.5 -23.5t49.5 -48.5v60h149v-410h-148v67q-6 -13 -25 -32zM196.5 134q28.5 -28 68.5 -28q42 0 69 28t27 71t-27 71.5t-69 28.5q-40 0 -68.5 -28.5
t-28.5 -71.5t28.5 -71zM163.5 519q-9.5 -11 -14.5 -26h-80q11 57 38 96.5t70 39.5q23 0 42 -5.5t43 -15.5q15 -6 30 -11t28 -5t22.5 11t14.5 26h80q-11 -57 -38.5 -96.5t-70.5 -39.5q-22 0 -40 5.5t-43 15.5q-4 1 -16.5 6t-23 7.5t-20.5 2.5q-12 0 -21.5 -11z" />
    <glyph glyph-name="adieresis" unicode="&#xe4;" horiz-adv-x="558" 
d="M337 35q-19 -19 -49 -33t-67 -14q-59 0 -104.5 28.5t-70.5 78.5t-25 110t25 109.5t70.5 78.5t104.5 29q53 0 90.5 -23.5t49.5 -48.5v60h149v-410h-148v67q-6 -13 -25 -32zM196.5 134q28.5 -28 68.5 -28q42 0 69 28t27 71t-27 71.5t-69 28.5q-40 0 -68.5 -28.5
t-28.5 -71.5t28.5 -71zM215 610.5q21 -21.5 21 -51.5t-21 -51.5t-51 -21.5q-31 0 -52 21.5t-21 51.5t21 51.5t52 21.5q30 0 51 -21.5zM416 610.5q21 -21.5 21 -51.5t-21 -51.5t-51 -21.5q-31 0 -52 21.5t-21 51.5t21 51.5t52 21.5q30 0 51 -21.5z" />
    <glyph glyph-name="aring" unicode="&#xe5;" horiz-adv-x="558" 
d="M337 35q-19 -19 -49 -33t-67 -14q-59 0 -104.5 28.5t-70.5 78.5t-25 110t25 109.5t70.5 78.5t104.5 29q53 0 90.5 -23.5t49.5 -48.5v60h149v-410h-148v67q-6 -13 -25 -32zM196.5 134q28.5 -28 68.5 -28q42 0 69 28t27 71t-27 71.5t-69 28.5q-40 0 -68.5 -28.5
t-28.5 -71.5t28.5 -71zM176 667q37 32 91 32t90.5 -32t36.5 -81t-35.5 -81t-91.5 -32q-57 0 -92.5 31.5t-35.5 81.5q0 49 37 81zM237.5 555.5q11.5 -12.5 29.5 -12.5q17 0 29 13t12 30t-12 29.5t-29 12.5t-29 -12.5t-12 -29.5q0 -18 11.5 -30.5z" />
    <glyph glyph-name="ae" unicode="&#xe6;" horiz-adv-x="790" 
d="M78.5 25.5q-43.5 37.5 -43.5 102.5q0 36 22 65.5t60 46.5t86 17q43 0 69.5 -9.5t38.5 -20.5v12q0 36 -27 57.5t-78 21.5q-36 0 -66.5 -9t-50.5 -22l-62 95q29 17 78.5 28.5t111.5 11.5q57 0 101 -21.5t61 -53.5q24 30 66.5 52.5t91.5 22.5q98 0 156 -54.5t58 -162.5
l-1 -19h-298q0 -44 30.5 -66.5t63.5 -22.5q32 0 63 14.5t49 33.5l80 -84q-79 -73 -201 -73q-52 0 -97.5 22.5t-70.5 57.5q-3 -9 -23.5 -28t-59.5 -35.5t-95 -16.5q-69 0 -112.5 37.5zM542 334q-35 0 -59 -21t-27 -52h163q-16 73 -77 73zM264.5 91q17.5 17 17.5 39
q0 23 -17.5 38t-42.5 15q-24 0 -43 -15.5t-19 -38.5q0 -24 17.5 -39.5t43.5 -15.5t43.5 17z" />
    <glyph glyph-name="ccedilla" unicode="&#xe7;" horiz-adv-x="408" 
d="M227 -10l-13 -33q44 4 77 -16.5t33 -58.5q0 -45 -33.5 -71.5t-82.5 -26.5q-42 0 -74.5 12t-50.5 30l49 55q13 -13 30 -21.5t34 -8.5q18 0 29 8.5t11 22.5q0 16 -13 25t-33 9q-28 0 -41 -7l-7 6l31 86q-68 22 -107.5 75.5t-39.5 129.5q0 65 29.5 114t83 75.5t123.5 26.5
q48 0 87.5 -14t56.5 -28l-70 -102q-15 11 -30.5 19t-41.5 8q-38 0 -66 -28.5t-28 -70.5q0 -43 28 -71.5t66 -28.5q25 0 44.5 8.5t27.5 17.5l69 -102q-17 -14 -55 -28t-88 -14q-13 0 -35 2z" />
    <glyph glyph-name="egrave" unicode="&#xe8;" horiz-adv-x="501" 
d="M192 122.5q26 -25.5 69 -25.5q39 0 73 14t56 32l65 -95q-56 -60 -200 -60q-68 0 -121 26t-83.5 76t-30.5 120q0 60 27.5 108t78 76t117.5 28q100 0 159.5 -56t59.5 -161q0 -16 -1 -21h-298q3 -36 29 -61.5zM297.5 300.5q-19.5 22.5 -52.5 22.5t-54.5 -22t-23.5 -56h152
q-2 33 -21.5 55.5zM124 671l162 -140l-44 -60l-189 110z" />
    <glyph glyph-name="eacute" unicode="&#xe9;" horiz-adv-x="501" 
d="M192 122.5q26 -25.5 69 -25.5q39 0 73 14t56 32l65 -95q-56 -60 -200 -60q-68 0 -121 26t-83.5 76t-30.5 120q0 60 27.5 108t78 76t117.5 28q100 0 159.5 -56t59.5 -161q0 -16 -1 -21h-298q3 -36 29 -61.5zM297.5 300.5q-19.5 22.5 -52.5 22.5t-54.5 -22t-23.5 -56h152
q-2 33 -21.5 55.5zM352 671l71 -90l-189 -110l-44 60z" />
    <glyph glyph-name="ecircumflex" unicode="&#xea;" horiz-adv-x="501" 
d="M192 122.5q26 -25.5 69 -25.5q39 0 73 14t56 32l65 -95q-56 -60 -200 -60q-68 0 -121 26t-83.5 76t-30.5 120q0 60 27.5 108t78 76t117.5 28q100 0 159.5 -56t59.5 -161q0 -16 -1 -21h-298q3 -36 29 -61.5zM297.5 300.5q-19.5 22.5 -52.5 22.5t-54.5 -22t-23.5 -56h152
q-2 33 -21.5 55.5zM234 671l175 -128l-54 -72l-121 89l-122 -88l-54 71z" />
    <glyph glyph-name="edieresis" unicode="&#xeb;" horiz-adv-x="501" 
d="M192 122.5q26 -25.5 69 -25.5q39 0 73 14t56 32l65 -95q-56 -60 -200 -60q-68 0 -121 26t-83.5 76t-30.5 120q0 60 27.5 108t78 76t117.5 28q100 0 159.5 -56t59.5 -161q0 -16 -1 -21h-298q3 -36 29 -61.5zM297.5 300.5q-19.5 22.5 -52.5 22.5t-54.5 -22t-23.5 -56h152
q-2 33 -21.5 55.5zM183 610.5q21 -21.5 21 -51.5t-21 -51.5t-51 -21.5q-31 0 -52 21.5t-21 51.5t21 51.5t52 21.5q30 0 51 -21.5zM384 610.5q21 -21.5 21 -51.5t-21 -51.5t-51 -21.5q-31 0 -52 21.5t-21 51.5t21 51.5t52 21.5q30 0 51 -21.5z" />
    <glyph glyph-name="igrave" unicode="&#xec;" horiz-adv-x="216" 
d="M171 410v-410h-139v410h139zM2 671l162 -140l-44 -60l-189 110z" />
    <glyph glyph-name="iacute" unicode="&#xed;" horiz-adv-x="216" 
d="M171 410v-410h-139v410h139zM191 671l71 -90l-189 -110l-44 60z" />
    <glyph glyph-name="icircumflex" unicode="&#xee;" horiz-adv-x="216" 
d="M171 410v-410h-139v410h139zM100 671l175 -128l-54 -72l-121 89l-122 -88l-54 71z" />
    <glyph glyph-name="idieresis" unicode="&#xef;" horiz-adv-x="216" 
d="M171 410v-410h-139v410h139zM49 610.5q21 -21.5 21 -51.5t-21 -51.5t-51 -21.5q-31 0 -52 21.5t-21 51.5t21 51.5t52 21.5q30 0 51 -21.5zM250 610.5q21 -21.5 21 -51.5t-21 -51.5t-51 -21.5q-31 0 -52 21.5t-21 51.5t21 51.5t52 21.5q30 0 51 -21.5z" />
    <glyph glyph-name="eth" unicode="&#xf0;" horiz-adv-x="558" 
d="M64 318q32 50 80.5 77.5t93.5 26.5q54 1 78 -7.5t37 -22.5q-10 30 -37.5 66t-58.5 54l-75 -75l-61 61l50 50q-47 23 -89 33l33 118q73 -18 149 -58l59 58l60 -61l-43 -42q182 -127 182 -391q0 -63 -31.5 -112.5t-86.5 -77t-125 -27.5q-73 0 -129 27.5t-87 77t-31 112.5
t32 113zM206.5 134.5q27.5 -27.5 70.5 -27.5q44 0 71 27.5t27 70.5v4q-1 42 -29.5 68.5t-68.5 26.5q-41 0 -69.5 -28t-28.5 -71t27.5 -70.5z" />
    <glyph glyph-name="ntilde" unicode="&#xf1;" horiz-adv-x="548" 
d="M409.5 404q40.5 -18 66 -56.5t25.5 -96.5v-251h-150v226q0 43 -21 66.5t-56 23.5t-61.5 -27.5t-26.5 -67.5v-221h-150v410h150v-60q6 16 26 33t49.5 28t61.5 11q46 0 86.5 -18zM173.5 519q-9.5 -11 -14.5 -26h-80q11 57 38 96.5t70 39.5q23 0 42 -5.5t43 -15.5
q15 -6 30 -11t28 -5t22.5 11t14.5 26h80q-11 -57 -38.5 -96.5t-70.5 -39.5q-22 0 -40 5.5t-43 15.5q-4 1 -16.5 6t-23 7.5t-20.5 2.5q-12 0 -21.5 -11z" />
    <glyph glyph-name="ograve" unicode="&#xf2;" horiz-adv-x="506" 
d="M131.5 15.5q-52.5 27.5 -82 77t-29.5 111.5t29.5 112t82 78t119.5 28q66 0 118 -28t81 -78t29 -112t-29 -111.5t-81 -77t-118 -27.5q-67 0 -119.5 27.5zM313.5 137q23.5 26 23.5 68q0 41 -23.5 67.5t-62.5 26.5q-40 0 -64 -26.5t-24 -67.5q0 -42 24 -68t64 -26
q39 0 62.5 26zM140 671l162 -140l-44 -60l-189 110z" />
    <glyph glyph-name="oacute" unicode="&#xf3;" horiz-adv-x="506" 
d="M131.5 15.5q-52.5 27.5 -82 77t-29.5 111.5t29.5 112t82 78t119.5 28q66 0 118 -28t81 -78t29 -112t-29 -111.5t-81 -77t-118 -27.5q-67 0 -119.5 27.5zM313.5 137q23.5 26 23.5 68q0 41 -23.5 67.5t-62.5 26.5q-40 0 -64 -26.5t-24 -67.5q0 -42 24 -68t64 -26
q39 0 62.5 26zM294 671l71 -90l-189 -110l-44 60z" />
    <glyph glyph-name="ocircumflex" unicode="&#xf4;" horiz-adv-x="506" 
d="M131.5 15.5q-52.5 27.5 -82 77t-29.5 111.5t29.5 112t82 78t119.5 28q66 0 118 -28t81 -78t29 -112t-29 -111.5t-81 -77t-118 -27.5q-67 0 -119.5 27.5zM313.5 137q23.5 26 23.5 68q0 41 -23.5 67.5t-62.5 26.5q-40 0 -64 -26.5t-24 -67.5q0 -42 24 -68t64 -26
q39 0 62.5 26zM242 671l175 -128l-54 -72l-121 89l-122 -88l-54 71z" />
    <glyph glyph-name="otilde" unicode="&#xf5;" horiz-adv-x="506" 
d="M131.5 15.5q-52.5 27.5 -82 77t-29.5 111.5t29.5 112t82 78t119.5 28q66 0 118 -28t81 -78t29 -112t-29 -111.5t-81 -77t-118 -27.5q-67 0 -119.5 27.5zM313.5 137q23.5 26 23.5 68q0 41 -23.5 67.5t-62.5 26.5q-40 0 -64 -26.5t-24 -67.5q0 -42 24 -68t64 -26
q39 0 62.5 26zM155.5 519q-9.5 -11 -14.5 -26h-80q11 57 38 96.5t70 39.5q23 0 42 -5.5t43 -15.5q15 -6 30 -11t28 -5t22.5 11t14.5 26h80q-11 -57 -38.5 -96.5t-70.5 -39.5q-22 0 -40 5.5t-43 15.5q-4 1 -16.5 6t-23 7.5t-20.5 2.5q-12 0 -21.5 -11z" />
    <glyph glyph-name="odieresis" unicode="&#xf6;" horiz-adv-x="506" 
d="M131.5 15.5q-52.5 27.5 -82 77t-29.5 111.5t29.5 112t82 78t119.5 28q66 0 118 -28t81 -78t29 -112t-29 -111.5t-81 -77t-118 -27.5q-67 0 -119.5 27.5zM313.5 137q23.5 26 23.5 68q0 41 -23.5 67.5t-62.5 26.5q-40 0 -64 -26.5t-24 -67.5q0 -42 24 -68t64 -26
q39 0 62.5 26zM189 610.5q21 -21.5 21 -51.5t-21 -51.5t-51 -21.5q-31 0 -52 21.5t-21 51.5t21 51.5t52 21.5q30 0 51 -21.5zM390 610.5q21 -21.5 21 -51.5t-21 -51.5t-51 -21.5q-31 0 -52 21.5t-21 51.5t21 51.5t52 21.5q30 0 51 -21.5z" />
    <glyph glyph-name="divide" unicode="&#xf7;" horiz-adv-x="520" 
d="M297.5 555.5q18.5 -18.5 18.5 -45.5q0 -26 -18.5 -45t-46.5 -19q-26 0 -44.5 19t-18.5 45q0 27 18.5 45.5t44.5 18.5q28 0 46.5 -18.5zM458 392v-122h-410v122h410zM297.5 198q18.5 -19 18.5 -46q0 -26 -19 -44.5t-46 -18.5q-26 0 -44.5 18.5t-18.5 44.5q0 27 18.5 46
t44.5 19q28 0 46.5 -19z" />
    <glyph glyph-name="oslash" unicode="&#xf8;" horiz-adv-x="506" 
d="M465 283.5q14 -37.5 14 -79.5q0 -62 -29 -111.5t-81 -77t-118 -27.5q-81 0 -141 41l-50 -51l-40 35l50 51q-50 58 -50 140q0 62 29.5 112t82 78t119.5 28q75 0 134 -38l50 51l40 -35l-50 -50q26 -29 40 -66.5zM170 165l122 124q-17 10 -41 10q-40 0 -64 -26.5t-24 -67.5
q0 -23 7 -40zM313.5 137q23.5 26 23.5 68q0 26 -9 45l-125 -126q21 -13 48 -13q39 0 62.5 26z" />
    <glyph glyph-name="ugrave" unicode="&#xf9;" horiz-adv-x="547" 
d="M266 111q82 0 82 109v190h148v-206q0 -100 -60.5 -158t-169.5 -58q-108 0 -168.5 58t-60.5 158v206h147v-190q0 -109 82 -109zM172 671l162 -140l-44 -60l-189 110z" />
    <glyph glyph-name="uacute" unicode="&#xfa;" horiz-adv-x="547" 
d="M266 111q82 0 82 109v190h148v-206q0 -100 -60.5 -158t-169.5 -58q-108 0 -168.5 58t-60.5 158v206h147v-190q0 -109 82 -109zM306 671l71 -90l-189 -110l-44 60z" />
    <glyph glyph-name="ucircumflex" unicode="&#xfb;" horiz-adv-x="547" 
d="M266 111q82 0 82 109v190h148v-206q0 -100 -60.5 -158t-169.5 -58q-108 0 -168.5 58t-60.5 158v206h147v-190q0 -109 82 -109zM258 671l175 -128l-54 -72l-121 89l-122 -88l-54 71z" />
    <glyph glyph-name="udieresis" unicode="&#xfc;" horiz-adv-x="547" 
d="M266 111q82 0 82 109v190h148v-206q0 -100 -60.5 -158t-169.5 -58q-108 0 -168.5 58t-60.5 158v206h147v-190q0 -109 82 -109zM204 610.5q21 -21.5 21 -51.5t-21 -51.5t-51 -21.5q-31 0 -52 21.5t-21 51.5t21 51.5t52 21.5q30 0 51 -21.5zM405 610.5q21 -21.5 21 -51.5
t-21 -51.5t-51 -21.5q-31 0 -52 21.5t-21 51.5t21 51.5t52 21.5q30 0 51 -21.5z" />
    <glyph glyph-name="yacute" unicode="&#xfd;" horiz-adv-x="513" 
d="M507 410l-282 -618h-150l95 208l-171 410h149l100 -280l112 280h147zM295 671l71 -90l-189 -110l-44 60z" />
    <glyph glyph-name="thorn" unicode="&#xfe;" horiz-adv-x="557" 
d="M429.5 393q46.5 -29 73 -78.5t26.5 -109.5t-26.5 -109.5t-73 -78.5t-104.5 -29q-47 0 -83.5 23.5t-53.5 55.5v-275h-148v896h150v-338q12 27 47 49.5t88 22.5q58 0 104.5 -29zM353.5 134q28.5 28 28.5 71t-28.5 71.5t-68.5 28.5q-42 0 -68.5 -28.5t-26.5 -71.5t26.5 -71
t68.5 -28q40 0 68.5 28z" />
    <glyph glyph-name="ydieresis" unicode="&#xff;" horiz-adv-x="513" 
d="M507 410l-282 -618h-150l95 208l-171 410h149l100 -280l112 280h147zM192 610.5q21 -21.5 21 -51.5t-21 -51.5t-51 -21.5q-31 0 -52 21.5t-21 51.5t21 51.5t52 21.5q30 0 51 -21.5zM393 610.5q21 -21.5 21 -51.5t-21 -51.5t-51 -21.5q-31 0 -52 21.5t-21 51.5t21 51.5
t52 21.5q30 0 51 -21.5z" />
    <glyph glyph-name="Amacron" unicode="&#x100;" horiz-adv-x="676" 
d="M660 0h-157l-49 133h-254l-49 -133h-158l260 660h147zM328 474h-2l-78 -211h157zM465 852v-94h-325v94h325z" />
    <glyph glyph-name="amacron" unicode="&#x101;" horiz-adv-x="558" 
d="M337 35q-19 -19 -49 -33t-67 -14q-59 0 -104.5 28.5t-70.5 78.5t-25 110t25 109.5t70.5 78.5t104.5 29q53 0 90.5 -23.5t49.5 -48.5v60h149v-410h-148v67q-6 -13 -25 -32zM196.5 134q28.5 -28 68.5 -28q42 0 69 28t27 71t-27 71.5t-69 28.5q-40 0 -68.5 -28.5
t-28.5 -71.5t28.5 -71zM431 602v-94h-325v94h325z" />
    <glyph glyph-name="Abreve" unicode="&#x102;" horiz-adv-x="676" 
d="M660 0h-157l-49 133h-254l-49 -133h-158l260 660h147zM328 474h-2l-78 -211h157zM429.5 793q-49.5 -40 -126.5 -40q-76 0 -125.5 39.5t-57.5 103.5l99 25q5 -34 26 -58t58 -24q36 0 57 24t27 58l99 -25q-7 -63 -56.5 -103z" />
    <glyph glyph-name="abreve" unicode="&#x103;" horiz-adv-x="558" 
d="M337 35q-19 -19 -49 -33t-67 -14q-59 0 -104.5 28.5t-70.5 78.5t-25 110t25 109.5t70.5 78.5t104.5 29q53 0 90.5 -23.5t49.5 -48.5v60h149v-410h-148v67q-6 -13 -25 -32zM196.5 134q28.5 -28 68.5 -28q42 0 69 28t27 71t-27 71.5t-69 28.5q-40 0 -68.5 -28.5
t-28.5 -71.5t28.5 -71zM395.5 543q-49.5 -40 -126.5 -40q-76 0 -125.5 39.5t-57.5 103.5l99 25q5 -34 26 -58t58 -24q36 0 57 24t27 58l99 -25q-7 -63 -56.5 -103z" />
    <glyph glyph-name="Aogonek" unicode="&#x104;" horiz-adv-x="676" 
d="M564 -137q11 7 19 17l57 -42q-17 -24 -45.5 -41t-64.5 -17q-38 0 -69.5 23t-31.5 71q0 53 71 133l-46 126h-254l-49 -133h-158l260 660h147l260 -660h-101q-20 -25 -34 -55.5t-14 -57.5q0 -14 9.5 -22.5t20.5 -8.5q12 0 23 7zM405 263l-77 211h-2l-78 -211h157z" />
    <glyph glyph-name="aogonek" unicode="&#x105;" horiz-adv-x="558" 
d="M542 -162q-17 -24 -45.5 -41t-64.5 -17q-38 0 -69.5 23t-31.5 71q0 51 65 126h-34v67q-6 -13 -25 -32t-49 -33t-67 -14q-59 0 -104.5 28.5t-70.5 78.5t-25 110t25 109.5t70.5 78.5t104.5 29q53 0 90.5 -23.5t49.5 -48.5v60h149v-410h-49q-20 -25 -34 -55.5t-14 -57.5
q0 -14 9.5 -22.5t20.5 -8.5q12 0 23 7t19 17zM334 134q27 28 27 71t-27 71.5t-69 28.5q-40 0 -68.5 -28.5t-28.5 -71.5t28.5 -71t68.5 -28q42 0 69 28z" />
    <glyph glyph-name="Cacute" unicode="&#x106;" horiz-adv-x="477" 
d="M277 921l71 -90l-189 -110l-44 60zM384 536q-58 0 -103.5 -25.5t-71 -72.5t-25.5 -108t25 -107.5t70.5 -72.5t104.5 -26q96 0 147 37v-148q-21 -11 -62.5 -18t-84.5 -7q-111 0 -191 44.5t-121.5 122.5t-41.5 175q0 96 44 174t124.5 123t185.5 45q99 0 147 -26v-149
q-47 39 -147 39z" />
    <glyph glyph-name="cacute" unicode="&#x107;" horiz-adv-x="408" 
d="M308.5 114.5q19.5 8.5 27.5 17.5l69 -102q-17 -14 -55 -28t-88 -14q-70 0 -123.5 27t-83 76t-29.5 115q0 65 29.5 114t83 75.5t123.5 26.5q48 0 87.5 -14t56.5 -28l-70 -102q-15 11 -30.5 19t-41.5 8q-38 0 -66 -28.5t-28 -70.5q0 -43 28 -71.5t66 -28.5q25 0 44.5 8.5z
M314 671l71 -90l-189 -110l-44 60z" />
    <glyph glyph-name="Cdotaccent" unicode="&#x10a;" horiz-adv-x="583" 
d="M376 536q-58 0 -103.5 -25.5t-71 -72.5t-25.5 -108t25 -107.5t70.5 -72.5t104.5 -26q96 0 147 37v-148q-21 -11 -62.5 -18t-84.5 -7q-111 0 -191 44.5t-121.5 122.5t-41.5 175q0 96 44 174t124.5 123t185.5 45q99 0 147 -26v-149q-47 39 -147 39zM414 841.5
q21 -21.5 21 -51.5t-21 -51.5t-51 -21.5q-31 0 -52 21.5t-21 51.5t21 51.5t52 21.5q30 0 51 -21.5z" />
    <glyph glyph-name="cdotaccent" unicode="&#x10b;" horiz-adv-x="408" 
d="M308.5 114.5q19.5 8.5 27.5 17.5l69 -102q-17 -14 -55 -28t-88 -14q-70 0 -123.5 27t-83 76t-29.5 115q0 65 29.5 114t83 75.5t123.5 26.5q48 0 87.5 -14t56.5 -28l-70 -102q-15 11 -30.5 19t-41.5 8q-38 0 -66 -28.5t-28 -70.5q0 -43 28 -71.5t66 -28.5q25 0 44.5 8.5z
M277 610.5q21 -21.5 21 -51.5t-21 -51.5t-51 -21.5q-31 0 -52 21.5t-21 51.5t21 51.5t52 21.5q30 0 51 -21.5z" />
    <glyph glyph-name="Ccaron" unicode="&#x10c;" horiz-adv-x="583" 
d="M376 536q-58 0 -103.5 -25.5t-71 -72.5t-25.5 -108t25 -107.5t70.5 -72.5t104.5 -26q96 0 147 37v-148q-21 -11 -62.5 -18t-84.5 -7q-111 0 -191 44.5t-121.5 122.5t-41.5 175q0 96 44 174t124.5 123t185.5 45q99 0 147 -26v-149q-47 39 -147 39zM337 831l121 89l54 -71
l-175 -129l-176 129l54 72z" />
    <glyph glyph-name="ccaron" unicode="&#x10d;" horiz-adv-x="408" 
d="M308.5 114.5q19.5 8.5 27.5 17.5l69 -102q-17 -14 -55 -28t-88 -14q-70 0 -123.5 27t-83 76t-29.5 115q0 65 29.5 114t83 75.5t123.5 26.5q48 0 87.5 -14t56.5 -28l-70 -102q-15 11 -30.5 19t-41.5 8q-38 0 -66 -28.5t-28 -70.5q0 -43 28 -71.5t66 -28.5q25 0 44.5 8.5z
M221 581l121 89l54 -71l-175 -129l-176 129l54 72z" />
    <glyph glyph-name="Dcaron" unicode="&#x10e;" horiz-adv-x="599" 
d="M413 618q70 -42 105 -116t35 -172t-35 -172t-105 -116t-173 -42h-197v660h197q103 0 173 -42zM227 131q83 0 126.5 55t43.5 144t-43.5 144t-126.5 55h-37v-398h37zM283 831l121 89l54 -71l-175 -129l-176 129l54 72z" />
    <glyph glyph-name="dcaron" unicode="&#x10f;" horiz-adv-x="616" 
d="M363 67q-17 -32 -53.5 -55.5t-83.5 -23.5q-58 0 -104.5 29t-73 78.5t-26.5 109.5t26.5 109.5t73 78.5t104.5 29q53 0 88 -22.5t47 -49.5v338h150v-688h-148v67zM669.5 667.5q17.5 -18.5 17.5 -51.5q0 -43 -26.5 -84t-63.5 -61l-27 30q22 13 41 31t25 38q-7 -4 -19 -4
q-21 0 -36.5 16.5t-15.5 41.5q0 26 17.5 44t42.5 18q27 0 44.5 -18.5zM197.5 134q28.5 -28 68.5 -28q42 0 68.5 28t26.5 71t-26.5 71.5t-68.5 28.5q-40 0 -68.5 -28.5t-28.5 -71.5t28.5 -71z" />
    <glyph glyph-name="Dcroat" unicode="&#x110;" horiz-adv-x="650" 
d="M13 271v119h67v270h189q90 0 166 -42.5t121 -118t45 -169.5t-44.5 -169.5t-121 -118t-166.5 -42.5h-189v271h-67zM350.5 158q43.5 26 67.5 70.5t24 99.5q0 58 -24 103.5t-67.5 71t-99.5 25.5h-24v-138h88v-119h-88v-139h24q56 0 99.5 26z" />
    <glyph glyph-name="dcroat" unicode="&#x111;" horiz-adv-x="557" 
d="M559 503h-48v-503h-148v67q-17 -32 -53.5 -55.5t-83.5 -23.5q-58 0 -104.5 29t-73 78.5t-26.5 109.5t26.5 109.5t73 78.5t104.5 29q53 0 88 -22.5t47 -49.5v153h-89v89h89v96h150v-96h48v-89zM334.5 134q26.5 28 26.5 71t-26.5 71.5t-68.5 28.5q-40 0 -68.5 -28.5
t-28.5 -71.5t28.5 -71t68.5 -28q42 0 68.5 28z" />
    <glyph glyph-name="Emacron" unicode="&#x112;" horiz-adv-x="511" 
d="M435 531h-245v-138h242v-125h-242v-139h245v-129h-392v660h392v-129zM397 852v-94h-325v94h325z" />
    <glyph glyph-name="emacron" unicode="&#x113;" horiz-adv-x="501" 
d="M192 122.5q26 -25.5 69 -25.5q39 0 73 14t56 32l65 -95q-56 -60 -200 -60q-68 0 -121 26t-83.5 76t-30.5 120q0 60 27.5 108t78 76t117.5 28q100 0 159.5 -56t59.5 -161q0 -16 -1 -21h-298q3 -36 29 -61.5zM297.5 300.5q-19.5 22.5 -52.5 22.5t-54.5 -22t-23.5 -56h152
q-2 33 -21.5 55.5zM398 602v-94h-325v94h325z" />
    <glyph glyph-name="Edotaccent" unicode="&#x116;" horiz-adv-x="511" 
d="M435 531h-245v-138h242v-125h-242v-139h245v-129h-392v660h392v-129zM285 860.5q21 -21.5 21 -51.5t-21 -51.5t-51 -21.5q-31 0 -52 21.5t-21 51.5t21 51.5t52 21.5q30 0 51 -21.5z" />
    <glyph glyph-name="edotaccent" unicode="&#x117;" horiz-adv-x="501" 
d="M192 122.5q26 -25.5 69 -25.5q39 0 73 14t56 32l65 -95q-56 -60 -200 -60q-68 0 -121 26t-83.5 76t-30.5 120q0 60 27.5 108t78 76t117.5 28q100 0 159.5 -56t59.5 -161q0 -16 -1 -21h-298q3 -36 29 -61.5zM297.5 300.5q-19.5 22.5 -52.5 22.5t-54.5 -22t-23.5 -56h152
q-2 33 -21.5 55.5zM285 610.5q21 -21.5 21 -51.5t-21 -51.5t-51 -21.5q-31 0 -52 21.5t-21 51.5t21 51.5t52 21.5q30 0 51 -21.5z" />
    <glyph glyph-name="Eogonek" unicode="&#x118;" horiz-adv-x="511" 
d="M466 -162q-17 -24 -45.5 -41t-64.5 -17q-38 0 -69.5 23t-31.5 71q0 51 65 126h-277v660h392v-129h-245v-138h242v-125h-242v-139h245v-129h-50q-20 -25 -34 -55.5t-14 -57.5q0 -14 9.5 -22.5t20.5 -8.5q12 0 23 7t19 17z" />
    <glyph glyph-name="eogonek" unicode="&#x119;" horiz-adv-x="501" 
d="M461 184h-298q3 -36 29 -61.5t69 -25.5q39 0 73 14t56 32l65 -95q-44 -48 -142 -57q-15 -21 -28 -48.5t-13 -55.5q0 -14 9.5 -22.5t20.5 -8.5q12 0 23 7t19 17l57 -42q-17 -24 -45.5 -41t-64.5 -17q-38 0 -69.5 23t-31.5 71q0 45 55 114q-100 3 -162.5 61.5t-62.5 160.5
q0 60 27.5 108t78 76t117.5 28q100 0 159.5 -56t59.5 -161q0 -16 -1 -21zM319 245q-2 33 -21.5 55.5t-52.5 22.5t-54.5 -22t-23.5 -56h152z" />
    <glyph glyph-name="Ecaron" unicode="&#x11a;" horiz-adv-x="511" 
d="M435 531h-245v-138h242v-125h-242v-139h245v-129h-392v660h392v-129zM235 831l121 89l54 -71l-175 -129l-176 129l54 72z" />
    <glyph glyph-name="ecaron" unicode="&#x11b;" horiz-adv-x="501" 
d="M192 122.5q26 -25.5 69 -25.5q39 0 73 14t56 32l65 -95q-56 -60 -200 -60q-68 0 -121 26t-83.5 76t-30.5 120q0 60 27.5 108t78 76t117.5 28q100 0 159.5 -56t59.5 -161q0 -16 -1 -21h-298q3 -36 29 -61.5zM297.5 300.5q-19.5 22.5 -52.5 22.5t-54.5 -22t-23.5 -56h152
q-2 33 -21.5 55.5zM234 581l121 89l54 -71l-175 -129l-176 129l54 72z" />
    <glyph glyph-name="Gbreve" unicode="&#x11e;" horiz-adv-x="691" 
d="M697 327q0 -94 -43.5 -171.5t-120.5 -122.5t-174 -45q-99 0 -176 45.5t-119.5 123.5t-42.5 173q0 94 44.5 172.5t122 124t171.5 45.5q80 0 148 -33t115 -91l-117 -89q-25 35 -62.5 55t-83.5 20q-54 0 -96 -27.5t-65.5 -74t-23.5 -102.5q0 -55 23.5 -102t65.5 -74.5
t96 -27.5q60 0 104.5 36.5t60.5 93.5h-174v112h347v-41zM462.5 793q-49.5 -40 -126.5 -40q-76 0 -125.5 39.5t-57.5 103.5l99 25q5 -34 26 -58t58 -24q36 0 57 24t27 58l99 -25q-7 -63 -56.5 -103z" />
    <glyph glyph-name="gbreve" unicode="&#x11f;" horiz-adv-x="558" 
d="M510 410v-421q0 -67 -33 -114t-90 -71t-128 -24q-72 0 -131.5 19.5t-93.5 63.5l88 91q21 -25 51.5 -40.5t78.5 -15.5q51 0 80.5 26t29.5 73v70q-6 -13 -25 -32t-49 -33t-67 -14q-59 0 -104.5 28.5t-70.5 78.5t-25 110t25 109.5t70.5 78.5t104.5 29q53 0 90.5 -23.5
t49.5 -48.5v60h149zM334 134q27 28 27 71t-27 71.5t-69 28.5q-40 0 -68.5 -28.5t-28.5 -71.5t28.5 -71t68.5 -28q42 0 69 28zM387.5 543q-49.5 -40 -126.5 -40q-76 0 -125.5 39.5t-57.5 103.5l99 25q5 -34 26 -58t58 -24q36 0 57 24t27 58l99 -25q-7 -63 -56.5 -103z" />
    <glyph glyph-name="Gdotaccent" unicode="&#x120;" horiz-adv-x="691" 
d="M697 327q0 -94 -43.5 -171.5t-120.5 -122.5t-174 -45q-99 0 -176 45.5t-119.5 123.5t-42.5 173q0 94 44.5 172.5t122 124t171.5 45.5q80 0 148 -33t115 -91l-117 -89q-25 35 -62.5 55t-83.5 20q-54 0 -96 -27.5t-65.5 -74t-23.5 -102.5q0 -55 23.5 -102t65.5 -74.5
t96 -27.5q60 0 104.5 36.5t60.5 93.5h-174v112h347v-41zM389 860.5q21 -21.5 21 -51.5t-21 -51.5t-51 -21.5q-31 0 -52 21.5t-21 51.5t21 51.5t52 21.5q30 0 51 -21.5z" />
    <glyph glyph-name="gdotaccent" unicode="&#x121;" horiz-adv-x="558" 
d="M510 410v-421q0 -67 -33 -114t-90 -71t-128 -24q-72 0 -131.5 19.5t-93.5 63.5l88 91q21 -25 51.5 -40.5t78.5 -15.5q51 0 80.5 26t29.5 73v70q-6 -13 -25 -32t-49 -33t-67 -14q-59 0 -104.5 28.5t-70.5 78.5t-25 110t25 109.5t70.5 78.5t104.5 29q53 0 90.5 -23.5
t49.5 -48.5v60h149zM334 134q27 28 27 71t-27 71.5t-69 28.5q-40 0 -68.5 -28.5t-28.5 -71.5t28.5 -71t68.5 -28q42 0 69 28zM302 610.5q21 -21.5 21 -51.5t-21 -51.5t-51 -21.5q-31 0 -52 21.5t-21 51.5t21 51.5t52 21.5q30 0 51 -21.5z" />
    <glyph glyph-name="uni0122" unicode="&#x122;" horiz-adv-x="741" 
d="M697 327q0 -94 -43.5 -171.5t-120.5 -122.5t-174 -45q-99 0 -176 45.5t-119.5 123.5t-42.5 173q0 94 44.5 172.5t122 124t171.5 45.5q80 0 148 -33t115 -91l-117 -89q-25 35 -62.5 55t-83.5 20q-54 0 -96 -27.5t-65.5 -74t-23.5 -102.5q0 -55 23.5 -102t65.5 -74.5
t96 -27.5q60 0 104.5 36.5t60.5 93.5h-174v112h347v-41zM425 -74q21 -22 21 -60q0 -52 -31 -100.5t-75 -71.5l-32 36q27 15 48.5 36t28.5 45q-5 -4 -22 -4q-25 0 -43 19t-18 49q0 31 21 52t50 21q31 0 52 -22z" />
    <glyph glyph-name="uni0123" unicode="&#x123;" horiz-adv-x="565" 
d="M510 410v-421q0 -67 -33 -114t-90 -71t-128 -24q-72 0 -131.5 19.5t-93.5 63.5l88 91q21 -25 51.5 -40.5t78.5 -15.5q51 0 80.5 26t29.5 73v70q-6 -13 -25 -32t-49 -33t-67 -14q-59 0 -104.5 28.5t-70.5 78.5t-25 110t25 109.5t70.5 78.5t104.5 29q53 0 90.5 -23.5
t49.5 -48.5v60h149zM334 134q27 28 27 71t-27 71.5t-69 28.5q-40 0 -68.5 -28.5t-28.5 -71.5t28.5 -71t68.5 -28q42 0 69 28zM221 513q-17 18 -17 49q0 42 25 81.5t61 58.5l26 -29q-22 -12 -39.5 -29.5t-23.5 -36.5q5 3 19 3q20 0 35 -15.5t15 -40.5t-17.5 -42t-41.5 -17
q-25 0 -42 18z" />
    <glyph glyph-name="Hbar" unicode="&#x126;" horiz-adv-x="624" 
d="M600 476h-48v-476h-146v267h-217v-267h-147v476h-49v97h49v87h147v-87h217v87h146v-87h48v-97zM406 476h-217v-81h217v81z" />
    <glyph glyph-name="hbar" unicode="&#x127;" horiz-adv-x="553" 
d="M413 404q40 -18 65.5 -56.5t25.5 -96.5v-251h-150v226q0 44 -19.5 67t-54.5 23q-36 0 -63 -27.5t-27 -67.5v-221h-151v503h-50v89h50v96h151v-96h86v-89h-86v-153q5 16 25 33t49.5 28t62.5 11q46 0 86 -18z" />
    <glyph glyph-name="Imacron" unicode="&#x12a;" horiz-adv-x="269" 
d="M195 0h-148v660h148v-660zM280 852v-94h-325v94h325z" />
    <glyph glyph-name="imacron" unicode="&#x12b;" horiz-adv-x="216" 
d="M171 410v-410h-139v410h139zM264 602v-94h-325v94h325z" />
    <glyph glyph-name="Iogonek" unicode="&#x12e;" horiz-adv-x="269" 
d="M228 -162q-17 -24 -45.5 -41t-64.5 -17q-38 0 -69.5 23t-31.5 71q0 51 65 126h-35v660h148v-660h-48q-20 -25 -34 -55.5t-14 -57.5q0 -14 9.5 -22.5t20.5 -8.5q12 0 23 7t19 17z" />
    <glyph glyph-name="iogonek" unicode="&#x12f;" horiz-adv-x="261" 
d="M64.5 521.5q-24.5 24.5 -24.5 59.5t25 60.5t59 25.5q35 0 60.5 -25.5t25.5 -60.5q0 -34 -25.5 -59t-60.5 -25t-59.5 24.5zM227 -162q-17 -24 -45.5 -41t-64.5 -17q-38 0 -69.5 23t-31.5 71q0 51 65 126h-33v410h149v-410h-51q-20 -25 -34 -55.5t-14 -57.5
q0 -14 9.5 -22.5t20.5 -8.5q12 0 23 7t19 17z" />
    <glyph glyph-name="Idotaccent" unicode="&#x130;" horiz-adv-x="269" 
d="M195 0h-148v660h148v-660zM167 860.5q21 -21.5 21 -51.5t-21 -51.5t-51 -21.5q-31 0 -52 21.5t-21 51.5t21 51.5t52 21.5q30 0 51 -21.5z" />
    <glyph glyph-name="dotlessi" unicode="&#x131;" horiz-adv-x="216" 
d="M171 410v-410h-139v410h139z" />
    <glyph glyph-name="uni0136" unicode="&#x136;" horiz-adv-x="576" 
d="M384 0l-205 289v-289h-147v660h147v-271l188 271h167l-226 -319l251 -341h-175zM337 -74q21 -22 21 -60q0 -52 -31 -100.5t-75 -71.5l-32 36q27 15 48.5 36t28.5 45q-5 -4 -22 -4q-25 0 -43 19t-18 49q0 31 21 52t50 21q31 0 52 -22z" />
    <glyph glyph-name="uni0137" unicode="&#x137;" horiz-adv-x="510" 
d="M297 215l214 -215h-173l-160 166v-166h-150v688h150v-421l144 143h169zM298 -74q21 -22 21 -60q0 -52 -31 -100.5t-75 -71.5l-32 36q27 15 48.5 36t28.5 45q-5 -4 -22 -4q-25 0 -43 19t-18 49q0 31 21 52t50 21q31 0 52 -22z" />
    <glyph glyph-name="Lacute" unicode="&#x139;" horiz-adv-x="478" 
d="M193 129h240v-129h-387v660h147v-531zM270 921l71 -90l-189 -110l-44 60z" />
    <glyph glyph-name="lacute" unicode="&#x13a;" horiz-adv-x="249" 
d="M42 688h150v-688h-150v688zM203 949l71 -90l-189 -110l-44 60z" />
    <glyph glyph-name="uni013B" unicode="&#x13b;" horiz-adv-x="489" 
d="M193 129h240v-129h-387v660h147v-531zM316 -204q21 -22 21 -60q0 -52 -31 -100.5t-75 -71.5l-32 36q27 15 48.5 36t28.5 45q-5 -4 -22 -4q-25 0 -43 19t-18 49q0 31 21 52t50 21q31 0 52 -22z" />
    <glyph glyph-name="uni013C" unicode="&#x13c;" horiz-adv-x="249" 
d="M42 688h150v-688h-150v688zM163 -216q21 -22 21 -60q0 -52 -31 -100.5t-75 -71.5l-32 36q27 15 48.5 36t28.5 45q-5 -4 -22 -4q-25 0 -43 19t-18 49q0 31 21 52t50 21q31 0 52 -22z" />
    <glyph glyph-name="Lcaron" unicode="&#x13d;" horiz-adv-x="489" 
d="M433 129v-129h-387v660h147v-531h240zM485.5 623.5q16.5 -17.5 16.5 -48.5q0 -41 -25 -80t-61 -58l-25 29q22 12 39.5 29t22.5 36q-4 -3 -18 -3q-20 0 -34.5 15t-14.5 40t17 41.5t40 16.5q26 0 42.5 -17.5z" />
    <glyph glyph-name="lcaron" unicode="&#x13e;" horiz-adv-x="249" 
d="M192 688v-688h-150v688h150zM348 644q17 -18 17 -49q0 -42 -25 -81.5t-61 -58.5l-26 29q22 12 39.5 29.5t23.5 36.5q-5 -3 -19 -3q-20 0 -35 15.5t-15 40.5t17.5 42t41.5 17q25 0 42 -18z" />
    <glyph glyph-name="Lslash" unicode="&#x141;" horiz-adv-x="510" 
d="M15 202v120l62 48v290h147v-175l83 67v-121l-83 -66v-236h228v-129h-375v250z" />
    <glyph glyph-name="lslash" unicode="&#x142;" horiz-adv-x="291" 
d="M8 202v120l60 48v318h139v-209l61 48v-121l-61 -48v-358h-139v250z" />
    <glyph glyph-name="Nacute" unicode="&#x143;" horiz-adv-x="675" 
d="M190 0h-147v660h159l243 -429h1v429h148v-660h-159l-244 430h-1v-430zM365 921l71 -90l-189 -110l-44 60z" />
    <glyph glyph-name="nacute" unicode="&#x144;" horiz-adv-x="548" 
d="M409.5 404q40.5 -18 66 -56.5t25.5 -96.5v-251h-150v226q0 43 -21 66.5t-56 23.5t-61.5 -27.5t-26.5 -67.5v-221h-150v410h150v-60q6 16 26 33t49.5 28t61.5 11q46 0 86.5 -18zM371 671l71 -90l-189 -110l-44 60z" />
    <glyph glyph-name="uni0145" unicode="&#x145;" horiz-adv-x="666" 
d="M190 0h-147v660h159l243 -429h1v429h148v-660h-159l-244 430h-1v-430zM375 -74q21 -22 21 -60q0 -52 -31 -100.5t-75 -71.5l-32 36q27 15 48.5 36t28.5 45q-5 -4 -22 -4q-25 0 -43 19t-18 49q0 31 21 52t50 21q31 0 52 -22z" />
    <glyph glyph-name="uni0146" unicode="&#x146;" horiz-adv-x="548" 
d="M409.5 404q40.5 -18 66 -56.5t25.5 -96.5v-251h-150v226q0 43 -21 66.5t-56 23.5t-61.5 -27.5t-26.5 -67.5v-221h-150v410h150v-60q6 16 26 33t49.5 28t61.5 11q46 0 86.5 -18zM312 -74q21 -22 21 -60q0 -52 -31 -100.5t-75 -71.5l-32 36q27 15 48.5 36t28.5 45
q-5 -4 -22 -4q-25 0 -43 19t-18 49q0 31 21 52t50 21q31 0 52 -22z" />
    <glyph glyph-name="Ncaron" unicode="&#x147;" horiz-adv-x="675" 
d="M190 0h-147v660h159l243 -429h1v429h148v-660h-159l-244 430h-1v-430zM322 831l121 89l54 -71l-175 -129l-176 129l54 72z" />
    <glyph glyph-name="ncaron" unicode="&#x148;" horiz-adv-x="548" 
d="M409.5 404q40.5 -18 66 -56.5t25.5 -96.5v-251h-150v226q0 43 -21 66.5t-56 23.5t-61.5 -27.5t-26.5 -67.5v-221h-150v410h150v-60q6 16 26 33t49.5 28t61.5 11q46 0 86.5 -18zM257 581l121 89l54 -71l-175 -129l-176 129l54 72z" />
    <glyph glyph-name="Eng" unicode="&#x14a;" horiz-adv-x="666" 
d="M594 660v-675q0 -87 -40 -145t-121 -58q-43 0 -71.5 7.5t-55.5 19.5l49 116q22 -11 40 -11q21 0 33.5 17t12.5 49v20h-6l-244 430h-1v-430h-147v660h159l243 -429h1v429h148z" />
    <glyph glyph-name="eng" unicode="&#x14b;" horiz-adv-x="548" 
d="M409.5 404q40.5 -18 66 -56.5t25.5 -96.5v-280q0 -45 -18.5 -88.5t-55.5 -72t-90 -28.5q-71 0 -111 26l48 111q17 -11 38 -11q39 0 39 73v245q0 43 -21 66.5t-56 23.5t-61.5 -27.5t-26.5 -67.5v-221h-150v410h150v-60q6 16 26 33t49.5 28t61.5 11q46 0 86.5 -18z" />
    <glyph glyph-name="Omacron" unicode="&#x14c;" horiz-adv-x="730" 
d="M65.5 502.5q44.5 78.5 122 124t171.5 45.5q95 0 172.5 -45.5t121.5 -124t44 -172.5t-43 -172.5t-120.5 -124t-174.5 -45.5q-99 0 -176 45.5t-119.5 123.5t-42.5 173q0 94 44.5 172.5zM197.5 228q23.5 -47 65.5 -74.5t96 -27.5t96 27.5t65.5 74.5t23.5 102
q0 56 -23.5 102.5t-65.5 74t-96 27.5t-96 -27.5t-65.5 -74t-23.5 -102.5q0 -55 23.5 -102zM511 851v-94h-325v94h325z" />
    <glyph glyph-name="omacron" unicode="&#x14d;" horiz-adv-x="506" 
d="M131.5 15.5q-52.5 27.5 -82 77t-29.5 111.5t29.5 112t82 78t119.5 28q66 0 118 -28t81 -78t29 -112t-29 -111.5t-81 -77t-118 -27.5q-67 0 -119.5 27.5zM313.5 137q23.5 26 23.5 68q0 41 -23.5 67.5t-62.5 26.5q-40 0 -64 -26.5t-24 -67.5q0 -42 24 -68t64 -26
q39 0 62.5 26zM409 602v-94h-325v94h325z" />
    <glyph glyph-name="Ohungarumlaut" unicode="&#x150;" horiz-adv-x="730" 
d="M65.5 502.5q44.5 78.5 122 124t171.5 45.5q95 0 172.5 -45.5t121.5 -124t44 -172.5t-43 -172.5t-120.5 -124t-174.5 -45.5q-99 0 -176 45.5t-119.5 123.5t-42.5 173q0 94 44.5 172.5zM197.5 228q23.5 -47 65.5 -74.5t96 -27.5t96 27.5t65.5 74.5t23.5 102
q0 56 -23.5 102.5t-65.5 74t-96 27.5t-96 -27.5t-65.5 -74t-23.5 -102.5q0 -55 23.5 -102zM322 935l64 -82l-158 -134l-44 60zM490 935l65 -82l-159 -134l-44 60z" />
    <glyph glyph-name="ohungarumlaut" unicode="&#x151;" horiz-adv-x="506" 
d="M131.5 15.5q-52.5 27.5 -82 77t-29.5 111.5t29.5 112t82 78t119.5 28q66 0 118 -28t81 -78t29 -112t-29 -111.5t-81 -77t-118 -27.5q-67 0 -119.5 27.5zM313.5 137q23.5 26 23.5 68q0 41 -23.5 67.5t-62.5 26.5q-40 0 -64 -26.5t-24 -67.5q0 -42 24 -68t64 -26
q39 0 62.5 26zM220 687l64 -82l-158 -134l-44 60zM388 687l65 -82l-159 -134l-44 60z" />
    <glyph glyph-name="OE" unicode="&#x152;" horiz-adv-x="829" 
d="M180.5 42.5q-76.5 42.5 -121 118t-44.5 169.5t44.5 169.5t121 118t166.5 42.5h416v-129h-229v-136h220v-128h-220v-138h229v-129h-416q-90 0 -166.5 42.5zM387 529h-24q-55 0 -98 -26.5t-67 -72t-24 -100.5t24 -100.5t67 -71.5t98 -26h24v397z" />
    <glyph glyph-name="oe" unicode="&#x153;" horiz-adv-x="830" 
d="M790 184h-298q3 -36 29 -61.5t69 -25.5q39 0 73 14t56 32l65 -95q-56 -60 -200 -60q-51 0 -95 15t-75 44q-30 -28 -72 -43.5t-91 -15.5q-67 0 -119.5 27.5t-82 77t-29.5 111.5t29.5 112t82 78t119.5 28q48 0 89.5 -15.5t71.5 -43.5q29 28 70 43.5t90 15.5
q100 0 159.5 -56t59.5 -161q0 -16 -1 -21zM648 245q-2 33 -21.5 55.5t-52.5 22.5t-54.5 -22t-23.5 -56h152zM313.5 137q23.5 26 23.5 68q0 41 -23.5 67.5t-62.5 26.5q-40 0 -64 -26.5t-24 -67.5q0 -42 24 -68t64 -26q39 0 62.5 26z" />
    <glyph glyph-name="Racute" unicode="&#x154;" horiz-adv-x="583" 
d="M409.5 636q45.5 -24 71.5 -69.5t26 -107.5q0 -58 -21 -98.5t-52 -61.5t-61 -25l160 -274h-165l-143 263h-39v-263h-147v660h268q57 0 102.5 -24zM327 386.5q28 21.5 28 68.5q0 46 -27.5 67t-72.5 21h-69v-178h68q45 0 73 21.5zM321 920l71 -90l-189 -110l-44 60z" />
    <glyph glyph-name="racute" unicode="&#x155;" horiz-adv-x="405" 
d="M357.5 414.5q22.5 -7.5 38.5 -17.5l-59 -122q-9 11 -26.5 19t-41.5 8q-43 0 -66.5 -30.5t-23.5 -64.5v-207h-149v410h149v-58q12 25 45.5 47.5t84.5 22.5q26 0 48.5 -7.5zM277 671l71 -90l-189 -110l-44 60z" />
    <glyph glyph-name="uni0156" unicode="&#x156;" horiz-adv-x="590" 
d="M409.5 636q45.5 -24 71.5 -69.5t26 -107.5q0 -58 -21 -98.5t-52 -61.5t-61 -25l160 -274h-165l-143 263h-39v-263h-147v660h268q57 0 102.5 -24zM327 386.5q28 21.5 28 68.5q0 46 -27.5 67t-72.5 21h-69v-178h68q45 0 73 21.5zM327 -74q21 -22 21 -60q0 -52 -31 -100.5
t-75 -71.5l-32 36q27 15 48.5 36t28.5 45q-5 -4 -22 -4q-25 0 -43 19t-18 49q0 31 21 52t50 21q31 0 52 -22z" />
    <glyph glyph-name="uni0157" unicode="&#x157;" horiz-adv-x="395" 
d="M357.5 414.5q22.5 -7.5 38.5 -17.5l-59 -122q-9 11 -26.5 19t-41.5 8q-43 0 -66.5 -30.5t-23.5 -64.5v-207h-149v410h149v-58q12 25 45.5 47.5t84.5 22.5q26 0 48.5 -7.5zM241 -74q21 -22 21 -60q0 -52 -31 -100.5t-75 -71.5l-32 36q27 15 48.5 36t28.5 45q-5 -4 -22 -4
q-25 0 -43 19t-18 49q0 31 21 52t50 21q31 0 52 -22z" />
    <glyph glyph-name="Rcaron" unicode="&#x158;" horiz-adv-x="583" 
d="M409.5 636q45.5 -24 71.5 -69.5t26 -107.5q0 -58 -21 -98.5t-52 -61.5t-61 -25l160 -274h-165l-143 263h-39v-263h-147v660h268q57 0 102.5 -24zM327 386.5q28 21.5 28 68.5q0 46 -27.5 67t-72.5 21h-69v-178h68q45 0 73 21.5zM250 831l121 89l54 -71l-175 -129l-176 129
l54 72z" />
    <glyph glyph-name="rcaron" unicode="&#x159;" horiz-adv-x="405" 
d="M357.5 414.5q22.5 -7.5 38.5 -17.5l-59 -122q-9 11 -26.5 19t-41.5 8q-43 0 -66.5 -30.5t-23.5 -64.5v-207h-149v410h149v-58q12 25 45.5 47.5t84.5 22.5q26 0 48.5 -7.5zM192 581l121 89l54 -71l-175 -129l-176 129l54 72z" />
    <glyph glyph-name="Sacute" unicode="&#x15a;" horiz-adv-x="559" 
d="M382 660q46 -12 75 -26.5t39 -23.5l-71 -119q-21 15 -56 31t-72 16q-40 0 -63.5 -14t-23.5 -41t27.5 -47t91.5 -44q181 -66 181 -209q0 -64 -34.5 -108t-90.5 -65.5t-123 -21.5q-62 0 -115.5 14t-88 31.5t-44.5 27.5l74 124q10 -8 38.5 -23t65.5 -27t70 -12q46 0 70 18
t24 48q0 32 -30.5 55t-101.5 50q-76 31 -120.5 76.5t-44.5 121.5q0 53 30.5 94t81.5 63.5t110 22.5q55 0 101 -12zM309 920l71 -90l-189 -110l-44 60z" />
    <glyph glyph-name="sacute" unicode="&#x15b;" horiz-adv-x="404" 
d="M325 409q45 -13 59 -22l-49 -89q-12 9 -37 19t-55 10q-26 0 -42.5 -8t-16.5 -23q0 -14 18 -24t54 -17q58 -12 96 -40t38 -85q0 -77 -59.5 -109.5t-142.5 -32.5q-64 0 -107 16t-60 29l48 99q17 -13 45 -25.5t60 -12.5t50 9t18 26t-17 26.5t-53 17.5q-53 11 -91.5 40.5
t-38.5 86.5q0 58 53.5 90t130.5 32q54 0 99 -13zM270 671l71 -90l-189 -110l-44 60z" />
    <glyph glyph-name="Scedilla" unicode="&#x15e;" horiz-adv-x="559" 
d="M229 -11l-13 -32q44 4 77 -16.5t33 -58.5q0 -45 -33.5 -71.5t-82.5 -26.5q-42 0 -74.5 12t-50.5 30l49 55q13 -13 30 -21.5t34 -8.5q18 0 29 8.5t11 22.5q0 16 -13 25t-33 9q-28 0 -41 -7l-7 6l29 81q-58 11 -102.5 32t-56.5 33l74 124q10 -8 38.5 -23t65.5 -27t70 -12
q46 0 70 18t24 48q0 32 -30.5 55t-101.5 50q-76 31 -120.5 76.5t-44.5 121.5q0 53 30.5 94t81.5 63.5t110 22.5q55 0 101 -12t75 -26.5t39 -23.5l-71 -119q-21 15 -56 31t-72 16q-40 0 -63.5 -14t-23.5 -41t27.5 -47t91.5 -44q181 -66 181 -209q0 -64 -34.5 -108
t-90.5 -65.5t-123 -21.5q-23 0 -33 1z" />
    <glyph glyph-name="scedilla" unicode="&#x15f;" horiz-adv-x="404" 
d="M342.5 29q-47.5 -33 -118.5 -39l-13 -33q44 4 77 -16.5t33 -58.5q0 -45 -33.5 -71.5t-82.5 -26.5q-42 0 -74.5 12t-50.5 30l49 55q13 -13 30 -21.5t34 -8.5q18 0 29 8.5t11 22.5q0 16 -13 25t-33 9q-28 0 -41 -7l-7 6l26 74q-55 3 -92 17.5t-52 26.5l48 99
q17 -13 45 -25.5t60 -12.5t50 9t18 26t-17 26.5t-53 17.5q-53 11 -91.5 40.5t-38.5 86.5q0 58 53.5 90t130.5 32q54 0 99 -13t59 -22l-49 -89q-12 9 -37 19t-55 10q-26 0 -42.5 -8t-16.5 -23q0 -14 18 -24t54 -17q58 -12 96 -40t38 -85q0 -68 -47.5 -101z" />
    <glyph glyph-name="Scaron" unicode="&#x160;" horiz-adv-x="559" 
d="M382 660q46 -12 75 -26.5t39 -23.5l-71 -119q-21 15 -56 31t-72 16q-40 0 -63.5 -14t-23.5 -41t27.5 -47t91.5 -44q181 -66 181 -209q0 -64 -34.5 -108t-90.5 -65.5t-123 -21.5q-62 0 -115.5 14t-88 31.5t-44.5 27.5l74 124q10 -8 38.5 -23t65.5 -27t70 -12q46 0 70 18
t24 48q0 32 -30.5 55t-101.5 50q-76 31 -120.5 76.5t-44.5 121.5q0 53 30.5 94t81.5 63.5t110 22.5q55 0 101 -12zM265 831l121 89l54 -71l-175 -129l-176 129l54 72z" />
    <glyph glyph-name="scaron" unicode="&#x161;" horiz-adv-x="404" 
d="M325 409q45 -13 59 -22l-49 -89q-12 9 -37 19t-55 10q-26 0 -42.5 -8t-16.5 -23q0 -14 18 -24t54 -17q58 -12 96 -40t38 -85q0 -77 -59.5 -109.5t-142.5 -32.5q-64 0 -107 16t-60 29l48 99q17 -13 45 -25.5t60 -12.5t50 9t18 26t-17 26.5t-53 17.5q-53 11 -91.5 40.5
t-38.5 86.5q0 58 53.5 90t130.5 32q54 0 99 -13zM198 581l121 89l54 -71l-175 -129l-176 129l54 72z" />
    <glyph glyph-name="uni0162" unicode="&#x162;" horiz-adv-x="509" 
d="M280 0l-17 -43q44 4 77 -16.5t33 -58.5q0 -45 -33.5 -71.5t-82.5 -26.5q-42 0 -74.5 12t-50.5 30l49 55q13 -13 30 -21.5t34 -8.5q18 0 29 8.5t11 22.5q0 16 -13 25t-33 9q-28 0 -41 -7l-7 6l30 85h-56v531h-157v129h462v-129h-157v-531h-33z" />
    <glyph glyph-name="uni0163" unicode="&#x163;" horiz-adv-x="362" 
d="M78 579h148v-169h93v-123h-93v-111q0 -58 35 -58q12 0 22.5 5t12.5 9l52 -112q-10 -9 -47.5 -20.5t-82.5 -11.5q-64 0 -102 35.5t-38 105.5v158h-70v123h70v169zM242 -124q44 4 77 -16.5t33 -58.5q0 -45 -33.5 -71.5t-82.5 -26.5q-42 0 -74.5 12t-50.5 30l49 55
q13 -13 30 -21.5t34 -8.5q18 0 29 8.5t11 22.5q0 16 -13 25t-33 9q-28 0 -41 -7l-7 6l38 106l52 -18z" />
    <glyph glyph-name="Tcaron" unicode="&#x164;" horiz-adv-x="509" 
d="M8 660h462v-129h-157v-531h-148v531h-157v129zM240 830l121 89l54 -71l-175 -129l-176 129l54 72z" />
    <glyph glyph-name="tcaron" unicode="&#x165;" horiz-adv-x="355" 
d="M393.5 607.5q15.5 -16.5 15.5 -45.5q0 -39 -23.5 -75.5t-56.5 -54.5l-24 27q20 11 37 27t22 34q-7 -3 -17 -3q-19 0 -33 14.5t-14 37.5t16 39t39 16t38.5 -16.5zM226 579v-169h93v-123h-93v-111q0 -58 35 -58q12 0 22.5 5t12.5 9l52 -112q-10 -9 -47.5 -20.5t-82.5 -11.5
q-64 0 -102 35.5t-38 105.5v158h-70v123h70v169h148z" />
    <glyph glyph-name="Tbar" unicode="&#x166;" horiz-adv-x="509" 
d="M313 531v-119h157v-111h-157v-301h-148v301h-158v111h158v119h-157v129h462v-129h-157z" />
    <glyph glyph-name="tbar" unicode="&#x167;" horiz-adv-x="355" 
d="M348 20q-10 -9 -47.5 -20.5t-82.5 -11.5q-64 0 -102 35.5t-38 105.5v39h-66v106h66v13h-70v123h70v169h148v-169h93v-123h-93v-13h72v-106h-72q3 -50 35 -50q12 0 22.5 5t12.5 9z" />
    <glyph glyph-name="Umacron" unicode="&#x16a;" horiz-adv-x="631" 
d="M572 254q0 -81 -32 -141t-91.5 -92.5t-141.5 -32.5q-124 0 -195 71.5t-71 194.5v406h147v-398q0 -67 31.5 -103.5t87.5 -36.5q55 0 86 36.5t31 103.5v398h148v-406zM456 852v-94h-325v94h325z" />
    <glyph glyph-name="umacron" unicode="&#x16b;" horiz-adv-x="547" 
d="M266 111q82 0 82 109v190h148v-206q0 -100 -60.5 -158t-169.5 -58q-108 0 -168.5 58t-60.5 158v206h147v-190q0 -109 82 -109zM416 602v-94h-325v94h325z" />
    <glyph glyph-name="Uring" unicode="&#x16e;" horiz-adv-x="631" 
d="M572 254q0 -81 -32 -141t-91.5 -92.5t-141.5 -32.5q-124 0 -195 71.5t-71 194.5v406h147v-398q0 -67 31.5 -103.5t87.5 -36.5q55 0 86 36.5t31 103.5v398h148v-406zM203 917q37 32 91 32t90.5 -32t36.5 -81t-35.5 -81t-91.5 -32q-57 0 -92.5 31.5t-35.5 81.5q0 49 37 81z
M264.5 805.5q11.5 -12.5 29.5 -12.5q17 0 29 13t12 30t-12 29.5t-29 12.5t-29 -12.5t-12 -29.5q0 -18 11.5 -30.5z" />
    <glyph glyph-name="uring" unicode="&#x16f;" horiz-adv-x="547" 
d="M266 111q82 0 82 109v190h148v-206q0 -100 -60.5 -158t-169.5 -58q-108 0 -168.5 58t-60.5 158v206h147v-190q0 -109 82 -109zM168 667q37 32 91 32t90.5 -32t36.5 -81t-35.5 -81t-91.5 -32q-57 0 -92.5 31.5t-35.5 81.5q0 49 37 81zM229.5 555.5q11.5 -12.5 29.5 -12.5
q17 0 29 13t12 30t-12 29.5t-29 12.5t-29 -12.5t-12 -29.5q0 -18 11.5 -30.5z" />
    <glyph glyph-name="Uhungarumlaut" unicode="&#x170;" horiz-adv-x="631" 
d="M572 254q0 -81 -32 -141t-91.5 -92.5t-141.5 -32.5q-124 0 -195 71.5t-71 194.5v406h147v-398q0 -67 31.5 -103.5t87.5 -36.5q55 0 86 36.5t31 103.5v398h148v-406zM276 935l64 -82l-158 -134l-44 60zM444 935l65 -82l-159 -134l-44 60z" />
    <glyph glyph-name="uhungarumlaut" unicode="&#x171;" horiz-adv-x="547" 
d="M266 111q82 0 82 109v190h148v-206q0 -100 -60.5 -158t-169.5 -58q-108 0 -168.5 58t-60.5 158v206h147v-190q0 -109 82 -109zM234 687l64 -82l-158 -134l-44 60zM402 687l65 -82l-159 -134l-44 60z" />
    <glyph glyph-name="Uogonek" unicode="&#x172;" horiz-adv-x="631" 
d="M572 660v-406q0 -114 -61.5 -184t-169.5 -80q-15 -20 -27.5 -48t-12.5 -55q0 -14 9.5 -22.5t20.5 -8.5q12 0 23 7t19 17l57 -42q-17 -24 -45.5 -41t-64.5 -17q-38 0 -69.5 23t-31.5 71q0 45 56 115q-110 10 -172 80.5t-62 184.5v406h147v-398q0 -67 31.5 -103.5
t87.5 -36.5q55 0 86 36.5t31 103.5v398h148z" />
    <glyph glyph-name="uogonek" unicode="&#x173;" horiz-adv-x="547" 
d="M496 410v-206q0 -94 -53.5 -151t-150.5 -64q-15 -20 -27.5 -47.5t-12.5 -54.5q0 -14 9.5 -22.5t20.5 -8.5q12 0 23 7t19 17l57 -42q-17 -24 -45.5 -41t-64.5 -17q-38 0 -69.5 23t-31.5 71q0 26 17 57t40 59q-91 10 -140.5 66.5t-49.5 147.5v206h147v-190q0 -109 82 -109
t82 109v190h148z" />
    <glyph glyph-name="Wcircumflex" unicode="&#x174;" horiz-adv-x="894" 
d="M866 660l-151 -660h-177l-100 411l-100 -411h-178l-150 660h169l79 -461l124 461h112l124 -461l79 461h169zM426 923l175 -128l-54 -72l-121 89l-122 -88l-54 71z" />
    <glyph glyph-name="wcircumflex" unicode="&#x175;" horiz-adv-x="728" 
d="M123 0l-135 410h159l66 -227l95 219h99l93 -219l67 227h159l-135 -410h-138l-96 234l-96 -234h-138zM356 671l175 -128l-54 -72l-121 89l-122 -88l-54 71z" />
    <glyph glyph-name="Ycircumflex" unicode="&#x176;" horiz-adv-x="599" 
d="M162 660l122 -254l122 254h178l-226 -422v-238h-148v238l-227 422h179zM275 923l175 -128l-54 -72l-121 89l-122 -88l-54 71z" />
    <glyph glyph-name="ycircumflex" unicode="&#x177;" horiz-adv-x="513" 
d="M507 410l-282 -618h-150l95 208l-171 410h149l100 -280l112 280h147zM225 671l175 -128l-54 -72l-121 89l-122 -88l-54 71z" />
    <glyph glyph-name="Ydieresis" unicode="&#x178;" horiz-adv-x="599" 
d="M162 660l122 -254l122 254h178l-226 -422v-238h-148v238l-227 422h179zM234 860.5q21 -21.5 21 -51.5t-21 -51.5t-51 -21.5q-31 0 -52 21.5t-21 51.5t21 51.5t52 21.5q30 0 51 -21.5zM435 860.5q21 -21.5 21 -51.5t-21 -51.5t-51 -21.5q-31 0 -52 21.5t-21 51.5t21 51.5
t52 21.5q30 0 51 -21.5z" />
    <glyph glyph-name="Zacute" unicode="&#x179;" horiz-adv-x="629" 
d="M263 129h307v-129h-564l328 531h-282v129h540zM343 920l71 -90l-189 -110l-44 60z" />
    <glyph glyph-name="zacute" unicode="&#x17a;" horiz-adv-x="448" 
d="M230 105h190v-105h-422l206 306h-173v104h405zM306 671l71 -90l-189 -110l-44 60z" />
    <glyph glyph-name="Zdotaccent" unicode="&#x17b;" horiz-adv-x="629" 
d="M263 129h307v-129h-564l328 531h-282v129h540zM350 860.5q21 -21.5 21 -51.5t-21 -51.5t-51 -21.5q-31 0 -52 21.5t-21 51.5t21 51.5t52 21.5q30 0 51 -21.5z" />
    <glyph glyph-name="zdotaccent" unicode="&#x17c;" horiz-adv-x="448" 
d="M230 105h190v-105h-422l206 306h-173v104h405zM270 610.5q21 -21.5 21 -51.5t-21 -51.5t-51 -21.5q-31 0 -52 21.5t-21 51.5t21 51.5t52 21.5q30 0 51 -21.5z" />
    <glyph glyph-name="Zcaron" unicode="&#x17d;" horiz-adv-x="629" 
d="M263 129h307v-129h-564l328 531h-282v129h540zM299 832l121 89l54 -71l-175 -129l-176 129l54 72z" />
    <glyph glyph-name="zcaron" unicode="&#x17e;" horiz-adv-x="448" 
d="M230 105h190v-105h-422l206 306h-173v104h405zM224 581l121 89l54 -71l-175 -129l-176 129l54 72z" />
    <glyph glyph-name="uni01CD" unicode="&#x1cd;" horiz-adv-x="673" 
d="M660 0h-157l-49 133h-254l-49 -133h-158l260 660h147zM328 474h-2l-78 -211h157zM336 831l121 89l54 -71l-175 -129l-176 129l54 72z" />
    <glyph glyph-name="uni01CE" unicode="&#x1ce;" horiz-adv-x="565" 
d="M337 35q-19 -19 -49 -33t-67 -14q-59 0 -104.5 28.5t-70.5 78.5t-25 110t25 109.5t70.5 78.5t104.5 29q53 0 90.5 -23.5t49.5 -48.5v60h149v-410h-148v67q-6 -13 -25 -32zM196.5 134q28.5 -28 68.5 -28q42 0 69 28t27 71t-27 71.5t-69 28.5q-40 0 -68.5 -28.5
t-28.5 -71.5t28.5 -71zM284 581l121 89l54 -71l-175 -129l-176 129l54 72z" />
    <glyph glyph-name="uni01CF" unicode="&#x1cf;" horiz-adv-x="269" 
d="M195 0h-148v660h148v-660zM130 831l121 89l54 -71l-175 -129l-176 129l54 72z" />
    <glyph glyph-name="uni01D0" unicode="&#x1d0;" horiz-adv-x="216" 
d="M171 410v-410h-139v410h139zM110 581l121 89l54 -71l-175 -129l-176 129l54 72z" />
    <glyph glyph-name="uni01D1" unicode="&#x1d1;" horiz-adv-x="742" 
d="M65.5 502.5q44.5 78.5 122 124t171.5 45.5q95 0 172.5 -45.5t121.5 -124t44 -172.5t-43 -172.5t-120.5 -124t-174.5 -45.5q-99 0 -176 45.5t-119.5 123.5t-42.5 173q0 94 44.5 172.5zM197.5 228q23.5 -47 65.5 -74.5t96 -27.5t96 27.5t65.5 74.5t23.5 102
q0 56 -23.5 102.5t-65.5 74t-96 27.5t-96 -27.5t-65.5 -74t-23.5 -102.5q0 -55 23.5 -102zM368 831l121 89l54 -71l-175 -129l-176 129l54 72z" />
    <glyph glyph-name="uni01D2" unicode="&#x1d2;" horiz-adv-x="516" 
d="M131.5 15.5q-52.5 27.5 -82 77t-29.5 111.5t29.5 112t82 78t119.5 28q66 0 118 -28t81 -78t29 -112t-29 -111.5t-81 -77t-118 -27.5q-67 0 -119.5 27.5zM313.5 137q23.5 26 23.5 68q0 41 -23.5 67.5t-62.5 26.5q-40 0 -64 -26.5t-24 -67.5q0 -42 24 -68t64 -26
q39 0 62.5 26zM258 581l121 89l54 -71l-175 -129l-176 129l54 72z" />
    <glyph glyph-name="uni01D3" unicode="&#x1d3;" horiz-adv-x="636" 
d="M572 254q0 -81 -32 -141t-91.5 -92.5t-141.5 -32.5q-124 0 -195 71.5t-71 194.5v406h147v-398q0 -67 31.5 -103.5t87.5 -36.5q55 0 86 36.5t31 103.5v398h148v-406zM316 831l121 89l54 -71l-175 -129l-176 129l54 72z" />
    <glyph glyph-name="uni01D4" unicode="&#x1d4;" horiz-adv-x="547" 
d="M266 111q82 0 82 109v190h148v-206q0 -100 -60.5 -158t-169.5 -58q-108 0 -168.5 58t-60.5 158v206h147v-190q0 -109 82 -109zM275 581l121 89l54 -71l-175 -129l-176 129l54 72z" />
    <glyph glyph-name="uni01D5" unicode="&#x1d5;" horiz-adv-x="636" 
d="M572 254q0 -81 -32 -141t-91.5 -92.5t-141.5 -32.5q-124 0 -195 71.5t-71 194.5v406h147v-398q0 -67 31.5 -103.5t87.5 -36.5q55 0 86 36.5t31 103.5v398h148v-406zM265 860.5q21 -21.5 21 -51.5t-21 -51.5t-51 -21.5q-31 0 -52 21.5t-21 51.5t21 51.5t52 21.5
q30 0 51 -21.5zM466 860.5q21 -21.5 21 -51.5t-21 -51.5t-51 -21.5q-31 0 -52 21.5t-21 51.5t21 51.5t52 21.5q30 0 51 -21.5zM478 1074v-94h-325v94h325z" />
    <glyph glyph-name="uni01D6" unicode="&#x1d6;" horiz-adv-x="547" 
d="M266 111q82 0 82 109v190h148v-206q0 -100 -60.5 -158t-169.5 -58q-108 0 -168.5 58t-60.5 158v206h147v-190q0 -109 82 -109zM224 610.5q21 -21.5 21 -51.5t-21 -51.5t-51 -21.5q-31 0 -52 21.5t-21 51.5t21 51.5t52 21.5q30 0 51 -21.5zM425 610.5q21 -21.5 21 -51.5
t-21 -51.5t-51 -21.5q-31 0 -52 21.5t-21 51.5t21 51.5t52 21.5q30 0 51 -21.5zM437 824v-94h-325v94h325z" />
    <glyph glyph-name="uni01D7" unicode="&#x1d7;" horiz-adv-x="636" 
d="M572 254q0 -81 -32 -141t-91.5 -92.5t-141.5 -32.5q-124 0 -195 71.5t-71 194.5v406h147v-398q0 -67 31.5 -103.5t87.5 -36.5q55 0 86 36.5t31 103.5v398h148v-406zM265 860.5q21 -21.5 21 -51.5t-21 -51.5t-51 -21.5q-31 0 -52 21.5t-21 51.5t21 51.5t52 21.5
q30 0 51 -21.5zM466 860.5q21 -21.5 21 -51.5t-21 -51.5t-51 -21.5q-31 0 -52 21.5t-21 51.5t21 51.5t52 21.5q30 0 51 -21.5zM360 1143l71 -90l-189 -110l-44 60z" />
    <glyph glyph-name="uni01D8" unicode="&#x1d8;" horiz-adv-x="547" 
d="M266 111q82 0 82 109v190h148v-206q0 -100 -60.5 -158t-169.5 -58q-108 0 -168.5 58t-60.5 158v206h147v-190q0 -109 82 -109zM224 610.5q21 -21.5 21 -51.5t-21 -51.5t-51 -21.5q-31 0 -52 21.5t-21 51.5t21 51.5t52 21.5q30 0 51 -21.5zM425 610.5q21 -21.5 21 -51.5
t-21 -51.5t-51 -21.5q-31 0 -52 21.5t-21 51.5t21 51.5t52 21.5q30 0 51 -21.5zM319 893l71 -90l-189 -110l-44 60z" />
    <glyph glyph-name="uni01D9" unicode="&#x1d9;" horiz-adv-x="636" 
d="M572 254q0 -81 -32 -141t-91.5 -92.5t-141.5 -32.5q-124 0 -195 71.5t-71 194.5v406h147v-398q0 -67 31.5 -103.5t87.5 -36.5q55 0 86 36.5t31 103.5v398h148v-406zM265 860.5q21 -21.5 21 -51.5t-21 -51.5t-51 -21.5q-31 0 -52 21.5t-21 51.5t21 51.5t52 21.5
q30 0 51 -21.5zM466 860.5q21 -21.5 21 -51.5t-21 -51.5t-51 -21.5q-31 0 -52 21.5t-21 51.5t21 51.5t52 21.5q30 0 51 -21.5zM316 1053l121 89l54 -71l-175 -129l-176 129l54 72z" />
    <glyph glyph-name="uni01DA" unicode="&#x1da;" horiz-adv-x="547" 
d="M266 111q82 0 82 109v190h148v-206q0 -100 -60.5 -158t-169.5 -58q-108 0 -168.5 58t-60.5 158v206h147v-190q0 -109 82 -109zM224 610.5q21 -21.5 21 -51.5t-21 -51.5t-51 -21.5q-31 0 -52 21.5t-21 51.5t21 51.5t52 21.5q30 0 51 -21.5zM425 610.5q21 -21.5 21 -51.5
t-21 -51.5t-51 -21.5q-31 0 -52 21.5t-21 51.5t21 51.5t52 21.5q30 0 51 -21.5zM275 803l121 89l54 -71l-175 -129l-176 129l54 72z" />
    <glyph glyph-name="uni01DB" unicode="&#x1db;" horiz-adv-x="636" 
d="M572 254q0 -81 -32 -141t-91.5 -92.5t-141.5 -32.5q-124 0 -195 71.5t-71 194.5v406h147v-398q0 -67 31.5 -103.5t87.5 -36.5q55 0 86 36.5t31 103.5v398h148v-406zM265 860.5q21 -21.5 21 -51.5t-21 -51.5t-51 -21.5q-31 0 -52 21.5t-21 51.5t21 51.5t52 21.5
q30 0 51 -21.5zM466 860.5q21 -21.5 21 -51.5t-21 -51.5t-51 -21.5q-31 0 -52 21.5t-21 51.5t21 51.5t52 21.5q30 0 51 -21.5zM270 1143l162 -140l-44 -60l-189 110z" />
    <glyph glyph-name="uni01DC" unicode="&#x1dc;" horiz-adv-x="547" 
d="M266 111q82 0 82 109v190h148v-206q0 -100 -60.5 -158t-169.5 -58q-108 0 -168.5 58t-60.5 158v206h147v-190q0 -109 82 -109zM224 610.5q21 -21.5 21 -51.5t-21 -51.5t-51 -21.5q-31 0 -52 21.5t-21 51.5t21 51.5t52 21.5q30 0 51 -21.5zM425 610.5q21 -21.5 21 -51.5
t-21 -51.5t-51 -21.5q-31 0 -52 21.5t-21 51.5t21 51.5t52 21.5q30 0 51 -21.5zM229 893l162 -140l-44 -60l-189 110z" />
    <glyph glyph-name="uni0218" unicode="&#x218;" horiz-adv-x="559" 
d="M382 660q46 -12 75 -26.5t39 -23.5l-71 -119q-21 15 -56 31t-72 16q-40 0 -63.5 -14t-23.5 -41t27.5 -47t91.5 -44q181 -66 181 -209q0 -64 -34.5 -108t-90.5 -65.5t-123 -21.5q-62 0 -115.5 14t-88 31.5t-44.5 27.5l74 124q10 -8 38.5 -23t65.5 -27t70 -12q46 0 70 18
t24 48q0 32 -30.5 55t-101.5 50q-76 31 -120.5 76.5t-44.5 121.5q0 53 30.5 94t81.5 63.5t110 22.5q55 0 101 -12zM315 -74q21 -22 21 -60q0 -52 -31 -100.5t-75 -71.5l-32 36q27 15 48.5 36t28.5 45q-5 -4 -22 -4q-25 0 -43 19t-18 49q0 31 21 52t50 21q31 0 52 -22z" />
    <glyph glyph-name="uni0219" unicode="&#x219;" horiz-adv-x="429" 
d="M325 409q45 -13 59 -22l-49 -89q-12 9 -37 19t-55 10q-26 0 -42.5 -8t-16.5 -23q0 -14 18 -24t54 -17q58 -12 96 -40t38 -85q0 -77 -59.5 -109.5t-142.5 -32.5q-64 0 -107 16t-60 29l48 99q17 -13 45 -25.5t60 -12.5t50 9t18 26t-17 26.5t-53 17.5q-53 11 -91.5 40.5
t-38.5 86.5q0 58 53.5 90t130.5 32q54 0 99 -13zM259 -74q21 -22 21 -60q0 -52 -31 -100.5t-75 -71.5l-32 36q27 15 48.5 36t28.5 45q-5 -4 -22 -4q-25 0 -43 19t-18 49q0 31 21 52t50 21q31 0 52 -22z" />
    <glyph glyph-name="uni021A" unicode="&#x21a;" horiz-adv-x="509" 
d="M8 660h462v-129h-157v-531h-148v531h-157v129zM290 -74q21 -22 21 -60q0 -52 -31 -100.5t-75 -71.5l-32 36q27 15 48.5 36t28.5 45q-5 -4 -22 -4q-25 0 -43 19t-18 49q0 31 21 52t50 21q31 0 52 -22z" />
    <glyph glyph-name="uni021B" unicode="&#x21b;" horiz-adv-x="362" 
d="M78 579h148v-169h93v-123h-93v-111q0 -58 35 -58q12 0 22.5 5t12.5 9l52 -112q-10 -9 -47.5 -20.5t-82.5 -11.5q-64 0 -102 35.5t-38 105.5v158h-70v123h70v169zM269 -155q21 -22 21 -60q0 -52 -31 -100.5t-75 -71.5l-32 36q27 15 48.5 36t28.5 45q-5 -4 -22 -4
q-25 0 -43 19t-18 49q0 31 21 52t50 21q31 0 52 -22z" />
    <glyph glyph-name="circumflex" unicode="&#x2c6;" horiz-adv-x="490" 
d="M239 671l175 -128l-54 -72l-121 89l-122 -88l-54 71z" />
    <glyph glyph-name="caron" unicode="&#x2c7;" horiz-adv-x="490" 
d="M239 581l121 89l54 -71l-175 -129l-176 129l54 72z" />
    <glyph glyph-name="breve" unicode="&#x2d8;" horiz-adv-x="506" 
d="M372.5 543q-49.5 -40 -126.5 -40q-76 0 -125.5 39.5t-57.5 103.5l99 25q5 -34 26 -58t58 -24q36 0 57 24t27 58l99 -25q-7 -63 -56.5 -103z" />
    <glyph glyph-name="dotaccent" unicode="&#x2d9;" horiz-adv-x="284" 
d="M186 610.5q21 -21.5 21 -51.5t-21 -51.5t-51 -21.5q-31 0 -52 21.5t-21 51.5t21 51.5t52 21.5q30 0 51 -21.5z" />
    <glyph glyph-name="ring" unicode="&#x2da;" horiz-adv-x="394" 
d="M99 667q37 32 91 32t90.5 -32t36.5 -81t-35.5 -81t-91.5 -32q-57 0 -92.5 31.5t-35.5 81.5q0 49 37 81zM160.5 555.5q11.5 -12.5 29.5 -12.5q17 0 29 13t12 30t-12 29.5t-29 12.5t-29 -12.5t-12 -29.5q0 -18 11.5 -30.5z" />
    <glyph glyph-name="ogonek" unicode="&#x2db;" horiz-adv-x="347" 
d="M92.5 -197q-31.5 23 -31.5 71q0 31 24.5 71t59.5 76l46 -21q-20 -25 -34 -55.5t-14 -57.5q0 -14 9.5 -22.5t20.5 -8.5q12 0 23 7t19 17l57 -42q-17 -24 -45.5 -41t-64.5 -17q-38 0 -69.5 23z" />
    <glyph glyph-name="tilde" unicode="&#x2dc;" horiz-adv-x="506" 
d="M156.5 519q-9.5 -11 -14.5 -26h-80q11 57 38 96.5t70 39.5q23 0 42 -5.5t43 -15.5q15 -6 30 -11t28 -5t22.5 11t14.5 26h80q-11 -57 -38.5 -96.5t-70.5 -39.5q-22 0 -40 5.5t-43 15.5q-4 1 -16.5 6t-23 7.5t-20.5 2.5q-12 0 -21.5 -11z" />
    <glyph glyph-name="hungarumlaut" unicode="&#x2dd;" horiz-adv-x="509" 
d="M221 687l64 -82l-158 -134l-44 60zM389 687l65 -82l-159 -134l-44 60z" />
    <glyph glyph-name="gravecomb" unicode="&#x300;" 
d="M-212 671l162 -140l-44 -60l-189 110z" />
    <glyph glyph-name="acutecomb" unicode="&#x301;" 
d="M-192 671l71 -90l-189 -110l-44 60z" />
    <glyph glyph-name="uni0302" unicode="&#x302;" 
d="M-243 671l175 -128l-54 -72l-121 89l-122 -88l-54 71z" />
    <glyph glyph-name="tildecomb" unicode="&#x303;" 
d="M-341.5 519q-9.5 -11 -14.5 -26h-80q11 57 38 96.5t70 39.5q23 0 42 -5.5t43 -15.5q15 -6 30 -11t28 -5t22.5 11t14.5 26h80q-11 -57 -38.5 -96.5t-70.5 -39.5q-22 0 -40 5.5t-43 15.5q-4 1 -16.5 6t-23 7.5t-20.5 2.5q-12 0 -21.5 -11z" />
    <glyph glyph-name="uni0304" unicode="&#x304;" 
d="M-68 602v-94h-325v94h325z" />
    <glyph glyph-name="uni0306" unicode="&#x306;" 
d="M-125.5 543q-49.5 -40 -126.5 -40q-76 0 -125.5 39.5t-57.5 103.5l99 25q5 -34 26 -58t58 -24q36 0 57 24t27 58l99 -25q-7 -63 -56.5 -103z" />
    <glyph glyph-name="uni0307" unicode="&#x307;" 
d="M-90 610.5q21 -21.5 21 -51.5t-21 -51.5t-51 -21.5q-31 0 -52 21.5t-21 51.5t21 51.5t52 21.5q30 0 51 -21.5z" />
    <glyph glyph-name="uni0308" unicode="&#x308;" 
d="M-285 610.5q21 -21.5 21 -51.5t-21 -51.5t-51 -21.5q-31 0 -52 21.5t-21 51.5t21 51.5t52 21.5q30 0 51 -21.5zM-84 610.5q21 -21.5 21 -51.5t-21 -51.5t-51 -21.5q-31 0 -52 21.5t-21 51.5t21 51.5t52 21.5q30 0 51 -21.5z" />
    <glyph glyph-name="uni030A" unicode="&#x30a;" 
d="M-287 667q37 32 91 32t90.5 -32t36.5 -81t-35.5 -81t-91.5 -32q-57 0 -92.5 31.5t-35.5 81.5q0 49 37 81zM-225.5 555.5q11.5 -12.5 29.5 -12.5q17 0 29 13t12 30t-12 29.5t-29 12.5t-29 -12.5t-12 -29.5q0 -18 11.5 -30.5z" />
    <glyph glyph-name="uni030B" unicode="&#x30b;" 
d="M-280 687l64 -82l-158 -134l-44 60zM-112 687l65 -82l-159 -134l-44 60z" />
    <glyph glyph-name="uni030C" unicode="&#x30c;" 
d="M-243 581l121 89l54 -71l-175 -129l-176 129l54 72z" />
    <glyph glyph-name="uni0312" unicode="&#x312;" 
d="M-182 513q-17 18 -17 49q0 42 25 81.5t61 58.5l26 -29q-22 -12 -39.5 -29.5t-23.5 -36.5q5 3 19 3q20 0 35 -15.5t15 -40.5t-17.5 -42t-41.5 -17q-25 0 -42 18z" />
    <glyph glyph-name="uni0326" unicode="&#x326;" 
d="M-101 -74q21 -22 21 -60q0 -52 -31 -100.5t-75 -71.5l-32 36q27 15 48.5 36t28.5 45q-5 -4 -22 -4q-25 0 -43 19t-18 49q0 31 21 52t50 21q31 0 52 -22z" />
    <glyph glyph-name="uni0327" unicode="&#x327;" 
d="M-173 -43q44 4 77 -16.5t33 -58.5q0 -45 -33.5 -71.5t-82.5 -26.5q-42 0 -74.5 12t-50.5 30l49 55q13 -13 30 -21.5t34 -8.5q18 0 29 8.5t11 22.5q0 16 -13 25t-33 9q-28 0 -41 -7l-7 6l38 106l52 -18z" />
    <glyph glyph-name="uni0328" unicode="&#x328;" 
d="M-246.5 -197q-31.5 23 -31.5 71q0 31 24.5 71t59.5 76l46 -21q-20 -25 -34 -55.5t-14 -57.5q0 -14 9.5 -22.5t20.5 -8.5q12 0 23 7t19 17l57 -42q-17 -24 -45.5 -41t-64.5 -17q-38 0 -69.5 23z" />
    <glyph glyph-name="Wgrave" unicode="&#x1e80;" horiz-adv-x="894" 
d="M866 660l-151 -660h-177l-100 411l-100 -411h-178l-150 660h169l79 -461l124 461h112l124 -461l79 461h169zM344 922l162 -140l-44 -60l-189 110z" />
    <glyph glyph-name="wgrave" unicode="&#x1e81;" horiz-adv-x="728" 
d="M123 0l-135 410h159l66 -227l95 219h99l93 -219l67 227h159l-135 -410h-138l-96 234l-96 -234h-138zM289 671l162 -140l-44 -60l-189 110z" />
    <glyph glyph-name="Wacute" unicode="&#x1e82;" horiz-adv-x="894" 
d="M866 660l-151 -660h-177l-100 411l-100 -411h-178l-150 660h169l79 -461l124 461h112l124 -461l79 461h169zM513 921l71 -90l-189 -110l-44 60z" />
    <glyph glyph-name="wacute" unicode="&#x1e83;" horiz-adv-x="728" 
d="M123 0l-135 410h159l66 -227l95 219h99l93 -219l67 227h159l-135 -410h-138l-96 234l-96 -234h-138zM410 671l71 -90l-189 -110l-44 60z" />
    <glyph glyph-name="Wdieresis" unicode="&#x1e84;" horiz-adv-x="894" 
d="M866 660l-151 -660h-177l-100 411l-100 -411h-178l-150 660h169l79 -461l124 461h112l124 -461l79 461h169zM374 856.5q21 -21.5 21 -51.5t-21 -51.5t-51 -21.5q-31 0 -52 21.5t-21 51.5t21 51.5t52 21.5q30 0 51 -21.5zM575 856.5q21 -21.5 21 -51.5t-21 -51.5
t-51 -21.5q-31 0 -52 21.5t-21 51.5t21 51.5t52 21.5q30 0 51 -21.5z" />
    <glyph glyph-name="wdieresis" unicode="&#x1e85;" horiz-adv-x="728" 
d="M123 0l-135 410h159l66 -227l95 219h99l93 -219l67 227h159l-135 -410h-138l-96 234l-96 -234h-138zM306 610.5q21 -21.5 21 -51.5t-21 -51.5t-51 -21.5q-31 0 -52 21.5t-21 51.5t21 51.5t52 21.5q30 0 51 -21.5zM507 610.5q21 -21.5 21 -51.5t-21 -51.5t-51 -21.5
q-31 0 -52 21.5t-21 51.5t21 51.5t52 21.5q30 0 51 -21.5z" />
    <glyph glyph-name="uni1E9E" unicode="&#x1e9e;" horiz-adv-x="642" 
d="M344 108q45 0 73.5 24.5t28.5 63.5q0 40 -34.5 63.5t-97.5 23.5q-22 0 -47 -3v127l116 141q-35 6 -73 6q-67 0 -93 -39.5t-26 -116.5v-398h-145v461q0 109 72.5 161.5t204.5 52.5q44 0 100.5 -8.5t104.5 -21.5l-1 -117l-127 -151q195 -2 195 -189q0 -66 -31.5 -111
t-84.5 -67.5t-117 -22.5q-61 0 -114 13v124q45 -16 96 -16z" />
    <glyph glyph-name="Ygrave" unicode="&#x1ef2;" horiz-adv-x="599" 
d="M162 660l122 -254l122 254h178l-226 -422v-238h-148v238l-227 422h179zM197 922l162 -140l-44 -60l-189 110z" />
    <glyph glyph-name="ygrave" unicode="&#x1ef3;" horiz-adv-x="513" 
d="M507 410l-282 -618h-150l95 208l-171 410h149l100 -280l112 280h147zM117 671l162 -140l-44 -60l-189 110z" />
    <glyph glyph-name="endash" unicode="&#x2013;" horiz-adv-x="445" 
d="M431 291v-127h-431v127h431z" />
    <glyph glyph-name="emdash" unicode="&#x2014;" horiz-adv-x="857" 
d="M851 291v-127h-860v127h860z" />
    <glyph glyph-name="quoteleft" unicode="&#x2018;" horiz-adv-x="241" 
d="M61.5 411.5q-25.5 28.5 -25.5 79.5q0 64 35 111.5t87 70.5l35 -31q-25 -12 -53.5 -40t-28.5 -58q4 6 15.5 9t24.5 3q27 0 47 -20.5t20 -58.5q0 -43 -25.5 -68.5t-65.5 -25.5t-65.5 28.5z" />
    <glyph glyph-name="quoteright" unicode="&#x2019;" horiz-adv-x="241" 
d="M170.5 645.5q25.5 -28.5 25.5 -79.5q0 -64 -35 -111.5t-87 -70.5l-35 31q25 12 53.5 40t28.5 58q-4 -6 -15.5 -9t-24.5 -3q-27 0 -47 20.5t-20 58.5q0 43 25.5 68.5t65.5 25.5t65.5 -28.5z" />
    <glyph glyph-name="quotesinglbase" unicode="&#x201a;" horiz-adv-x="246" 
d="M194 141.5q26 -27.5 26 -75.5q0 -64 -39 -124.5t-94 -90.5l-40 45q33 18 60.5 45t36.5 56q-9 -5 -28 -5q-31 0 -54 24t-23 62t26.5 64.5t63.5 26.5q39 0 65 -27.5z" />
    <glyph glyph-name="quotedblleft" unicode="&#x201c;" horiz-adv-x="517" 
d="M312.5 411.5q-25.5 28.5 -25.5 79.5q0 64 35 111.5t87 70.5l35 -31q-25 -12 -53.5 -40t-28.5 -58q4 6 15.5 9t24.5 3q27 0 47 -20.5t20 -58.5q0 -43 -25.5 -68.5t-65.5 -25.5t-65.5 28.5zM85.5 411.5q-25.5 28.5 -25.5 79.5q0 64 35 111.5t87 70.5l35 -31
q-25 -12 -53.5 -40t-28.5 -58q4 6 15.5 9t24.5 3q27 0 47 -20.5t20 -58.5q0 -43 -25.5 -68.5t-65.5 -25.5t-65.5 28.5z" />
    <glyph glyph-name="quotedblright" unicode="&#x201d;" horiz-adv-x="517" 
d="M194.5 643.5q25.5 -28.5 25.5 -79.5q0 -64 -35 -111.5t-87 -70.5l-35 31q25 12 53.5 40t28.5 58q-4 -6 -15.5 -9t-24.5 -3q-27 0 -47 20.5t-20 58.5q0 43 25.5 68.5t65.5 25.5t65.5 -28.5zM421.5 643.5q25.5 -28.5 25.5 -79.5q0 -64 -35 -111.5t-87 -70.5l-35 31
q25 12 53.5 40t28.5 58q-4 -6 -15.5 -9t-24.5 -3q-27 0 -47 20.5t-20 58.5q0 43 25.5 68.5t65.5 25.5t65.5 -28.5z" />
    <glyph glyph-name="quotedblbase" unicode="&#x201e;" horiz-adv-x="476" 
d="M410 141.5q26 -27.5 26 -75.5q0 -64 -39 -124.5t-94 -90.5l-40 45q33 18 60.5 45t36.5 56q-9 -5 -28 -5q-31 0 -54 24t-23 62t26.5 64.5t63.5 26.5q39 0 65 -27.5zM194 141.5q26 -27.5 26 -75.5q0 -64 -39 -124.5t-94 -90.5l-40 45q33 18 60.5 45t36.5 56q-9 -5 -28 -5
q-31 0 -54 24t-23 62t26.5 64.5t63.5 26.5q39 0 65 -27.5z" />
    <glyph glyph-name="dagger" unicode="&#x2020;" horiz-adv-x="431" 
d="M364 395h-92v-395h-134v395h-97v127h97v166h134v-166h92v-127z" />
    <glyph glyph-name="daggerdbl" unicode="&#x2021;" horiz-adv-x="435" 
d="M281 395v-94h94v-127h-94v-174h-134v174h-95v127h95v94h-93v127h93v166h134v-166h96v-127h-96z" />
    <glyph glyph-name="bullet" unicode="&#x2022;" horiz-adv-x="559" 
d="M349.5 419q35.5 -21 56.5 -56.5t21 -77.5t-21 -77.5t-56.5 -56t-77.5 -20.5t-77.5 20.5t-56 56t-20.5 77.5t20.5 77.5t56 56.5t77.5 21t77.5 -21z" />
    <glyph glyph-name="ellipsis" unicode="&#x2026;" horiz-adv-x="819" 
d="M68.5 14.5q-26.5 26.5 -26.5 63.5t26.5 63.5t63.5 26.5q38 0 64 -26t26 -64q0 -37 -26 -63.5t-64 -26.5q-37 0 -63.5 26.5zM347.5 14.5q-26.5 26.5 -26.5 63.5t26.5 63.5t63.5 26.5q38 0 64 -26t26 -64q0 -37 -26 -63.5t-64 -26.5q-37 0 -63.5 26.5zM624.5 14.5
q-26.5 26.5 -26.5 63.5t26.5 63.5t63.5 26.5q38 0 64 -26t26 -64q0 -37 -26 -63.5t-64 -26.5q-37 0 -63.5 26.5z" />
    <glyph glyph-name="perthousand" unicode="&#x2030;" horiz-adv-x="1107" 
d="M64 593q22 36 62 57t90 21t89.5 -21t61.5 -57t22 -79q0 -42 -22 -78t-61.5 -57t-89.5 -21q-51 0 -90.5 21t-61.5 57t-22 78q0 43 22 79zM148 135h-148l787 492h149zM163.5 462q19.5 -20 51.5 -20q31 0 50.5 20t19.5 52t-19.5 53t-50.5 21t-51 -21t-20 -53t19.5 -52z
M378 224q22 36 62 57t90 21t89.5 -21t61.5 -57t22 -79q0 -42 -22 -78t-61.5 -57t-89.5 -21q-51 0 -90.5 21t-61.5 57t-22 78q0 43 22 79zM759 224q22 36 62 57t90 21q49 0 88.5 -21t61.5 -57t22 -79q0 -42 -21.5 -78t-61 -57t-89.5 -21q-51 0 -90.5 21t-61.5 57t-22 78
q0 43 22 79zM478.5 93q19.5 -20 50.5 -20t50.5 20t19.5 52t-19.5 53t-50.5 21t-50.5 -21t-19.5 -53t19.5 -52zM858.5 93q19.5 -20 51.5 -20q31 0 50.5 20t19.5 52t-19.5 53t-50.5 21t-51 -21t-20 -53t19.5 -52z" />
    <glyph glyph-name="guilsinglleft" unicode="&#x2039;" horiz-adv-x="308" 
d="M24 222l156 200l73 -57l-111 -143l111 -142l-73 -57z" />
    <glyph glyph-name="guilsinglright" unicode="&#x203a;" horiz-adv-x="308" 
d="M151 222l-111 143l73 57l156 -200l-156 -199l-73 57z" />
    <glyph glyph-name="fraction" unicode="&#x2044;" horiz-adv-x="222" 
d="M-39 0h-90l384 660h90z" />
    <glyph glyph-name="Euro" unicode="&#x20ac;" horiz-adv-x="655" 
d="M500 145.5q37 11.5 62 28.5l63 -125q-33 -26 -88.5 -43.5t-125.5 -17.5q-78 0 -146.5 29.5t-118 82.5t-72.5 122h-66v81h50q-1 9 -1 26q0 18 1 27h-50v80h66q23 69 72.5 123t118.5 83.5t146 29.5q70 0 125.5 -17.5t88.5 -43.5l-63 -125q-25 17 -62 28.5t-79 11.5
q-61 0 -106 -24t-70 -66h260v-80h-287q-1 -9 -1 -26q0 -9 2 -27h286v-81h-259q26 -41 70 -64.5t105 -23.5q42 0 79 11.5z" />
    <glyph glyph-name="trademark" unicode="&#x2122;" horiz-adv-x="420" 
d="M158 619h-49v-165h-48v165h-49v41h146v-41zM336 578l-43 -123h-27l-42 123h-1l-11 -124h-46l18 206h50l46 -120l44 120h50l19 -206h-47z" />
    <glyph glyph-name="minus" unicode="&#x2212;" horiz-adv-x="520" 
d="M476 392v-122h-446v122h446z" />
    <glyph glyph-name="notequal" unicode="&#x2260;" horiz-adv-x="531" 
d="M307 366l-40 -69h199v-122h-270l-69 -118h-93l69 118h-47v122h118l40 69h-158v122h229l67 116h93l-67 -116h88v-122h-159z" />
    <glyph glyph-name="lessequal" unicode="&#x2264;" horiz-adv-x="549" 
d="M477 195l-437 185v112l437 186v-131l-283 -112l283 -111v-129zM492 0h-475v122h475v-122z" />
    <glyph glyph-name="greaterequal" unicode="&#x2265;" horiz-adv-x="549" 
d="M52 547v131l437 -186v-112l-437 -185v129l283 111zM512 0h-475v122h475v-122z" />
    <glyph glyph-name="C.ss01" horiz-adv-x="644" 
d="M469 145.5q37 11.5 62 28.5l63 -125q-33 -26 -88.5 -43.5t-125.5 -17.5q-97 0 -178 44.5t-128.5 122.5t-47.5 174t47.5 174.5t129 123.5t177.5 45q70 0 125.5 -17.5t88.5 -43.5l-63 -125q-25 17 -62 28.5t-79 11.5q-65 0 -111 -27t-69.5 -71.5t-23.5 -97.5t23.5 -97.5
t69.5 -71.5t111 -27q42 0 79 11.5z" />
    <glyph glyph-name="Q.ss01" horiz-adv-x="728" 
d="M669.5 189.5q-27.5 -65.5 -78.5 -113.5l93 -159h-159l-52 89q-52 -18 -114 -18q-99 0 -176 45.5t-119.5 123.5t-42.5 173q0 94 44.5 172.5t122 124t171.5 45.5q95 0 172.5 -45.5t121.5 -124t44 -172.5q0 -75 -27.5 -140.5zM400 131l-58 99h159l11 -18q32 53 32 118
q0 56 -23.5 102.5t-65.5 74t-96 27.5t-96 -27.5t-65.5 -74t-23.5 -102.5q0 -55 23.5 -102t65.5 -74.5t96 -27.5q19 0 41 5z" />
    <glyph glyph-name="Q.ss02" horiz-adv-x="733" 
d="M176.5 33q-74.5 45 -116 123t-41.5 174q0 95 44 173t119.5 123.5t164.5 45.5q90 0 165.5 -45t119 -123.5t43.5 -173.5q0 -102 -50 -186q4 -2 25 -10.5t66 -21.5l-65 -131q-67 26 -120 63q-79 -56 -184 -56q-96 0 -170.5 45zM398 145q-51 48 -83 89l63 79q3 -5 37 -36.5
t76 -59.5q25 49 25 113q0 82 -43 137t-126 55t-126 -55.5t-43 -136.5q0 -83 41 -137t128 -54q32 0 51 6z" />
    <glyph glyph-name="i.loclTRK" horiz-adv-x="216" 
d="M171 410v-410h-139v410h139zM148 610.5q21 -21.5 21 -51.5t-21 -51.5t-51 -21.5q-31 0 -52 21.5t-21 51.5t21 51.5t52 21.5q30 0 51 -21.5z" />
    <glyph glyph-name="germandbls.calt" horiz-adv-x="642" 
d="M344 108q45 0 73.5 24.5t28.5 63.5q0 40 -34.5 63.5t-97.5 23.5q-22 0 -47 -3v127l116 141q-35 6 -73 6q-67 0 -93 -39.5t-26 -116.5v-398h-145v461q0 109 72.5 161.5t204.5 52.5q44 0 100.5 -8.5t104.5 -21.5l-1 -117l-127 -151q195 -2 195 -189q0 -66 -31.5 -111
t-84.5 -67.5t-117 -22.5q-61 0 -114 13v124q45 -16 96 -16z" />
    </font>
</defs>
</svg>
