<?xml version="1.0" standalone="no"?>
<!DOCTYPE svg PUBLIC "-//W3C//DTD SVG 1.1//EN" "http://www.w3.org/Graphics/SVG/1.1/DTD/svg11.dtd" >
<svg xmlns="http://www.w3.org/2000/svg" xmlns:xlink="http://www.w3.org/1999/xlink" version="1.1">
<metadata>
Created by FontForge 20170731 at Mon Jul 15 19:50:36 2019
 By Aleksey,,,
</metadata>
<defs>
<font id="LeagueSpartan-Extrabold" horiz-adv-x="0" >
  <font-face 
    font-family="League Spartan Extrabold"
    font-weight="800"
    font-stretch="normal"
    units-per-em="1000"
    panose-1="0 0 9 0 0 0 0 0 0 0"
    ascent="800"
    descent="-200"
    x-height="410"
    cap-height="660"
    bbox="-447 -473 1150 1161"
    underline-thickness="50"
    underline-position="-150"
    unicode-range="U+0020-2265"
  />
<missing-glyph horiz-adv-x="296" 
 />
    <glyph glyph-name=".notdef" horiz-adv-x="296" 
 />
    <glyph glyph-name=".null" 
 />
    <glyph glyph-name="nonmarkingreturn" horiz-adv-x="333" 
 />
    <glyph glyph-name="space" unicode=" " horiz-adv-x="270" 
 />
    <glyph glyph-name="exclam" unicode="!" horiz-adv-x="301" 
d="M237 688l-35 -462h-116l-35 462h186zM74 17q-29 29 -29 70t29 70t70 29t70 -29t29 -70t-29 -70t-70 -29t-70 29z" />
    <glyph glyph-name="quotedbl" unicode="&#x22;" horiz-adv-x="419" 
d="M162 657.5q23 -19.5 23 -43.5v-4q0 -37 -60 -243h-45q-44 206 -44 243v4q0 24 23 43.5t51 19.5q29 0 52 -19.5zM347 657.5q23 -19.5 23 -43.5v-4q0 -37 -61 -243h-44q-44 206 -44 243v4q0 24 23 43.5t51 19.5q29 0 52 -19.5z" />
    <glyph glyph-name="numbersign" unicode="#" horiz-adv-x="682" 
d="M507 382l-27 -103h81l-33 -111h-77l-45 -168h-115l45 168h-102l-44 -168h-115l44 168h-75l33 111h72l27 103h-80l33 111h76l44 167h115l-44 -167h102l44 167h115l-44 -167h76l-33 -111h-73zM392 382h-101l-27 -103h101z" />
    <glyph glyph-name="dollar" unicode="$" horiz-adv-x="570" 
d="M468 55q-55 -49 -141 -63v-95h-96v92q-56 4 -103 18.5t-77.5 30.5t-40.5 25l84 143q10 -8 40 -23t66.5 -27t67.5 -12q38 0 57.5 13.5t19.5 37.5q0 25 -26.5 44t-93.5 44q-76 29 -121 75.5t-45 126.5q0 70 48.5 118t123.5 63v101h96v-97q67 -5 117 -25.5t68 -35.5
l-81 -137q-19 15 -54.5 30.5t-68.5 15.5q-34 0 -54.5 -11t-20.5 -33q0 -23 25 -39.5t87 -39.5q82 -28 130 -79t48 -129q0 -83 -55 -132z" />
    <glyph glyph-name="percent" unicode="%" horiz-adv-x="819" 
d="M44.5 597q23.5 38 65.5 60.5t96 22.5t96 -22.5t65 -60.5t23 -83q0 -44 -23 -82t-65 -60.5t-96 -22.5t-96 22.5t-65.5 60.5t-23.5 82q0 45 23.5 83zM255 0h-111l419 660h110zM156.5 463.5q18.5 -19.5 49.5 -19.5q29 0 47.5 19.5t18.5 50.5t-18.5 51.5t-47.5 20.5
q-30 0 -49 -20.5t-19 -51.5t18.5 -50.5zM448.5 228q23.5 38 65.5 60.5t96 22.5t96 -22.5t65.5 -60.5t23.5 -83q0 -44 -23.5 -82t-65.5 -60.5t-96 -22.5t-96 22.5t-65.5 60.5t-23.5 82q0 45 23.5 83zM561 94.5q19 -19.5 49 -19.5t48.5 19.5t18.5 50.5q0 32 -18.5 52t-48.5 20
t-49 -20t-19 -52q0 -31 19 -50.5z" />
    <glyph glyph-name="ampersand" unicode="&#x26;" horiz-adv-x="706" 
d="M43.5 276q30.5 39 68.5 60.5t68 29.5q-28 14 -52 51t-24 86q0 45 25 83.5t74.5 62t119.5 23.5q100 0 152 -47.5t52 -124.5q0 -44 -28.5 -80.5t-61.5 -59t-41 -24.5l80 -82q41 30 89 95l113 -103q-2 -5 -32 -39.5t-60 -57.5l143 -149h-214l-58 62q-46 -35 -96.5 -54.5
t-120.5 -19.5q-60 0 -112 22t-83.5 66t-31.5 106q0 55 30.5 94zM284.5 531.5q-13.5 -12.5 -13.5 -30.5q0 -20 15.5 -43t24.5 -30q17 8 39.5 28.5t22.5 44.5q0 19 -13.5 31t-37.5 12t-37.5 -12.5zM243.5 255q-13.5 -9 -24.5 -24t-11 -33q0 -26 17.5 -38.5t47.5 -12.5
q20 0 40 8.5t35 20.5l-86 89q-5 -1 -18.5 -10z" />
    <glyph glyph-name="quotesingle" unicode="'" horiz-adv-x="247" 
d="M168.5 657.5q22.5 -19.5 22.5 -43.5v-4q0 -37 -60 -243h-44q-44 206 -44 243v4q0 24 22.5 43.5t51.5 19.5t51.5 -19.5z" />
    <glyph glyph-name="parenleft" unicode="(" horiz-adv-x="334" 
d="M78 -15.5q-42 117.5 -42 253.5q0 139 46 260.5t112 202.5l100 -43q-46 -62 -78 -171t-32 -249q0 -133 28.5 -238t69.5 -167l-101 -43q-61 77 -103 194.5z" />
    <glyph glyph-name="parenright" unicode=")" horiz-adv-x="334" 
d="M114.5 0q28.5 105 28.5 238q0 140 -32 249t-78 171l100 43q66 -81 112 -202.5t46 -260.5q0 -136 -42 -253.5t-103 -194.5l-101 43q41 62 69.5 167z" />
    <glyph glyph-name="asterisk" unicode="*" horiz-adv-x="413" 
d="M350 556l-95 -30l64 -74l-64 -45l-55 71l-55 -72l-64 47l63 73l-95 30l23 69l89 -26v91h77v-91l89 26z" />
    <glyph glyph-name="plus" unicode="+" horiz-adv-x="529" 
d="M188 126v136h-135v139h135v136h140v-136h135v-139h-135v-136h-140z" />
    <glyph glyph-name="comma" unicode="," horiz-adv-x="294" 
d="M210 156q28 -29 28 -82q0 -68 -42 -133.5t-101 -98.5l-43 49q35 20 63.5 48.5t38.5 59.5q-10 -6 -28 -6q-34 0 -58.5 25.5t-24.5 68.5q0 40 28.5 69t68.5 29q42 0 70 -29z" />
    <glyph glyph-name="hyphen" unicode="-" horiz-adv-x="376" 
d="M310 301v-147h-257v147h257z" />
    <glyph glyph-name="period" unicode="." horiz-adv-x="301" 
d="M74 17q-29 29 -29 70t29 69.5t70 28.5t69.5 -28.5t28.5 -69.5t-28.5 -70t-69.5 -29t-70 29z" />
    <glyph glyph-name="slash" unicode="/" horiz-adv-x="502" 
d="M147 -96h-135l329 784h135z" />
    <glyph glyph-name="zero" unicode="0" horiz-adv-x="597" 
d="M55 516q37 77 99.5 116.5t137.5 39.5t137.5 -39.5t99.5 -116.5t37 -186q0 -118 -36.5 -194.5t-98.5 -112t-139 -35.5t-138.5 35.5t-98.5 112t-37 194.5q0 109 37 186zM292 137q104 0 104 193q0 91 -27 142t-77 51t-76.5 -51t-26.5 -142q0 -193 103 -193z" />
    <glyph glyph-name="one" unicode="1" horiz-adv-x="335" 
d="M8 553l195 107h78v-660h-171v443l-102 -52v162z" />
    <glyph glyph-name="two" unicode="2" horiz-adv-x="578" 
d="M218 505q-28 -23 -43.5 -49.5t-18.5 -36.5l-145 67q3 22 29.5 66t86.5 82t155 38q93 0 149 -35t78.5 -85t22.5 -100q0 -77 -50.5 -143.5t-105.5 -107t-81 -53.5h232v-148h-488v135q95 62 208.5 155t113.5 165q0 73 -79 73q-36 0 -64 -23z" />
    <glyph glyph-name="three" unicode="3" horiz-adv-x="545" 
d="M65.5 589q9.5 16 62 49.5t137.5 33.5q62 0 112.5 -23t79.5 -66t29 -99q0 -46 -23 -81.5t-53 -45.5q24 -4 48 -23.5t39.5 -52t15.5 -73.5q0 -63 -32.5 -113.5t-90 -78.5t-128.5 -28q-103 0 -167.5 49.5t-87.5 120.5l156 76q12 -41 37 -70t61 -29q39 0 61.5 21.5t22.5 57.5
q0 35 -23.5 53.5t-60.5 18.5h-12v120h16q30 0 49.5 17.5t19.5 47.5q0 29 -19 47t-52 18q-34 0 -55.5 -18t-31.5 -38.5t-10 -25.5l-137 65q27 54 36.5 70z" />
    <glyph glyph-name="four" unicode="4" horiz-adv-x="537" 
d="M516 287v-148h-76v-139h-170v139h-270v120l256 401h184v-373h76zM268 448l-99 -161h101v161h-2z" />
    <glyph glyph-name="five" unicode="5" horiz-adv-x="544" 
d="M252 130q39 0 61 25t22 66q0 39 -21.5 61.5t-58.5 22.5q-53 0 -85 -46l-139 51l59 350h385v-148h-242l-18 -97q6 7 33 16t59 9q51 0 96.5 -22.5t74.5 -69.5t29 -117q0 -73 -32.5 -128.5t-88.5 -85t-127 -29.5q-100 0 -160.5 42.5t-83.5 105.5l145 63q22 -69 92 -69z" />
    <glyph glyph-name="six" unicode="6" horiz-adv-x="567" 
d="M417 416q48 -27 78.5 -77t30.5 -116q0 -67 -33.5 -121t-90.5 -84t-126 -30q-70 0 -127.5 28.5t-91 83t-33.5 127.5q0 77 24 134.5t64 105.5l159 193h199l-199 -229q14 12 47 12q51 0 99 -27zM339.5 153q26.5 27 26.5 64q0 38 -26.5 64.5t-64.5 26.5q-37 0 -64 -26.5
t-27 -64.5q0 -37 27 -64t64 -27q38 0 64.5 27z" />
    <glyph glyph-name="seven" unicode="7" horiz-adv-x="553" 
d="M539 547l-311 -547h-187l300 512h-292v148h490v-113z" />
    <glyph glyph-name="eight" unicode="8" horiz-adv-x="565" 
d="M153.5 13q-57.5 25 -92 70t-34.5 102q0 63 30.5 104t84.5 67q-42 25 -64.5 57.5t-22.5 84.5t30 91.5t80.5 61t110.5 21.5q62 0 111.5 -21.5t78 -61t28.5 -91.5t-21 -84.5t-62 -57.5q54 -26 84 -67t30 -104q0 -57 -34 -102t-91 -70t-123 -25t-123.5 25zM323.5 428.5
q19.5 19.5 19.5 46.5t-19.5 46.5t-46.5 19.5q-28 0 -47.5 -19.5t-19.5 -46.5t19.5 -46.5t47.5 -19.5q27 0 46.5 19.5zM327 157q21 21 21 50q0 30 -21 51t-51 21t-51 -21t-21 -51q0 -29 21 -50t51 -21t51 21z" />
    <glyph glyph-name="nine" unicode="9" horiz-adv-x="567" 
d="M127 244q-48 27 -78.5 77t-30.5 116q0 67 33.5 121t90.5 84t126 30q70 0 127.5 -28.5t91 -83t33.5 -127.5q0 -77 -24 -134.5t-64 -105.5l-159 -193h-199l199 229q-14 -12 -47 -12q-51 0 -99 27zM205 507.5q-27 -26.5 -27 -64.5q0 -37 27 -64t64 -27q38 0 64.5 27t26.5 64
q0 38 -26.5 64.5t-64.5 26.5q-37 0 -64 -26.5z" />
    <glyph glyph-name="colon" unicode=":" horiz-adv-x="291" 
d="M77 17q-29 29 -29 70t29 69.5t70 28.5t69.5 -28.5t28.5 -69.5t-28.5 -70t-69.5 -29t-70 29zM77 299q-29 29 -29 70t29 69.5t70 28.5t69.5 -28.5t28.5 -69.5t-28.5 -70t-69.5 -29t-70 29z" />
    <glyph glyph-name="semicolon" unicode=";" horiz-adv-x="293" 
d="M67 299q-29 29 -29 70t29 69.5t70 28.5t69.5 -28.5t28.5 -69.5t-28.5 -70t-69.5 -29t-70 29zM204 156q28 -29 28 -82q0 -68 -42 -133.5t-101 -98.5l-43 49q35 20 63.5 48.5t38.5 59.5q-10 -6 -28 -6q-34 0 -58.5 25.5t-24.5 68.5q0 40 28.5 69t68.5 29q42 0 70 -29z" />
    <glyph glyph-name="less" unicode="&#x3c;" horiz-adv-x="547" 
d="M44 270v126l444 184v-149l-265 -99l265 -97v-149z" />
    <glyph glyph-name="equal" unicode="=" horiz-adv-x="523" 
d="M465 501v-140h-419v140h419zM465 302v-140h-419v140h419z" />
    <glyph glyph-name="greater" unicode="&#x3e;" horiz-adv-x="547" 
d="M308 332l-265 99v149l444 -184v-126l-444 -184v149z" />
    <glyph glyph-name="question" unicode="?" horiz-adv-x="489" 
d="M210 405q30 16 48.5 34.5t18.5 43.5q0 47 -59 47q-52 0 -77 -68l-140 55q2 18 27.5 55.5t78.5 68.5t133 31q63 0 113.5 -19.5t79.5 -56.5t29 -86q0 -57 -34.5 -94.5t-83.5 -67.5q-25 -14 -35 -33.5t-10 -50.5v-38h-149v84q0 63 60 95zM157 17q-29 29 -29 70t29 70t70 29
t70.5 -29t29.5 -70t-29.5 -70t-70.5 -29t-70 29z" />
    <glyph glyph-name="at" unicode="@" horiz-adv-x="759" 
d="M197.5 31.5q-80.5 43.5 -127.5 121.5t-47 177t49 177t131.5 121.5t180.5 43.5q94 0 177 -41t133 -113.5t50 -163.5q0 -59 -25 -98.5t-64.5 -58t-82.5 -18.5q-29 0 -53 13t-37 32q-16 -27 -45 -45t-85 -18q-45 0 -81.5 23t-58 62t-21.5 84q0 67 42 111t106 44q56 0 96 -36
v27h105v-145q0 -19 6.5 -31t26.5 -12q22 0 31.5 17t9.5 55q0 56 -29.5 100.5t-82 70t-118.5 25.5q-64 0 -117.5 -30.5t-84 -82.5t-30.5 -113q0 -60 29 -109.5t80 -78t114 -28.5q45 0 77.5 12t49.5 30l106 -91q-28 -32 -88 -54.5t-145 -22.5q-97 0 -177.5 43.5zM420 288.5
q15 15.5 15 38.5q0 22 -15.5 37t-37.5 15q-23 0 -38.5 -15.5t-15.5 -37.5q0 -23 15.5 -38t38.5 -15t38 15.5z" />
    <glyph glyph-name="A" unicode="A" horiz-adv-x="700" 
d="M689 0h-182l-46 124h-244l-46 -124h-183l267 660h168zM340 445h-2l-65 -173h132z" />
    <glyph glyph-name="B" unicode="B" horiz-adv-x="567" 
d="M437 620.5q60 -39.5 60 -122.5q0 -56 -30.5 -95t-76.5 -50q58 -8 95.5 -49t37.5 -116q0 -85 -58 -136.5t-159 -51.5h-263v660h240q94 0 154 -39.5zM309.5 419.5q18.5 16.5 18.5 47.5q0 33 -18.5 45.5t-54.5 12.5h-42v-122h44q34 0 52.5 16.5zM323 152q20 17 20 53
q0 35 -21 50.5t-62 15.5h-47v-136h49q41 0 61 17z" />
    <glyph glyph-name="C" unicode="C" horiz-adv-x="592" 
d="M385 515q-85 0 -136.5 -51t-51.5 -134q0 -82 51.5 -133.5t136.5 -51.5q97 0 148 37v-171q-22 -10 -64 -16.5t-84 -6.5q-115 0 -197.5 44.5t-125 122.5t-42.5 175q0 96 45.5 174t128 123t191.5 45q99 0 148 -25v-172q-45 40 -148 40z" />
    <glyph glyph-name="D" unicode="D" horiz-adv-x="611" 
d="M425.5 618q70.5 -42 106 -116t35.5 -172t-35.5 -172t-106 -116t-173.5 -42h-212v660h212q103 0 173.5 -42zM237 151q71 0 110 50t39 129t-38.5 129t-110.5 50h-27v-358h27z" />
    <glyph glyph-name="E" unicode="E" horiz-adv-x="511" 
d="M443 511h-235v-108h234v-144h-234v-110h235v-149h-406v660h406v-149z" />
    <glyph glyph-name="F" unicode="F" horiz-adv-x="488" 
d="M436 511h-223v-106h206v-148h-206v-257h-170v660h393v-149z" />
    <glyph glyph-name="G" unicode="G" horiz-adv-x="748" 
d="M705 329q0 -95 -44 -173t-122 -123t-177 -45q-101 0 -178.5 45t-120.5 123.5t-43 173.5t45 173t123.5 123.5t173.5 45.5q81 0 150.5 -33t116.5 -91l-136 -103q-22 32 -56 50t-75 18q-48 0 -85.5 -24.5t-58.5 -66.5t-21 -92t21 -91.5t58.5 -66t85.5 -24.5q49 0 86.5 26.5
t54.5 69.5h-149v128h351v-43z" />
    <glyph glyph-name="H" unicode="H" horiz-adv-x="638" 
d="M207 0h-170v660h170v-255h192v255h170v-660h-170v257h-192v-257z" />
    <glyph glyph-name="I" unicode="I" horiz-adv-x="283" 
d="M212 0h-170v660h170v-660z" />
    <glyph glyph-name="J" unicode="J" horiz-adv-x="417" 
d="M298 45.5q-59 -57.5 -157 -57.5q-41 0 -75.5 10.5t-56.5 23.5t-29 21l62 149q12 -15 31.5 -27t41.5 -12q31 0 51 19t20 67v421h171v-456q0 -101 -59 -158.5z" />
    <glyph glyph-name="K" unicode="K" horiz-adv-x="603" 
d="M383 0l-189 283v-283h-171v660h171v-260l172 260h192l-217 -316l245 -344h-203z" />
    <glyph glyph-name="L" unicode="L" horiz-adv-x="501" 
d="M213 149h233v-149h-403v660h170v-511z" />
    <glyph glyph-name="M" unicode="M" horiz-adv-x="849" 
d="M604 0v360l8 122l-28 -141l-95 -283h-167l-95 283l-27 141l7 -122v-360h-171v660h242l117 -415l11 -58l10 58l117 415h242v-660h-171z" />
    <glyph glyph-name="N" unicode="N" horiz-adv-x="687" 
d="M209 0h-171v660h180l228 -389h1v389h171v-660h-180l-228 391h-1v-391z" />
    <glyph glyph-name="O" unicode="O" horiz-adv-x="749" 
d="M65 503q45 78 123.5 123.5t173.5 45.5q97 0 175.5 -45.5t123 -123.5t44.5 -173t-43.5 -173t-122 -123.5t-177.5 -45.5q-101 0 -178.5 45t-120.5 123.5t-43 173.5t45 173zM218 238.5q21 -41.5 58.5 -66t85.5 -24.5t85.5 24.5t58.5 66t21 91.5t-21 92t-58.5 66.5
t-85.5 24.5t-85.5 -24.5t-58.5 -66.5t-21 -92t21 -91.5z" />
    <glyph glyph-name="P" unicode="P" horiz-adv-x="564" 
d="M458 606.5q64 -53.5 64 -151.5q0 -66 -30 -115t-81.5 -74.5t-116.5 -25.5h-87v-240h-170v660h257q100 0 164 -53.5zM314.5 392.5q25.5 18.5 25.5 58.5q0 39 -25.5 57.5t-67.5 18.5h-40v-153h40q42 0 67.5 18.5z" />
    <glyph glyph-name="Q" unicode="Q" horiz-adv-x="738" 
d="M585.5 -10q23.5 6 39.5 13.5t18 11.5l55 -110q-18 -31 -60 -54t-99 -23q-34 0 -58 7.5t-54 21.5q-32 15 -56.5 22t-58.5 7q-28 0 -51 -8t-37 -17t-16 -12l-67 80q41 50 118 73q-73 20 -127 67.5t-83 115t-29 145.5q0 95 45 173t123.5 123.5t173.5 45.5q97 0 175.5 -45.5
t123 -123.5t44.5 -173q0 -80 -31.5 -148.5t-88.5 -116.5t-133 -66q26 -8 45 -11.5t40 -3.5q25 0 48.5 6zM218 238.5q21 -41.5 58.5 -66t85.5 -24.5t85.5 24.5t58.5 66t21 91.5t-21 92t-58.5 66.5t-85.5 24.5t-85.5 -24.5t-58.5 -66.5t-21 -92t21 -91.5z" />
    <glyph glyph-name="R" unicode="R" horiz-adv-x="603" 
d="M419 635q46 -25 72 -71t26 -108q0 -59 -20.5 -99t-50 -61t-58.5 -26l159 -270h-191l-140 256h-12v-256h-171v660h282q58 0 104 -25zM316.5 391q25.5 18 25.5 59t-24.5 59t-62.5 18h-51v-154h49q38 0 63.5 18z" />
    <glyph glyph-name="S" unicode="S" horiz-adv-x="570" 
d="M393 660q48 -12 78.5 -27t40.5 -24l-81 -137q-19 15 -54.5 30.5t-68.5 15.5q-34 0 -54.5 -11t-20.5 -33q0 -23 25 -39.5t87 -39.5q82 -28 130 -79t48 -129q0 -67 -36 -111.5t-94.5 -66t-125.5 -21.5q-64 0 -119 14.5t-91 32.5t-47 28l84 143q10 -8 40 -23t66.5 -27
t67.5 -12q38 0 57.5 13.5t19.5 37.5q0 25 -26.5 44t-93.5 44q-76 29 -121 75.5t-45 126.5q0 56 32 98.5t85 65.5t113 23q56 0 104 -12z" />
    <glyph glyph-name="T" unicode="T" horiz-adv-x="515" 
d="M5 660h471v-149h-150v-511h-171v511h-150v149z" />
    <glyph glyph-name="U" unicode="U" horiz-adv-x="642" 
d="M579 256q0 -124 -71.5 -196t-199.5 -72t-199.5 72t-71.5 196v404h171v-395q0 -61 25.5 -91.5t74.5 -30.5t74.5 30.5t25.5 91.5v395h171v-404z" />
    <glyph glyph-name="V" unicode="V" horiz-adv-x="691" 
d="M2 660h192l136 -441l137 441h192l-233 -660h-191z" />
    <glyph glyph-name="W" unicode="W" horiz-adv-x="945" 
d="M901 660l-156 -660h-203l-88 365l-88 -365h-204l-155 660h197l71 -430l117 430h124l117 -430l71 430h197z" />
    <glyph glyph-name="X" unicode="X" horiz-adv-x="735" 
d="M484 0l-140 212l-134 -212h-206l234 355l-213 305h218l108 -174l107 174h207l-208 -305l250 -355h-223z" />
    <glyph glyph-name="Y" unicode="Y" horiz-adv-x="616" 
d="M184 660l108 -228l107 228h206l-228 -422v-238h-171v238l-229 422h207z" />
    <glyph glyph-name="Z" unicode="Z" horiz-adv-x="644" 
d="M297 149h291v-149h-588l312 511h-265v149h563z" />
    <glyph glyph-name="bracketleft" unicode="[" horiz-adv-x="367" 
d="M312 688v-121h-136v-654h136v-121h-271v896h271z" />
    <glyph glyph-name="backslash" unicode="\" horiz-adv-x="502" 
d="M13 688h134l330 -688h-135z" />
    <glyph glyph-name="bracketright" unicode="]" horiz-adv-x="367" 
d="M45 -208v121h136v654h-136v121h271v-896h-271z" />
    <glyph glyph-name="asciicircum" unicode="^" horiz-adv-x="419" 
d="M203 558l-63 -74h-144l167 188h81l167 -188h-144z" />
    <glyph glyph-name="underscore" unicode="_" horiz-adv-x="426" 
d="M419 -9v-95h-416v95h416z" />
    <glyph glyph-name="grave" unicode="`" horiz-adv-x="333" 
d="M115 677l166 -145l-49 -68l-197 113z" />
    <glyph glyph-name="a" unicode="a" horiz-adv-x="576" 
d="M328.5 32.5q-18.5 -17.5 -47.5 -31t-64 -13.5q-59 0 -104 29.5t-69.5 79t-24.5 108.5q0 58 24.5 108t69.5 79.5t104 29.5q50 0 85.5 -20.5t49.5 -45.5v54h173v-410h-172v62q-6 -12 -24.5 -29.5zM212 146.5q24 -23.5 59 -23.5t58 23.5t23 58.5t-23 59t-58 24t-59 -24
t-24 -59t24 -58.5z" />
    <glyph glyph-name="b" unicode="b" horiz-adv-x="570" 
d="M209 688v-332q14 26 46.5 46t82.5 20q59 0 105.5 -29.5t72.5 -79.5t26 -108q0 -59 -26 -108.5t-72.5 -79t-105.5 -29.5q-43 0 -77.5 21t-53.5 53v-62h-171v688h173zM348.5 264q-23.5 24 -58.5 24t-58 -24t-23 -59t22.5 -58.5t58.5 -23.5q35 0 58.5 23.5t23.5 58.5
t-23.5 59z" />
    <glyph glyph-name="c" unicode="c" horiz-adv-x="430" 
d="M309.5 130.5q16.5 7.5 25.5 16.5l79 -116q-18 -16 -56 -29.5t-88 -13.5q-74 0 -129.5 27.5t-85.5 76.5t-30 114t30 113.5t85 75.5t130 27q49 0 88.5 -13t56.5 -28l-80 -117q-28 24 -64 24q-34 0 -57 -24t-23 -58q0 -35 23 -59t57 -24q22 0 38.5 7.5z" />
    <glyph glyph-name="d" unicode="d" horiz-adv-x="570" 
d="M352 0v62q-19 -32 -53.5 -53t-77.5 -21q-59 0 -105.5 29.5t-72.5 79t-26 108.5q0 58 26 108t72.5 79.5t105.5 29.5q50 0 82.5 -20t46.5 -46v332h173v-688h-171zM210.5 146.5q23.5 -23.5 58.5 -23.5q36 0 58.5 23.5t22.5 58.5t-23 59t-58 24t-58.5 -24t-23.5 -59
t23.5 -58.5z" />
    <glyph glyph-name="e" unicode="e" horiz-adv-x="507" 
d="M208 132.5q22 -19.5 58 -19.5t71 11t56 26l72 -109q-57 -53 -205 -53q-108 0 -175 57t-67 165q0 60 27.5 108t79.5 76t121 28q105 0 165.5 -56t60.5 -165q0 -17 -2 -22h-287q3 -27 25 -46.5zM290.5 292.5q-15.5 17.5 -41.5 17.5q-27 0 -44 -17t-18 -47h121
q-2 29 -17.5 46.5z" />
    <glyph glyph-name="f" unicode="f" horiz-adv-x="362" 
d="M72 516q0 57 26 98.5t68.5 63.5t90.5 22q45 0 79 -9.5t40 -15.5l-59 -133q-3 4 -11.5 8t-20.5 4q-16 0 -28 -12t-12 -40v-92h83v-141h-83v-269h-173v269h-63v141h63v106z" />
    <glyph glyph-name="g" unicode="g" horiz-adv-x="576" 
d="M525 410v-421q0 -67 -34.5 -114t-94.5 -71t-135 -24q-165 0 -233 83l100 106q47 -55 125 -55q46 0 73 21.5t27 63.5v63q-6 -12 -24.5 -29.5t-47.5 -31t-64 -13.5q-59 0 -104 29.5t-69.5 79t-24.5 108.5q0 58 24.5 108t69.5 79.5t104 29.5q50 0 85.5 -20.5t49.5 -45.5v54
h173zM329 146.5q23 23.5 23 58.5t-23 59t-58 24t-59 -24t-24 -59t24 -58.5t59 -23.5t58 23.5z" />
    <glyph glyph-name="h" unicode="h" horiz-adv-x="566" 
d="M430.5 403.5q41.5 -18.5 67.5 -57.5t26 -98v-248h-173v221q0 38 -17 59t-48 21t-55 -23.5t-24 -59.5v-218h-173v688h173v-333q10 25 48.5 46t86.5 21q47 0 88.5 -18.5z" />
    <glyph glyph-name="i" unicode="i" horiz-adv-x="272" 
d="M64 504.5q-28 28.5 -28 67.5t27.5 67t67.5 28q39 0 67.5 -28t28.5 -67t-28 -67.5t-68 -28.5q-39 0 -67 28.5zM215 410v-410h-173v410h173z" />
    <glyph glyph-name="j" unicode="j" horiz-adv-x="279" 
d="M68 504.5q-28 28.5 -28 67.5t28 67t67 28t67.5 -28t28.5 -67t-28 -67.5t-68 -28.5q-39 0 -67 28.5zM-78 -192l52 128q17 -12 36 -12q17 0 27 13.5t10 39.5v433h174v-458q0 -77 -43 -124.5t-128 -47.5q-81 0 -128 28z" />
    <glyph glyph-name="k" unicode="k" horiz-adv-x="539" 
d="M334 215l210 -215h-198l-149 160v-160h-173v688h173v-414l131 136h195z" />
    <glyph glyph-name="l" unicode="l" horiz-adv-x="261" 
d="M37 688h173v-688h-173v688z" />
    <glyph glyph-name="m" unicode="m" horiz-adv-x="829" 
d="M744.5 377q44.5 -45 44.5 -135v-242h-170v217q0 40 -12.5 61.5t-45.5 21.5t-50.5 -23t-17.5 -60v-217h-158v217q0 39 -12.5 61t-44.5 22q-33 0 -51 -23t-18 -60v-217h-172v410h172v-56q11 24 53 46t89 22q51 0 80.5 -19t47.5 -54q10 27 53.5 50t94.5 23q73 0 117.5 -45z
" />
    <glyph glyph-name="n" unicode="n" horiz-adv-x="562" 
d="M426.5 403.5q41.5 -18.5 67.5 -57.5t26 -98v-248h-173v221q0 38 -18.5 59t-49.5 21t-53.5 -23.5t-22.5 -59.5v-218h-173v410h173v-55q10 25 49 46t86 21t88.5 -18.5z" />
    <glyph glyph-name="o" unicode="o" horiz-adv-x="521" 
d="M132.5 15.5q-53.5 27.5 -84 76.5t-30.5 112t30.5 112.5t84 77.5t121.5 28t121 -28t82.5 -77.5t29.5 -112.5t-29.5 -112t-82.5 -76.5t-121 -27.5t-121.5 27.5zM304.5 150.5q18.5 20.5 18.5 54.5t-18.5 55t-50.5 21t-51 -21t-19 -55t19 -54.5t51 -20.5t50.5 20.5z" />
    <glyph glyph-name="p" unicode="p" horiz-adv-x="576" 
d="M37 410h173v-54q14 25 49 45.5t86 20.5q59 0 104 -29.5t69.5 -79.5t24.5 -108q0 -59 -24.5 -108.5t-69.5 -79t-104 -29.5q-36 0 -65 13.5t-47.5 31t-24.5 29.5v-270h-171v618zM349 264q-24 24 -58 24q-35 0 -58 -24t-23 -59t22.5 -58.5t58.5 -23.5q35 0 58.5 24t23.5 58
q0 35 -24 59z" />
    <glyph glyph-name="q" unicode="q" horiz-adv-x="576" 
d="M368 62q-6 -12 -24.5 -29.5t-47.5 -31t-65 -13.5q-59 0 -104 29.5t-69.5 79t-24.5 108.5q0 58 24.5 108t69.5 79.5t104 29.5q51 0 86 -20.5t49 -45.5v54h173v-618h-171v270zM227 147q24 -24 58 -24q36 0 58.5 23.5t22.5 58.5t-23 59t-58 24q-34 0 -58 -24t-24 -59
q0 -34 24 -58z" />
    <glyph glyph-name="r" unicode="r" horiz-adv-x="412" 
d="M374 414.5q23 -7.5 40 -18.5l-66 -140q-10 12 -28 20t-42 8q-41 0 -62 -26t-21 -59v-199h-173v410h173v-55q14 25 47 46t83 21q26 0 49 -7.5z" />
    <glyph glyph-name="s" unicode="s" horiz-adv-x="439" 
d="M338 409q49 -13 62 -22l-55 -101q-13 9 -38 18.5t-54 9.5q-48 0 -48 -22q0 -11 15.5 -18.5t48.5 -13.5q55 -11 94.5 -39.5t39.5 -86.5q0 -81 -62.5 -113.5t-148.5 -32.5q-66 0 -109.5 15t-64.5 30l54 113q16 -13 44.5 -25.5t58.5 -12.5q28 0 43 6.5t15 18.5
q0 13 -14.5 20.5t-47.5 13.5q-51 10 -90.5 40.5t-39.5 89.5q0 60 56 92.5t136 32.5q56 0 105 -13z" />
    <glyph glyph-name="t" unicode="t" horiz-adv-x="374" 
d="M70 579h171v-169h88v-141h-88v-78q0 -25 7 -39t25 -14q10 0 20 5t12 8l58 -129q-12 -9 -53 -21.5t-89 -12.5q-69 0 -110 38t-41 111v132h-66v141h66v169z" />
    <glyph glyph-name="u" unicode="u" horiz-adv-x="560" 
d="M219.5 154.5q16.5 -24.5 53.5 -24.5q38 0 54.5 24.5t16.5 71.5v184h170v-202q0 -102 -63.5 -161t-177.5 -59t-177.5 59t-63.5 161v202h171v-184q0 -47 16.5 -71.5z" />
    <glyph glyph-name="v" unicode="v" horiz-adv-x="564" 
d="M276 157l87 253h185l-171 -410h-203l-171 410h185z" />
    <glyph glyph-name="w" unicode="w" horiz-adv-x="752" 
d="M121 0l-144 410h184l63 -198l91 190h109l91 -190l63 198h184l-143 -410h-156l-93 208l-93 -208h-156z" />
    <glyph glyph-name="x" unicode="x" horiz-adv-x="557" 
d="M352 0l-85 114l-86 -114h-178l174 208l-157 202h194l64 -93l68 93h174l-149 -189l173 -221h-192z" />
    <glyph glyph-name="y" unicode="y" horiz-adv-x="532" 
d="M529 410l-284 -618h-173l95 208l-172 410h173l90 -261l102 261h169z" />
    <glyph glyph-name="z" unicode="z" horiz-adv-x="459" 
d="M260 119h174v-119h-440l192 292h-157v118h423z" />
    <glyph glyph-name="braceleft" unicode="{" horiz-adv-x="371" 
d="M82.5 304.5q14.5 12.5 14.5 38.5v206q0 57 33 98t101 41h84v-125h-39q-23 0 -34 -11.5t-11 -35.5v-190q0 -35 -13.5 -54.5t-46.5 -31.5q34 -12 47 -32.5t13 -53.5v-190q0 -24 10.5 -35.5t34.5 -11.5h39v-125h-84q-68 0 -101 41t-33 98v206q0 26 -14.5 38.5t-39.5 12.5
v104q25 0 39.5 12.5z" />
    <glyph glyph-name="bar" unicode="|" horiz-adv-x="229" 
d="M35 688h154v-688h-154v688z" />
    <glyph glyph-name="braceright" unicode="}" horiz-adv-x="379" 
d="M275.5 175.5q-14.5 -12.5 -14.5 -38.5v-206q0 -57 -33 -98t-101 -41h-84v125h39q24 0 34.5 11.5t10.5 35.5v190q0 33 13 53.5t47 32.5q-33 12 -46.5 31.5t-13.5 54.5v190q0 24 -11 35.5t-34 11.5h-39v125h84q68 0 101 -41t33 -98v-206q0 -26 14.5 -38.5t39.5 -12.5v-104
q-25 0 -39.5 -12.5z" />
    <glyph glyph-name="asciitilde" unicode="~" horiz-adv-x="577" 
d="M454 273q-41 -33 -85 -33q-31 0 -54.5 10t-51.5 27q-19 11 -31 16.5t-23 5.5q-21 0 -41 -14.5t-35 -35.5l-94 62q30 48 71 81t85 33q31 0 55.5 -10t51.5 -28q17 -11 29 -16.5t24 -5.5q21 0 41 15t35 36l94 -62q-30 -48 -71 -81z" />
    <glyph glyph-name="exclamdown" unicode="&#xa1;" horiz-adv-x="301" 
d="M222 644q29 -29 29 -70t-29 -70t-70 -29t-70 29t-29 70t29 70t70 29t70 -29zM210 435l35 -462h-186l35 462h116z" />
    <glyph glyph-name="cent" unicode="&#xa2;" horiz-adv-x="409" 
d="M414 31q-15 -13 -45.5 -25.5t-70.5 -16.5v-92h-96v98q-83 16 -130 72.5t-47 138.5t47 137.5t130 72.5v93h96v-88q40 -4 71 -16t46 -24l-80 -117q-28 24 -64 24q-34 0 -57 -24t-23 -58q0 -35 23 -59t57 -24q22 0 38.5 7.5t25.5 16.5z" />
    <glyph glyph-name="sterling" unicode="&#xa3;" horiz-adv-x="616" 
d="M95.5 384.5q-12.5 38.5 -12.5 81.5q0 59 26.5 106t77.5 74t123 27q95 0 150.5 -45.5t71.5 -111.5l-139 -69q-4 38 -23 64.5t-53 26.5t-51 -21.5t-17 -57.5q0 -50 37 -139h125v-91h-104q3 -4 5.5 -16.5t2.5 -25.5q0 -29 -14 -50q7 0 25 -7q20 -7 33.5 -10.5t29.5 -3.5
t27 9t16.5 19.5t6.5 14.5l136 -49q-16 -51 -57.5 -86.5t-106.5 -35.5q-35 0 -63 5.5t-62 16.5q-31 9 -51 13.5t-44 4.5q-12 0 -22 -6t-15.5 -13t-5.5 -9h-120q0 42 18.5 75t49 52t66.5 19q6 10 9 20t3 26q0 20 -8 37h-124v91h83q-17 26 -29.5 64.5z" />
    <glyph glyph-name="yen" unicode="&#xa5;" horiz-adv-x="616" 
d="M442 358h101v-103h-157l-9 -17v-42h166v-103h-166v-93h-171v93h-165v103h165v42l-9 17h-156v103h100l-164 302h207l108 -228l107 228h206z" />
    <glyph glyph-name="brokenbar" unicode="&#xa6;" horiz-adv-x="229" 
d="M39 688h139v-266h-139v266zM39 266h139v-266h-139v266z" />
    <glyph glyph-name="section" unicode="&#xa7;" horiz-adv-x="534" 
d="M88.5 -176q-54.5 44 -70.5 108l151 39q7 -23 23.5 -38.5t43.5 -15.5q49 0 49 35q0 18 -27.5 35.5t-94.5 41.5q-76 26 -112 69t-36 106q0 34 19.5 66t47.5 55t54 32q-38 27 -60 64t-22 82q0 46 26 84.5t74.5 61.5t114.5 23q85 0 136 -43t66 -104l-147 -33
q-7 18 -20.5 30.5t-32.5 12.5q-20 0 -31.5 -8.5t-11.5 -21.5q0 -19 21 -35t85 -39q169 -60 169 -183q0 -101 -117 -153q78 -45 78 -141q0 -50 -27.5 -89.5t-79 -62t-121.5 -22.5q-93 0 -147.5 44zM185 277q-15 -17 -15 -39q0 -23 21.5 -39t63.5 -34q14 -5 32 -15
q61 16 61 62q0 33 -92 75l-32 14q-24 -7 -39 -24z" />
    <glyph glyph-name="dieresis" unicode="&#xa8;" horiz-adv-x="471" 
d="M183.5 615.5q23.5 -23.5 23.5 -56.5t-23.5 -56.5t-56.5 -23.5t-56.5 23.5t-23.5 56.5t23.5 56.5t56.5 23.5t56.5 -23.5zM387 615.5q23 -23.5 23 -56.5t-23 -56.5t-56 -23.5q-34 0 -57 23.5t-23 56.5t23 56.5t57 23.5q33 0 56 -23.5z" />
    <glyph glyph-name="copyright" unicode="&#xa9;" horiz-adv-x="743" 
d="M69 501q46 79 125 125t171 46t171 -46t125 -125t46 -171t-46 -171t-125 -125t-171 -46t-171 46t-125 125t-46 171t46 171zM154 208q33 -56 89 -89t122 -33t122 33t89 89t33 122t-33 122t-89 89t-122 33t-122 -33t-89 -89t-33 -122t33 -122zM435 389l37 77q-6 6 -33 16.5
t-69 10.5q-44 0 -83.5 -22t-63 -60t-23.5 -82t23.5 -81t63 -59t83.5 -22q29 0 56 7.5t46 18.5l-38 78q-18 -12 -44 -12q-28 0 -46.5 21t-18.5 50q0 28 18.5 49t46.5 21q19 0 45 -11z" />
    <glyph glyph-name="ordfeminine" unicode="&#xaa;" horiz-adv-x="427" 
d="M70 604q16 31 45 49.5t65 18.5q48 0 84 -30v22h96v-254h-96v28q-35 -35 -84 -35q-36 0 -65 18.5t-45 49t-16 66.5t16 67zM173 499q15 -15 39 -15q23 0 38 15t15 38t-15 38t-38 15t-38.5 -15.5t-15.5 -37.5q0 -23 15 -38z" />
    <glyph glyph-name="guillemotleft" unicode="&#xab;" horiz-adv-x="512" 
d="M19 222l159 205l83 -66l-107 -139l107 -138l-83 -65zM221 222l159 205l84 -66l-107 -139l107 -138l-84 -65z" />
    <glyph glyph-name="registered" unicode="&#xae;" horiz-adv-x="417" 
d="M291.5 647.5q41.5 -24.5 65.5 -65.5t24 -90q0 -48 -24 -89t-65.5 -65t-90.5 -24q-48 0 -89 24t-65 65t-24 89q0 49 24 90t65 65.5t89 24.5q49 0 90.5 -24.5zM291 403.5q37 36.5 37 88.5q0 53 -37 89.5t-90 36.5q-34 0 -62 -17t-45 -46t-17 -63t17 -62.5t45.5 -45.5
t61.5 -17q53 0 90 36.5zM250.5 497q-9.5 -12 -25.5 -18l62 -69h-53l-49 62v-62h-40v166h60q25 0 40 -13t15 -36q0 -18 -9.5 -30zM208 507q8 3 8 17t-8.5 17.5t-21.5 3.5h-1v-41h1q14 0 22 3z" />
    <glyph glyph-name="macron" unicode="&#xaf;" horiz-adv-x="461" 
d="M392 608v-106h-336v106h336z" />
    <glyph glyph-name="degree" unicode="&#xb0;" horiz-adv-x="313" 
d="M80.5 679q28.5 24 69.5 24t69 -24t28 -61q0 -38 -27 -62t-70 -24t-70.5 24t-27.5 62q0 37 28.5 61zM126 592q9 -11 24 -11q14 0 24 11t10 26t-10 25t-24 10t-23.5 -10t-9.5 -25t9 -26z" />
    <glyph glyph-name="plusminus" unicode="&#xb1;" horiz-adv-x="529" 
d="M188 330h-135v139h135v136h140v-136h135v-139h-135v-136h-140v136zM472 22h-427v140h427v-140z" />
    <glyph glyph-name="uni00B2" unicode="&#xb2;" horiz-adv-x="244" 
d="M92.5 600q-12.5 -16 -16.5 -27l-57 26q1 9 11.5 26t34 32t60.5 15q52 0 74.5 -27t22.5 -59q0 -30 -19.5 -56t-42 -42.5t-30.5 -19.5h90v-58h-190v53q34 21 80 58.5t46 65.5q0 29 -31 29q-20 0 -32.5 -16z" />
    <glyph glyph-name="uni00B3" unicode="&#xb3;" horiz-adv-x="221" 
d="M25 631q9 15 30 28.5t55 13.5q38 0 63 -20.5t25 -54.5q0 -19 -9 -33t-22 -18q16 -2 29 -18.5t13 -40.5q0 -38 -28.5 -63t-72.5 -25q-41 0 -66.5 20t-34.5 48l62 30q5 -16 15 -27.5t24 -11.5q16 0 25 8.5t9 22.5t-9.5 21.5t-24.5 7.5h-5v48h7q12 0 19.5 7t7.5 19t-7.5 19
t-20.5 7q-15 0 -25 -9.5t-14 -23.5l-54 26q0 4 9 19z" />
    <glyph glyph-name="acute" unicode="&#xb4;" horiz-adv-x="475" 
d="M276 677l79 -100l-196 -113l-49 68z" />
    <glyph glyph-name="paragraph" unicode="&#xb6;" horiz-adv-x="570" 
d="M436 569h-47v-569h-91v232h-85q-62 0 -110.5 29.5t-75.5 79.5t-27 109q0 60 26.5 107.5t75 75t111.5 27.5h314v-660h-91v569z" />
    <glyph glyph-name="periodcentered" unicode="&#xb7;" horiz-adv-x="291" 
d="M77 146q-29 29 -29 70t29 69.5t70 28.5t69.5 -28.5t28.5 -69.5t-28.5 -70t-69.5 -29t-70 29z" />
    <glyph glyph-name="cedilla" unicode="&#xb8;" horiz-adv-x="379" 
d="M205 -36q46 2 77 -20.5t31 -60.5q0 -46 -34 -73.5t-84 -27.5q-46 0 -80 13.5t-52 32.5l55 61q12 -13 28.5 -22.5t33.5 -9.5q16 0 25.5 7.5t9.5 20.5q0 16 -13 24t-32 8q-28 0 -39 -7l-5 5l38 106l58 -19z" />
    <glyph glyph-name="uni00B9" unicode="&#xb9;" horiz-adv-x="130" 
d="M80 660h29v-250h-64v168l-39 -20v61z" />
    <glyph glyph-name="ordmasculine" unicode="&#xba;" horiz-adv-x="435" 
d="M100 634q45 38 112 38q66 0 110 -38t44 -97t-43.5 -96.5t-110.5 -37.5q-71 0 -114 37.5t-43 96.5t45 97zM172.5 499.5q14.5 -14.5 38.5 -14.5t38.5 14.5t14.5 37.5t-15 37.5t-38 14.5t-38 -14.5t-15 -37.5t14.5 -37.5z" />
    <glyph glyph-name="guillemotright" unicode="&#xbb;" horiz-adv-x="512" 
d="M146 222l-107 139l84 66l159 -205l-159 -203l-84 65zM349 222l-107 139l83 66l159 -205l-159 -203l-83 65z" />
    <glyph glyph-name="onequarter" unicode="&#xbc;" horiz-adv-x="712" 
d="M162 662h46v-387h-101v260l-59 -31v95zM107 0l384 660h102l-384 -660h-102zM677 81h-44v-81h-100v81h-157v70l149 234h108v-218h44v-86zM475 167h58v94h-1z" />
    <glyph glyph-name="onehalf" unicode="&#xbd;" horiz-adv-x="769" 
d="M151 662h46v-387h-101v260l-59 -31v95zM99 0l384 660h102l-384 -660h-102zM537.5 284q-18.5 -23 -25.5 -41l-85 40q2 13 18 39t51 48t90 22q54 0 87 -20.5t46.5 -50t13.5 -58.5q0 -46 -30 -85t-63 -63.5t-46 -29.5h136v-87h-286v79q60 40 124 93t64 95t-46 42
q-30 0 -48.5 -23z" />
    <glyph glyph-name="threequarters" unicode="&#xbe;" horiz-adv-x="772" 
d="M54.5 611.5q13.5 22.5 44 42t79.5 19.5q56 0 92.5 -30.5t36.5 -79.5q0 -27 -13.5 -47.5t-30.5 -26.5q23 -4 41.5 -28t18.5 -59q0 -56 -41.5 -92t-104.5 -36q-60 0 -98 29t-51 70l91 44q7 -24 21.5 -40.5t35.5 -16.5q22 0 35.5 12.5t13.5 33.5q0 20 -14 31t-35 11h-7v70h9
q18 0 29.5 10t11.5 27t-11.5 27.5t-30.5 10.5q-22 0 -36 -13.5t-20 -33.5l-80 37q0 6 13.5 28.5zM164 0l384 660h102l-384 -660h-102zM721 81h-44v-81h-100v81h-157v70l149 234h108v-218h44v-86zM519 167h58v94h-1z" />
    <glyph glyph-name="questiondown" unicode="&#xbf;" horiz-adv-x="489" 
d="M323 642q29 -29 29 -70t-29 -70t-70 -29t-70.5 29t-29.5 70t29.5 70t70.5 29t70 -29zM270 254q-30 -16 -48.5 -34.5t-18.5 -43.5q0 -47 59 -47q52 0 77 68l140 -55q-2 -18 -27.5 -55.5t-78.5 -68.5t-133 -31q-63 0 -113.5 19.5t-79.5 56.5t-29 86q0 57 34.5 94.5
t83.5 67.5q25 14 35 33.5t10 50.5v38h149v-84q0 -63 -60 -95z" />
    <glyph glyph-name="Agrave" unicode="&#xc0;" horiz-adv-x="701" 
d="M689 0h-182l-46 124h-244l-46 -124h-183l267 660h168zM340 445h-2l-65 -173h132zM194 927l166 -145l-49 -68l-197 113z" />
    <glyph glyph-name="Aacute" unicode="&#xc1;" horiz-adv-x="701" 
d="M689 0h-182l-46 124h-244l-46 -124h-183l267 660h168zM340 445h-2l-65 -173h132zM425 926l79 -100l-196 -113l-49 68z" />
    <glyph glyph-name="Acircumflex" unicode="&#xc2;" horiz-adv-x="701" 
d="M689 0h-182l-46 124h-244l-46 -124h-183l267 660h168zM340 445h-2l-65 -173h132zM311 925l185 -136l-60 -79l-125 91l-126 -91l-59 79z" />
    <glyph glyph-name="Atilde" unicode="&#xc3;" horiz-adv-x="701" 
d="M689 0h-182l-46 124h-244l-46 -124h-183l267 660h168zM340 445h-2l-65 -173h132zM219.5 763q-8.5 -11 -13.5 -26h-86q11 61 39.5 104t73.5 43q22 0 40.5 -5t46.5 -15q37 -16 60 -16q12 0 21 10.5t14 25.5h86q-11 -61 -39.5 -104t-73.5 -43q-23 0 -41.5 5.5t-44.5 15.5
q-22 8 -35 12t-27 4q-12 0 -20.5 -11z" />
    <glyph glyph-name="Adieresis" unicode="&#xc4;" horiz-adv-x="701" 
d="M689 0h-182l-46 124h-244l-46 -124h-183l267 660h168zM340 445h-2l-65 -173h132zM264.5 865.5q23.5 -23.5 23.5 -56.5t-23.5 -56.5t-56.5 -23.5t-56.5 23.5t-23.5 56.5t23.5 56.5t56.5 23.5t56.5 -23.5zM468 865.5q23 -23.5 23 -56.5t-23 -56.5t-56 -23.5q-34 0 -57 23.5
t-23 56.5t23 56.5t57 23.5q33 0 56 -23.5z" />
    <glyph glyph-name="Aring" unicode="&#xc5;" horiz-adv-x="701" 
d="M689 0h-182l-46 124h-244l-46 -124h-183l267 660h168zM340 445h-2l-65 -173h132zM212.5 923q39.5 34 97.5 34q59 0 98 -34t39 -87t-38.5 -87t-98.5 -34q-61 0 -99 34t-38 87t39.5 87zM281.5 805.5q11.5 -12.5 28.5 -12.5t28.5 13t11.5 30t-12 29.5t-28 12.5t-28 -12.5
t-12 -29.5q0 -18 11.5 -30.5z" />
    <glyph glyph-name="AE" unicode="&#xc6;" horiz-adv-x="870" 
d="M563 511v-108h234v-144h-234v-110h235v-149h-406v124h-156l-63 -124h-185l352 660h458v-149h-235zM392 252v167l-92 -167h92z" />
    <glyph glyph-name="Ccedilla" unicode="&#xc7;" horiz-adv-x="592" 
d="M248.5 464q-51.5 -51 -51.5 -134q0 -82 51.5 -133.5t136.5 -51.5q97 0 148 37v-171q-22 -10 -64 -16.5t-84 -6.5q-30 0 -57 3l-12 -27q46 2 77 -20.5t31 -60.5q0 -46 -34 -73.5t-84 -27.5q-46 0 -80 13.5t-52 32.5l55 61q12 -13 28.5 -22.5t33.5 -9.5q16 0 25.5 7.5
t9.5 20.5q0 16 -13 24t-32 8q-28 0 -39 -7l-5 5l31 87q-118 30 -183 118.5t-65 209.5q0 96 45.5 174t128 123t191.5 45q99 0 148 -25v-172q-45 40 -148 40q-85 0 -136.5 -51z" />
    <glyph glyph-name="Egrave" unicode="&#xc8;" horiz-adv-x="517" 
d="M443 511h-235v-108h234v-144h-234v-110h235v-149h-406v660h406v-149zM119 927l166 -145l-49 -68l-197 113z" />
    <glyph glyph-name="Eacute" unicode="&#xc9;" horiz-adv-x="517" 
d="M443 511h-235v-108h234v-144h-234v-110h235v-149h-406v660h406v-149zM292 927l79 -100l-196 -113l-49 68z" />
    <glyph glyph-name="Ecircumflex" unicode="&#xca;" horiz-adv-x="517" 
d="M443 511h-235v-108h234v-144h-234v-110h235v-149h-406v660h406v-149zM236 925l185 -136l-60 -79l-125 91l-126 -91l-59 79z" />
    <glyph glyph-name="Edieresis" unicode="&#xcb;" horiz-adv-x="517" 
d="M443 511h-235v-108h234v-144h-234v-110h235v-149h-406v660h406v-149zM197.5 865.5q23.5 -23.5 23.5 -56.5t-23.5 -56.5t-56.5 -23.5t-56.5 23.5t-23.5 56.5t23.5 56.5t56.5 23.5t56.5 -23.5zM401 865.5q23 -23.5 23 -56.5t-23 -56.5t-56 -23.5q-34 0 -57 23.5t-23 56.5
t23 56.5t57 23.5q33 0 56 -23.5z" />
    <glyph glyph-name="Igrave" unicode="&#xcc;" horiz-adv-x="283" 
d="M212 0h-170v660h170v-660zM5 927l166 -145l-49 -68l-197 113z" />
    <glyph glyph-name="Iacute" unicode="&#xcd;" horiz-adv-x="283" 
d="M212 0h-170v660h170v-660zM207 927l79 -100l-196 -113l-49 68z" />
    <glyph glyph-name="Icircumflex" unicode="&#xce;" horiz-adv-x="283" 
d="M212 0h-170v660h170v-660zM123 925l185 -136l-60 -79l-125 91l-126 -91l-59 79z" />
    <glyph glyph-name="Idieresis" unicode="&#xcf;" horiz-adv-x="283" 
d="M212 0h-170v660h170v-660zM76.5 865.5q23.5 -23.5 23.5 -56.5t-23.5 -56.5t-56.5 -23.5t-56.5 23.5t-23.5 56.5t23.5 56.5t56.5 23.5t56.5 -23.5zM280 865.5q23 -23.5 23 -56.5t-23 -56.5t-56 -23.5q-34 0 -57 23.5t-23 56.5t23 56.5t57 23.5q33 0 56 -23.5z" />
    <glyph glyph-name="Eth" unicode="&#xd0;" horiz-adv-x="658" 
d="M436 617q78 -43 125 -118.5t47 -168.5q0 -94 -47.5 -169.5t-125 -118t-165.5 -42.5h-203v261h-57v138h57v261h203q88 0 166 -43zM339.5 175.5q39.5 24.5 61.5 66t22 88.5q0 48 -22 89t-61.5 65.5t-87.5 24.5h-15v-110h82v-138h-82v-110h15q48 0 87.5 24.5z" />
    <glyph glyph-name="Ntilde" unicode="&#xd1;" horiz-adv-x="690" 
d="M209 0h-171v660h180l228 -389h1v389h171v-660h-180l-228 391h-1v-391zM236.5 763q-8.5 -11 -13.5 -26h-86q11 61 39.5 104t73.5 43q22 0 40.5 -5t46.5 -15q37 -16 60 -16q12 0 21 10.5t14 25.5h86q-11 -61 -39.5 -104t-73.5 -43q-23 0 -41.5 5.5t-44.5 15.5q-22 8 -35 12
t-27 4q-12 0 -20.5 -11z" />
    <glyph glyph-name="Ograve" unicode="&#xd2;" horiz-adv-x="738" 
d="M65 503q45 78 123.5 123.5t173.5 45.5q97 0 175.5 -45.5t123 -123.5t44.5 -173t-43.5 -173t-122 -123.5t-177.5 -45.5q-101 0 -178.5 45t-120.5 123.5t-43 173.5t45 173zM218 238.5q21 -41.5 58.5 -66t85.5 -24.5t85.5 24.5t58.5 66t21 91.5t-21 92t-58.5 66.5
t-85.5 24.5t-85.5 -24.5t-58.5 -66.5t-21 -92t21 -91.5zM235 927l166 -145l-49 -68l-197 113z" />
    <glyph glyph-name="Oacute" unicode="&#xd3;" horiz-adv-x="738" 
d="M65 503q45 78 123.5 123.5t173.5 45.5q97 0 175.5 -45.5t123 -123.5t44.5 -173t-43.5 -173t-122 -123.5t-177.5 -45.5q-101 0 -178.5 45t-120.5 123.5t-43 173.5t45 173zM218 238.5q21 -41.5 58.5 -66t85.5 -24.5t85.5 24.5t58.5 66t21 91.5t-21 92t-58.5 66.5
t-85.5 24.5t-85.5 -24.5t-58.5 -66.5t-21 -92t21 -91.5zM436 927l79 -100l-196 -113l-49 68z" />
    <glyph glyph-name="Ocircumflex" unicode="&#xd4;" horiz-adv-x="738" 
d="M65 503q45 78 123.5 123.5t173.5 45.5q97 0 175.5 -45.5t123 -123.5t44.5 -173t-43.5 -173t-122 -123.5t-177.5 -45.5q-101 0 -178.5 45t-120.5 123.5t-43 173.5t45 173zM218 238.5q21 -41.5 58.5 -66t85.5 -24.5t85.5 24.5t58.5 66t21 91.5t-21 92t-58.5 66.5
t-85.5 24.5t-85.5 -24.5t-58.5 -66.5t-21 -92t21 -91.5zM353 926l185 -136l-60 -79l-125 91l-126 -91l-59 79z" />
    <glyph glyph-name="Otilde" unicode="&#xd5;" horiz-adv-x="738" 
d="M65 503q45 78 123.5 123.5t173.5 45.5q97 0 175.5 -45.5t123 -123.5t44.5 -173t-43.5 -173t-122 -123.5t-177.5 -45.5q-101 0 -178.5 45t-120.5 123.5t-43 173.5t45 173zM218 238.5q21 -41.5 58.5 -66t85.5 -24.5t85.5 24.5t58.5 66t21 91.5t-21 92t-58.5 66.5
t-85.5 24.5t-85.5 -24.5t-58.5 -66.5t-21 -92t21 -91.5zM260.5 763q-8.5 -11 -13.5 -26h-86q11 61 39.5 104t73.5 43q22 0 40.5 -5t46.5 -15q37 -16 60 -16q12 0 21 10.5t14 25.5h86q-11 -61 -39.5 -104t-73.5 -43q-23 0 -41.5 5.5t-44.5 15.5q-22 8 -35 12t-27 4
q-12 0 -20.5 -11z" />
    <glyph glyph-name="Odieresis" unicode="&#xd6;" horiz-adv-x="738" 
d="M65 503q45 78 123.5 123.5t173.5 45.5q97 0 175.5 -45.5t123 -123.5t44.5 -173t-43.5 -173t-122 -123.5t-177.5 -45.5q-101 0 -178.5 45t-120.5 123.5t-43 173.5t45 173zM218 238.5q21 -41.5 58.5 -66t85.5 -24.5t85.5 24.5t58.5 66t21 91.5t-21 92t-58.5 66.5
t-85.5 24.5t-85.5 -24.5t-58.5 -66.5t-21 -92t21 -91.5zM307.5 865.5q23.5 -23.5 23.5 -56.5t-23.5 -56.5t-56.5 -23.5t-56.5 23.5t-23.5 56.5t23.5 56.5t56.5 23.5t56.5 -23.5zM511 865.5q23 -23.5 23 -56.5t-23 -56.5t-56 -23.5q-34 0 -57 23.5t-23 56.5t23 56.5t57 23.5
q33 0 56 -23.5z" />
    <glyph glyph-name="multiply" unicode="&#xd7;" horiz-adv-x="521" 
d="M370 119l-115 115l-115 -115l-99 100l114 113l-114 115l99 98l114 -114l115 114l99 -99l-115 -115l115 -114z" />
    <glyph glyph-name="Oslash" unicode="&#xd8;" horiz-adv-x="738" 
d="M625 554q38 -46 59 -103.5t21 -120.5q0 -95 -43.5 -173t-122 -123.5t-177.5 -45.5q-124 0 -214 69l-92 -95l-58 52l94 98q-35 45 -53.5 100.5t-18.5 117.5q0 95 45 173t123.5 123.5t173.5 45.5q58 0 110.5 -17t95.5 -48l82 85l58 -52zM217 241l235 245q-40 27 -90 27
q-48 0 -85.5 -24.5t-58.5 -66.5t-21 -92q0 -47 20 -89zM504 427l-238 -247q42 -32 96 -32q48 0 85.5 24.5t58.5 66t21 91.5q0 54 -23 97z" />
    <glyph glyph-name="Ugrave" unicode="&#xd9;" horiz-adv-x="635" 
d="M579 256q0 -124 -71.5 -196t-199.5 -72t-199.5 72t-71.5 196v404h171v-395q0 -61 25.5 -91.5t74.5 -30.5t74.5 30.5t25.5 91.5v395h171v-404zM188 928l166 -145l-49 -68l-197 113z" />
    <glyph glyph-name="Uacute" unicode="&#xda;" horiz-adv-x="635" 
d="M579 256q0 -124 -71.5 -196t-199.5 -72t-199.5 72t-71.5 196v404h171v-395q0 -61 25.5 -91.5t74.5 -30.5t74.5 30.5t25.5 91.5v395h171v-404zM372 927l79 -100l-196 -113l-49 68z" />
    <glyph glyph-name="Ucircumflex" unicode="&#xdb;" horiz-adv-x="635" 
d="M579 256q0 -124 -71.5 -196t-199.5 -72t-199.5 72t-71.5 196v404h171v-395q0 -61 25.5 -91.5t74.5 -30.5t74.5 30.5t25.5 91.5v395h171v-404zM304 927l185 -136l-60 -79l-125 91l-126 -91l-59 79z" />
    <glyph glyph-name="Udieresis" unicode="&#xdc;" horiz-adv-x="635" 
d="M579 256q0 -124 -71.5 -196t-199.5 -72t-199.5 72t-71.5 196v404h171v-395q0 -61 25.5 -91.5t74.5 -30.5t74.5 30.5t25.5 91.5v395h171v-404zM254.5 861.5q23.5 -23.5 23.5 -56.5t-23.5 -56.5t-56.5 -23.5t-56.5 23.5t-23.5 56.5t23.5 56.5t56.5 23.5t56.5 -23.5z
M458 861.5q23 -23.5 23 -56.5t-23 -56.5t-56 -23.5q-34 0 -57 23.5t-23 56.5t23 56.5t57 23.5q33 0 56 -23.5z" />
    <glyph glyph-name="Yacute" unicode="&#xdd;" horiz-adv-x="616" 
d="M184 660l108 -228l107 228h206l-228 -422v-238h-171v238l-229 422h207zM360 926l79 -100l-196 -113l-49 68z" />
    <glyph glyph-name="Thorn" unicode="&#xde;" horiz-adv-x="563" 
d="M207 538h89q99 0 163 -52.5t64 -151.5q0 -66 -30 -114t-81.5 -73t-115.5 -25h-89v-122h-170v660h170v-122zM316 275.5q20 19.5 20 56.5q0 36 -20 54t-55 18h-54v-148h54q35 0 55 19.5z" />
    <glyph glyph-name="germandbls" unicode="&#xdf;" horiz-adv-x="581" 
d="M344.5 155.5q24.5 23.5 24.5 64.5q0 43 -23 64.5t-63 21.5v119q29 0 52.5 20.5t23.5 53.5q0 67 -68 67q-35 0 -55 -26t-20 -69v-471h-159v455q0 77 29.5 132.5t82 84t120.5 28.5q102 0 161 -50.5t59 -141.5q0 -47 -23.5 -84t-60.5 -55q51 -14 82.5 -55.5t31.5 -106.5
q0 -62 -34 -112t-93 -78.5t-129 -28.5v144q37 0 61.5 23.5z" />
    <glyph glyph-name="agrave" unicode="&#xe0;" horiz-adv-x="565" 
d="M328.5 32.5q-18.5 -17.5 -47.5 -31t-64 -13.5q-59 0 -104 29.5t-69.5 79t-24.5 108.5q0 58 24.5 108t69.5 79.5t104 29.5q50 0 85.5 -20.5t49.5 -45.5v54h173v-410h-172v62q-6 -12 -24.5 -29.5zM212 146.5q24 -23.5 59 -23.5t58 23.5t23 58.5t-23 59t-58 24t-59 -24
t-24 -59t24 -58.5zM165 677l166 -145l-49 -68l-197 113z" />
    <glyph glyph-name="aacute" unicode="&#xe1;" horiz-adv-x="565" 
d="M328.5 32.5q-18.5 -17.5 -47.5 -31t-64 -13.5q-59 0 -104 29.5t-69.5 79t-24.5 108.5q0 58 24.5 108t69.5 79.5t104 29.5q50 0 85.5 -20.5t49.5 -45.5v54h173v-410h-172v62q-6 -12 -24.5 -29.5zM212 146.5q24 -23.5 59 -23.5t58 23.5t23 58.5t-23 59t-58 24t-59 -24
t-24 -59t24 -58.5zM388 677l79 -100l-196 -113l-49 68z" />
    <glyph glyph-name="acircumflex" unicode="&#xe2;" horiz-adv-x="565" 
d="M328.5 32.5q-18.5 -17.5 -47.5 -31t-64 -13.5q-59 0 -104 29.5t-69.5 79t-24.5 108.5q0 58 24.5 108t69.5 79.5t104 29.5q50 0 85.5 -20.5t49.5 -45.5v54h173v-410h-172v62q-6 -12 -24.5 -29.5zM212 146.5q24 -23.5 59 -23.5t58 23.5t23 58.5t-23 59t-58 24t-59 -24
t-24 -59t24 -58.5zM273 675l185 -136l-60 -79l-125 91l-126 -91l-59 79z" />
    <glyph glyph-name="atilde" unicode="&#xe3;" horiz-adv-x="565" 
d="M328.5 32.5q-18.5 -17.5 -47.5 -31t-64 -13.5q-59 0 -104 29.5t-69.5 79t-24.5 108.5q0 58 24.5 108t69.5 79.5t104 29.5q50 0 85.5 -20.5t49.5 -45.5v54h173v-410h-172v62q-6 -12 -24.5 -29.5zM212 146.5q24 -23.5 59 -23.5t58 23.5t23 58.5t-23 59t-58 24t-59 -24
t-24 -59t24 -58.5zM165.5 513q-8.5 -11 -13.5 -26h-86q11 61 39.5 104t73.5 43q22 0 40.5 -5t46.5 -15q37 -16 60 -16q12 0 21 10.5t14 25.5h86q-11 -61 -39.5 -104t-73.5 -43q-23 0 -41.5 5.5t-44.5 15.5q-22 8 -35 12t-27 4q-12 0 -20.5 -11z" />
    <glyph glyph-name="adieresis" unicode="&#xe4;" horiz-adv-x="565" 
d="M328.5 32.5q-18.5 -17.5 -47.5 -31t-64 -13.5q-59 0 -104 29.5t-69.5 79t-24.5 108.5q0 58 24.5 108t69.5 79.5t104 29.5q50 0 85.5 -20.5t49.5 -45.5v54h173v-410h-172v62q-6 -12 -24.5 -29.5zM212 146.5q24 -23.5 59 -23.5t58 23.5t23 58.5t-23 59t-58 24t-59 -24
t-24 -59t24 -58.5zM221.5 615.5q23.5 -23.5 23.5 -56.5t-23.5 -56.5t-56.5 -23.5t-56.5 23.5t-23.5 56.5t23.5 56.5t56.5 23.5t56.5 -23.5zM425 615.5q23 -23.5 23 -56.5t-23 -56.5t-56 -23.5q-34 0 -57 23.5t-23 56.5t23 56.5t57 23.5q33 0 56 -23.5z" />
    <glyph glyph-name="aring" unicode="&#xe5;" horiz-adv-x="565" 
d="M328.5 32.5q-18.5 -17.5 -47.5 -31t-64 -13.5q-59 0 -104 29.5t-69.5 79t-24.5 108.5q0 58 24.5 108t69.5 79.5t104 29.5q50 0 85.5 -20.5t49.5 -45.5v54h173v-410h-172v62q-6 -12 -24.5 -29.5zM212 146.5q24 -23.5 59 -23.5t58 23.5t23 58.5t-23 59t-58 24t-59 -24
t-24 -59t24 -58.5zM173.5 673q39.5 34 97.5 34q59 0 98 -34t39 -87t-38.5 -87t-98.5 -34q-61 0 -99 34t-38 87t39.5 87zM242.5 555.5q11.5 -12.5 28.5 -12.5t28.5 13t11.5 30t-12 29.5t-28 12.5t-28 -12.5t-12 -29.5q0 -18 11.5 -30.5z" />
    <glyph glyph-name="ae" unicode="&#xe6;" horiz-adv-x="804" 
d="M79 26q-43 38 -43 102q0 35 22 64.5t60.5 47t87.5 17.5q67 0 104 -27v9q0 27 -25 46t-77 19q-36 0 -67 -8t-51 -19l-68 108q30 15 82 26t117 11q57 0 102.5 -19t62.5 -48q27 27 69.5 47t91.5 20q101 0 161.5 -54t60.5 -163l-1 -21h-297q0 -25 15 -41t35 -23t35 -7
q30 0 60 11.5t48 28.5l91 -97q-80 -68 -208 -68q-52 0 -97.5 21t-73.5 56q-4 -8 -24 -26t-60.5 -34.5t-100.5 -16.5q-69 0 -112 38zM551 323q-29 0 -50.5 -16t-25.5 -39h142q-14 55 -66 55zM260.5 98q14.5 14 14.5 32q0 19 -14 31.5t-34 12.5q-19 0 -33.5 -12.5t-14.5 -32.5
q0 -19 13.5 -31.5t33.5 -13.5q20 0 34.5 14z" />
    <glyph glyph-name="ccedilla" unicode="&#xe7;" horiz-adv-x="409" 
d="M233 -10l-12 -26q46 2 77 -20.5t31 -60.5q0 -46 -34 -73.5t-84 -27.5q-46 0 -80 13.5t-52 32.5l55 61q12 -13 28.5 -22.5t33.5 -9.5q16 0 25.5 7.5t9.5 20.5q0 16 -13 24t-32 8q-28 0 -39 -7l-5 5l31 87q-70 23 -109 76.5t-39 127.5q0 65 30 113.5t85 75.5t130 27
q49 0 88.5 -13t56.5 -28l-80 -117q-28 24 -64 24q-34 0 -57 -24t-23 -58q0 -35 23 -59t57 -24q22 0 38.5 7.5t25.5 16.5l79 -116q-18 -16 -56 -29.5t-88 -13.5q-13 0 -37 2z" />
    <glyph glyph-name="egrave" unicode="&#xe8;" horiz-adv-x="507" 
d="M208 132.5q22 -19.5 58 -19.5t71 11t56 26l72 -109q-57 -53 -205 -53q-108 0 -175 57t-67 165q0 60 27.5 108t79.5 76t121 28q105 0 165.5 -56t60.5 -165q0 -17 -2 -22h-287q3 -27 25 -46.5zM290.5 292.5q-15.5 17.5 -41.5 17.5q-27 0 -44 -17t-18 -47h121
q-2 29 -17.5 46.5zM128 677l166 -145l-49 -68l-197 113z" />
    <glyph glyph-name="eacute" unicode="&#xe9;" horiz-adv-x="507" 
d="M208 132.5q22 -19.5 58 -19.5t71 11t56 26l72 -109q-57 -53 -205 -53q-108 0 -175 57t-67 165q0 60 27.5 108t79.5 76t121 28q105 0 165.5 -56t60.5 -165q0 -17 -2 -22h-287q3 -27 25 -46.5zM290.5 292.5q-15.5 17.5 -41.5 17.5q-27 0 -44 -17t-18 -47h121
q-2 29 -17.5 46.5zM354 677l79 -100l-196 -113l-49 68z" />
    <glyph glyph-name="ecircumflex" unicode="&#xea;" horiz-adv-x="507" 
d="M208 132.5q22 -19.5 58 -19.5t71 11t56 26l72 -109q-57 -53 -205 -53q-108 0 -175 57t-67 165q0 60 27.5 108t79.5 76t121 28q105 0 165.5 -56t60.5 -165q0 -17 -2 -22h-287q3 -27 25 -46.5zM290.5 292.5q-15.5 17.5 -41.5 17.5q-27 0 -44 -17t-18 -47h121
q-2 29 -17.5 46.5zM236 675l185 -136l-60 -79l-125 91l-126 -91l-59 79z" />
    <glyph glyph-name="edieresis" unicode="&#xeb;" horiz-adv-x="507" 
d="M208 132.5q22 -19.5 58 -19.5t71 11t56 26l72 -109q-57 -53 -205 -53q-108 0 -175 57t-67 165q0 60 27.5 108t79.5 76t121 28q105 0 165.5 -56t60.5 -165q0 -17 -2 -22h-287q3 -27 25 -46.5zM290.5 292.5q-15.5 17.5 -41.5 17.5q-27 0 -44 -17t-18 -47h121
q-2 29 -17.5 46.5zM189.5 615.5q23.5 -23.5 23.5 -56.5t-23.5 -56.5t-56.5 -23.5t-56.5 23.5t-23.5 56.5t23.5 56.5t56.5 23.5t56.5 -23.5zM393 615.5q23 -23.5 23 -56.5t-23 -56.5t-56 -23.5q-34 0 -57 23.5t-23 56.5t23 56.5t57 23.5q33 0 56 -23.5z" />
    <glyph glyph-name="igrave" unicode="&#xec;" horiz-adv-x="226" 
d="M187 410v-410h-161v410h161zM6 677l166 -145l-49 -68l-197 113z" />
    <glyph glyph-name="iacute" unicode="&#xed;" horiz-adv-x="226" 
d="M187 410v-410h-161v410h161zM197 677l79 -100l-196 -113l-49 68z" />
    <glyph glyph-name="icircumflex" unicode="&#xee;" horiz-adv-x="226" 
d="M187 410v-410h-161v410h161zM104 675l185 -136l-60 -79l-125 91l-126 -91l-59 79z" />
    <glyph glyph-name="idieresis" unicode="&#xef;" horiz-adv-x="226" 
d="M187 410v-410h-161v410h161zM57.5 615.5q23.5 -23.5 23.5 -56.5t-23.5 -56.5t-56.5 -23.5t-56.5 23.5t-23.5 56.5t23.5 56.5t56.5 23.5t56.5 -23.5zM261 615.5q23 -23.5 23 -56.5t-23 -56.5t-56 -23.5q-34 0 -57 23.5t-23 56.5t23 56.5t57 23.5q33 0 56 -23.5z" />
    <glyph glyph-name="eth" unicode="&#xf0;" horiz-adv-x="563" 
d="M61.5 318q32.5 50 81.5 77.5t94 26.5q50 0 71.5 -7t32.5 -19q-8 25 -32 58t-49 49l-75 -73l-67 67l46 47q-47 22 -87 31l37 135q70 -16 158 -59l56 54l65 -69l-38 -37q176 -132 176 -394q0 -62 -32.5 -111.5t-89.5 -77.5t-127 -28q-74 0 -131.5 27.5t-89.5 77t-32 112.5
t32.5 113zM222.5 147q22.5 -23 57.5 -23q33 0 57 23.5t24 57.5v4q-1 32 -25.5 55t-55.5 23q-33 0 -56.5 -23.5t-23.5 -58.5t22.5 -58z" />
    <glyph glyph-name="ntilde" unicode="&#xf1;" horiz-adv-x="562" 
d="M426.5 403.5q41.5 -18.5 67.5 -57.5t26 -98v-248h-173v221q0 38 -18.5 59t-49.5 21t-53.5 -23.5t-22.5 -59.5v-218h-173v410h173v-55q10 25 49 46t86 21t88.5 -18.5zM175.5 513q-8.5 -11 -13.5 -26h-86q11 61 39.5 104t73.5 43q22 0 40.5 -5t46.5 -15q37 -16 60 -16
q12 0 21 10.5t14 25.5h86q-11 -61 -39.5 -104t-73.5 -43q-23 0 -41.5 5.5t-44.5 15.5q-22 8 -35 12t-27 4q-12 0 -20.5 -11z" />
    <glyph glyph-name="ograve" unicode="&#xf2;" horiz-adv-x="509" 
d="M132.5 15.5q-53.5 27.5 -84 76.5t-30.5 112t30.5 112.5t84 77.5t121.5 28t121 -28t82.5 -77.5t29.5 -112.5t-29.5 -112t-82.5 -76.5t-121 -27.5t-121.5 27.5zM304.5 150.5q18.5 20.5 18.5 54.5t-18.5 55t-50.5 21t-51 -21t-19 -55t19 -54.5t51 -20.5t50.5 20.5zM144 677
l166 -145l-49 -68l-197 113z" />
    <glyph glyph-name="oacute" unicode="&#xf3;" horiz-adv-x="509" 
d="M132.5 15.5q-53.5 27.5 -84 76.5t-30.5 112t30.5 112.5t84 77.5t121.5 28t121 -28t82.5 -77.5t29.5 -112.5t-29.5 -112t-82.5 -76.5t-121 -27.5t-121.5 27.5zM304.5 150.5q18.5 20.5 18.5 54.5t-18.5 55t-50.5 21t-51 -21t-19 -55t19 -54.5t51 -20.5t50.5 20.5zM297 677
l79 -100l-196 -113l-49 68z" />
    <glyph glyph-name="ocircumflex" unicode="&#xf4;" horiz-adv-x="509" 
d="M132.5 15.5q-53.5 27.5 -84 76.5t-30.5 112t30.5 112.5t84 77.5t121.5 28t121 -28t82.5 -77.5t29.5 -112.5t-29.5 -112t-82.5 -76.5t-121 -27.5t-121.5 27.5zM304.5 150.5q18.5 20.5 18.5 54.5t-18.5 55t-50.5 21t-51 -21t-19 -55t19 -54.5t51 -20.5t50.5 20.5zM244 675
l185 -136l-60 -79l-125 91l-126 -91l-59 79z" />
    <glyph glyph-name="otilde" unicode="&#xf5;" horiz-adv-x="509" 
d="M132.5 15.5q-53.5 27.5 -84 76.5t-30.5 112t30.5 112.5t84 77.5t121.5 28t121 -28t82.5 -77.5t29.5 -112.5t-29.5 -112t-82.5 -76.5t-121 -27.5t-121.5 27.5zM304.5 150.5q18.5 20.5 18.5 54.5t-18.5 55t-50.5 21t-51 -21t-19 -55t19 -54.5t51 -20.5t50.5 20.5z
M156.5 513q-8.5 -11 -13.5 -26h-86q11 61 39.5 104t73.5 43q22 0 40.5 -5t46.5 -15q37 -16 60 -16q12 0 21 10.5t14 25.5h86q-11 -61 -39.5 -104t-73.5 -43q-23 0 -41.5 5.5t-44.5 15.5q-22 8 -35 12t-27 4q-12 0 -20.5 -11z" />
    <glyph glyph-name="odieresis" unicode="&#xf6;" horiz-adv-x="509" 
d="M132.5 15.5q-53.5 27.5 -84 76.5t-30.5 112t30.5 112.5t84 77.5t121.5 28t121 -28t82.5 -77.5t29.5 -112.5t-29.5 -112t-82.5 -76.5t-121 -27.5t-121.5 27.5zM304.5 150.5q18.5 20.5 18.5 54.5t-18.5 55t-50.5 21t-51 -21t-19 -55t19 -54.5t51 -20.5t50.5 20.5z
M194.5 615.5q23.5 -23.5 23.5 -56.5t-23.5 -56.5t-56.5 -23.5t-56.5 23.5t-23.5 56.5t23.5 56.5t56.5 23.5t56.5 -23.5zM398 615.5q23 -23.5 23 -56.5t-23 -56.5t-56 -23.5q-34 0 -57 23.5t-23 56.5t23 56.5t57 23.5q33 0 56 -23.5z" />
    <glyph glyph-name="divide" unicode="&#xf7;" horiz-adv-x="523" 
d="M303.5 565q20.5 -21 20.5 -50t-20.5 -49t-49.5 -20q-28 0 -48.5 20.5t-20.5 48.5q0 30 20 50.5t49 20.5t49.5 -21zM465 402v-140h-419v140h419zM303.5 196.5q20.5 -20.5 20.5 -50.5q0 -28 -20.5 -48t-49.5 -20q-28 0 -48.5 20t-20.5 48q0 30 20 50.5t49 20.5t49.5 -20.5z
" />
    <glyph glyph-name="oslash" unicode="&#xf8;" horiz-adv-x="509" 
d="M473 284.5q14 -37.5 14 -80.5q0 -63 -29.5 -112t-82.5 -76.5t-121 -27.5q-79 0 -141 38l-49 -50l-45 38l50 51q-51 57 -51 139q0 63 30.5 112.5t84 77.5t121.5 28q77 0 132 -35l50 51l44 -38l-48 -49q27 -29 41 -66.5zM186 184l92 93q-9 4 -24 4q-32 0 -51 -21t-19 -55
q0 -7 2 -21zM304.5 150.5q18.5 20.5 18.5 54.5q0 15 -5 30l-96 -98q13 -7 32 -7q32 0 50.5 20.5z" />
    <glyph glyph-name="ugrave" unicode="&#xf9;" horiz-adv-x="560" 
d="M219.5 154.5q16.5 -24.5 53.5 -24.5q38 0 54.5 24.5t16.5 71.5v184h170v-202q0 -102 -63.5 -161t-177.5 -59t-177.5 59t-63.5 161v202h171v-184q0 -47 16.5 -71.5zM178 677l166 -145l-49 -68l-197 113z" />
    <glyph glyph-name="uacute" unicode="&#xfa;" horiz-adv-x="560" 
d="M219.5 154.5q16.5 -24.5 53.5 -24.5q38 0 54.5 24.5t16.5 71.5v184h170v-202q0 -102 -63.5 -161t-177.5 -59t-177.5 59t-63.5 161v202h171v-184q0 -47 16.5 -71.5zM310 677l79 -100l-196 -113l-49 68z" />
    <glyph glyph-name="ucircumflex" unicode="&#xfb;" horiz-adv-x="560" 
d="M219.5 154.5q16.5 -24.5 53.5 -24.5q38 0 54.5 24.5t16.5 71.5v184h170v-202q0 -102 -63.5 -161t-177.5 -59t-177.5 59t-63.5 161v202h171v-184q0 -47 16.5 -71.5zM263 675l185 -136l-60 -79l-125 91l-126 -91l-59 79z" />
    <glyph glyph-name="udieresis" unicode="&#xfc;" horiz-adv-x="560" 
d="M219.5 154.5q16.5 -24.5 53.5 -24.5q38 0 54.5 24.5t16.5 71.5v184h170v-202q0 -102 -63.5 -161t-177.5 -59t-177.5 59t-63.5 161v202h171v-184q0 -47 16.5 -71.5zM212.5 615.5q23.5 -23.5 23.5 -56.5t-23.5 -56.5t-56.5 -23.5t-56.5 23.5t-23.5 56.5t23.5 56.5
t56.5 23.5t56.5 -23.5zM416 615.5q23 -23.5 23 -56.5t-23 -56.5t-56 -23.5q-34 0 -57 23.5t-23 56.5t23 56.5t57 23.5q33 0 56 -23.5z" />
    <glyph glyph-name="yacute" unicode="&#xfd;" horiz-adv-x="532" 
d="M529 410l-284 -618h-173l95 208l-172 410h173l90 -261l102 261h169zM301 677l79 -100l-196 -113l-49 68z" />
    <glyph glyph-name="thorn" unicode="&#xfe;" horiz-adv-x="570" 
d="M443.5 392.5q46.5 -29.5 72.5 -79.5t26 -108q0 -59 -26 -108.5t-72.5 -79t-105.5 -29.5q-43 0 -77.5 21t-53.5 53v-270h-171v896h173v-332q14 26 46.5 46t82.5 20q59 0 105.5 -29.5zM348.5 146.5q23.5 23.5 23.5 58.5t-23.5 59t-58.5 24t-58 -24t-23 -59t22.5 -58.5
t58.5 -23.5q35 0 58.5 23.5z" />
    <glyph glyph-name="ydieresis" unicode="&#xff;" horiz-adv-x="532" 
d="M529 410l-284 -618h-173l95 208l-172 410h173l90 -261l102 261h169zM202.5 615.5q23.5 -23.5 23.5 -56.5t-23.5 -56.5t-56.5 -23.5t-56.5 23.5t-23.5 56.5t23.5 56.5t56.5 23.5t56.5 -23.5zM406 615.5q23 -23.5 23 -56.5t-23 -56.5t-56 -23.5q-34 0 -57 23.5t-23 56.5
t23 56.5t57 23.5q33 0 56 -23.5z" />
    <glyph glyph-name="Amacron" unicode="&#x100;" horiz-adv-x="701" 
d="M689 0h-182l-46 124h-244l-46 -124h-183l267 660h168zM340 445h-2l-65 -173h132zM478 858v-106h-336v106h336z" />
    <glyph glyph-name="amacron" unicode="&#x101;" horiz-adv-x="565" 
d="M328.5 32.5q-18.5 -17.5 -47.5 -31t-64 -13.5q-59 0 -104 29.5t-69.5 79t-24.5 108.5q0 58 24.5 108t69.5 79.5t104 29.5q50 0 85.5 -20.5t49.5 -45.5v54h173v-410h-172v62q-6 -12 -24.5 -29.5zM212 146.5q24 -23.5 59 -23.5t58 23.5t23 58.5t-23 59t-58 24t-59 -24
t-24 -59t24 -58.5zM440 608v-106h-336v106h336z" />
    <glyph glyph-name="Abreve" unicode="&#x102;" horiz-adv-x="701" 
d="M689 0h-182l-46 124h-244l-46 -124h-183l267 660h168zM340 445h-2l-65 -173h132zM445.5 791.5q-53.5 -42.5 -135.5 -42.5q-81 0 -134.5 42t-61.5 112l111 28q5 -36 26 -61t59 -25t59.5 25t26.5 61l111 -28q-8 -69 -61.5 -111.5z" />
    <glyph glyph-name="abreve" unicode="&#x103;" horiz-adv-x="565" 
d="M328.5 32.5q-18.5 -17.5 -47.5 -31t-64 -13.5q-59 0 -104 29.5t-69.5 79t-24.5 108.5q0 58 24.5 108t69.5 79.5t104 29.5q50 0 85.5 -20.5t49.5 -45.5v54h173v-410h-172v62q-6 -12 -24.5 -29.5zM212 146.5q24 -23.5 59 -23.5t58 23.5t23 58.5t-23 59t-58 24t-59 -24
t-24 -59t24 -58.5zM407.5 541.5q-53.5 -42.5 -135.5 -42.5q-81 0 -134.5 42t-61.5 112l111 28q5 -36 26 -61t59 -25t59.5 25t26.5 61l111 -28q-8 -69 -61.5 -111.5z" />
    <glyph glyph-name="Aogonek" unicode="&#x104;" horiz-adv-x="701" 
d="M585 -116l62 -46q-17 -24 -45.5 -41t-64.5 -17q-37 0 -68.5 23t-31.5 71q0 30 21.5 65.5t46.5 65.5l-44 119h-244l-46 -124h-183l267 660h168l266 -660h-121q-18 -24 -30.5 -54t-12.5 -57q0 -10 8 -18t16 -8q21 0 36 21zM405 272l-65 173h-2l-65 -173h132z" />
    <glyph glyph-name="aogonek" unicode="&#x105;" horiz-adv-x="565" 
d="M546 -162q-17 -24 -45.5 -41t-64.5 -17q-37 0 -68.5 23t-31.5 71q0 28 20 63t44 63h-47v62q-6 -12 -24.5 -29.5t-47.5 -31t-64 -13.5q-59 0 -104 29.5t-69.5 79t-24.5 108.5q0 58 24.5 108t69.5 79.5t104 29.5q50 0 85.5 -20.5t49.5 -45.5v54h173v-410h-58
q-18 -24 -30.5 -54t-12.5 -57q0 -10 8 -18t16 -8q21 0 36 21zM329 146.5q23 23.5 23 58.5t-23 59t-58 24t-59 -24t-24 -59t24 -58.5t59 -23.5t58 23.5z" />
    <glyph glyph-name="Cacute" unicode="&#x106;" horiz-adv-x="475" 
d="M276 927l79 -100l-196 -113l-49 68zM393 515q-85 0 -136.5 -51t-51.5 -134q0 -82 51.5 -133.5t136.5 -51.5q97 0 148 37v-171q-22 -10 -64 -16.5t-84 -6.5q-115 0 -197.5 44.5t-125 122.5t-42.5 175q0 96 45.5 174t128 123t191.5 45q99 0 148 -25v-172q-45 40 -148 40z
" />
    <glyph glyph-name="cacute" unicode="&#x107;" horiz-adv-x="409" 
d="M309.5 130.5q16.5 7.5 25.5 16.5l79 -116q-18 -16 -56 -29.5t-88 -13.5q-74 0 -129.5 27.5t-85.5 76.5t-30 114t30 113.5t85 75.5t130 27q49 0 88.5 -13t56.5 -28l-80 -117q-28 24 -64 24q-34 0 -57 -24t-23 -58q0 -35 23 -59t57 -24q22 0 38.5 7.5zM314 677l79 -100
l-196 -113l-49 68z" />
    <glyph glyph-name="Cdotaccent" unicode="&#x10a;" horiz-adv-x="592" 
d="M385 515q-85 0 -136.5 -51t-51.5 -134q0 -82 51.5 -133.5t136.5 -51.5q97 0 148 37v-171q-22 -10 -64 -16.5t-84 -6.5q-115 0 -197.5 44.5t-125 122.5t-42.5 175q0 96 45.5 174t128 123t191.5 45q99 0 148 -25v-172q-45 40 -148 40zM422 846.5q23 -23.5 23 -56.5
t-23 -56.5t-56 -23.5q-34 0 -57 23.5t-23 56.5t23 56.5t57 23.5q33 0 56 -23.5z" />
    <glyph glyph-name="cdotaccent" unicode="&#x10b;" horiz-adv-x="409" 
d="M309.5 130.5q16.5 7.5 25.5 16.5l79 -116q-18 -16 -56 -29.5t-88 -13.5q-74 0 -129.5 27.5t-85.5 76.5t-30 114t30 113.5t85 75.5t130 27q49 0 88.5 -13t56.5 -28l-80 -117q-28 24 -64 24q-34 0 -57 -24t-23 -58q0 -35 23 -59t57 -24q22 0 38.5 7.5zM284 615.5
q23 -23.5 23 -56.5t-23 -56.5t-56 -23.5q-34 0 -57 23.5t-23 56.5t23 56.5t57 23.5q33 0 56 -23.5z" />
    <glyph glyph-name="Ccaron" unicode="&#x10c;" horiz-adv-x="592" 
d="M385 515q-85 0 -136.5 -51t-51.5 -134q0 -82 51.5 -133.5t136.5 -51.5q97 0 148 37v-171q-22 -10 -64 -16.5t-84 -6.5q-115 0 -197.5 44.5t-125 122.5t-42.5 175q0 96 45.5 174t128 123t191.5 45q99 0 148 -25v-172q-45 40 -148 40zM343 839l125 92l60 -79l-185 -136
l-185 136l59 80z" />
    <glyph glyph-name="ccaron" unicode="&#x10d;" horiz-adv-x="409" 
d="M309.5 130.5q16.5 7.5 25.5 16.5l79 -116q-18 -16 -56 -29.5t-88 -13.5q-74 0 -129.5 27.5t-85.5 76.5t-30 114t30 113.5t85 75.5t130 27q49 0 88.5 -13t56.5 -28l-80 -117q-28 24 -64 24q-34 0 -57 -24t-23 -58q0 -35 23 -59t57 -24q22 0 38.5 7.5zM222 589l125 92
l60 -79l-185 -136l-185 136l59 80z" />
    <glyph glyph-name="Dcaron" unicode="&#x10e;" horiz-adv-x="611" 
d="M425.5 618q70.5 -42 106 -116t35.5 -172t-35.5 -172t-106 -116t-173.5 -42h-212v660h212q103 0 173.5 -42zM237 151q71 0 110 50t39 129t-38.5 129t-110.5 50h-27v-358h27zM287 839l125 92l60 -79l-185 -136l-185 136l59 80z" />
    <glyph glyph-name="dcaron" unicode="&#x10f;" horiz-adv-x="635" 
d="M687 672q19 -20 19 -56q0 -46 -28.5 -90.5t-68.5 -67.5l-30 34q24 13 43.5 32.5t26.5 40.5q-7 -4 -19 -4q-24 0 -40.5 17.5t-16.5 46.5q0 28 19.5 47.5t46.5 19.5q29 0 48 -20zM352 62q-19 -32 -53.5 -53t-77.5 -21q-59 0 -105.5 29.5t-72.5 79t-26 108.5q0 58 26 108
t72.5 79.5t105.5 29.5q50 0 82.5 -20t46.5 -46v332h173v-688h-171v62zM210.5 146.5q23.5 -23.5 58.5 -23.5q36 0 58.5 23.5t22.5 58.5t-23 59t-58 24t-58.5 -24t-23.5 -59t23.5 -58.5z" />
    <glyph glyph-name="Dcroat" unicode="&#x110;" horiz-adv-x="658" 
d="M10 261v138h57v261h203q87 0 165 -43t125.5 -118.5t47.5 -168.5t-47 -168.5t-125 -118.5t-166 -43h-203v261h-57zM339.5 175.5q39.5 24.5 61.5 65t22 88.5q0 49 -22 90.5t-61.5 65.5t-87.5 24h-15v-110h82v-138h-82v-110h15q48 0 87.5 24.5z" />
    <glyph glyph-name="dcroat" unicode="&#x111;" horiz-adv-x="570" 
d="M572 499h-49v-499h-171v62q-19 -32 -53.5 -53t-77.5 -21q-59 0 -105.5 29.5t-72.5 79t-26 108.5q0 58 26 108t72.5 79.5t105.5 29.5q50 0 82.5 -20t46.5 -46v143h-81v101h81v88h173v-88h49v-101zM327.5 146.5q22.5 23.5 22.5 58.5t-23 59t-58 24t-58.5 -24t-23.5 -59
t23.5 -58.5t58.5 -23.5q36 0 58.5 23.5z" />
    <glyph glyph-name="Emacron" unicode="&#x112;" horiz-adv-x="517" 
d="M443 511h-235v-108h234v-144h-234v-110h235v-149h-406v660h406v-149zM403 858v-106h-336v106h336z" />
    <glyph glyph-name="emacron" unicode="&#x113;" horiz-adv-x="507" 
d="M208 132.5q22 -19.5 58 -19.5t71 11t56 26l72 -109q-57 -53 -205 -53q-108 0 -175 57t-67 165q0 60 27.5 108t79.5 76t121 28q105 0 165.5 -56t60.5 -165q0 -17 -2 -22h-287q3 -27 25 -46.5zM290.5 292.5q-15.5 17.5 -41.5 17.5q-27 0 -44 -17t-18 -47h121
q-2 29 -17.5 46.5zM406 608v-106h-336v106h336z" />
    <glyph glyph-name="Edotaccent" unicode="&#x116;" horiz-adv-x="517" 
d="M443 511h-235v-108h234v-144h-234v-110h235v-149h-406v660h406v-149zM291 865.5q23 -23.5 23 -56.5t-23 -56.5t-56 -23.5q-34 0 -57 23.5t-23 56.5t23 56.5t57 23.5q33 0 56 -23.5z" />
    <glyph glyph-name="edotaccent" unicode="&#x117;" horiz-adv-x="507" 
d="M208 132.5q22 -19.5 58 -19.5t71 11t56 26l72 -109q-57 -53 -205 -53q-108 0 -175 57t-67 165q0 60 27.5 108t79.5 76t121 28q105 0 165.5 -56t60.5 -165q0 -17 -2 -22h-287q3 -27 25 -46.5zM290.5 292.5q-15.5 17.5 -41.5 17.5q-27 0 -44 -17t-18 -47h121
q-2 29 -17.5 46.5zM292 615.5q23 -23.5 23 -56.5t-23 -56.5t-56 -23.5q-34 0 -57 23.5t-23 56.5t23 56.5t57 23.5q33 0 56 -23.5z" />
    <glyph glyph-name="Eogonek" unicode="&#x118;" horiz-adv-x="517" 
d="M467 -162q-17 -24 -45.5 -41t-64.5 -17q-37 0 -68.5 23t-31.5 71q0 28 20 63t44 63h-284v660h406v-149h-235v-108h234v-144h-234v-110h235v-149h-55q-18 -24 -30.5 -54t-12.5 -57q0 -10 8 -18t16 -8q21 0 36 21z" />
    <glyph glyph-name="eogonek" unicode="&#x119;" horiz-adv-x="507" 
d="M470 179h-287q3 -27 25 -46.5t58 -19.5t71 11t56 26l72 -109q-46 -42 -147 -51q-36 -54 -36 -101q0 -10 8 -18t16 -8q21 0 36 21l62 -46q-17 -24 -45.5 -41t-64.5 -17q-37 0 -68.5 23t-31.5 71q0 25 16 56t38 58q-103 3 -166.5 60t-63.5 162q0 60 27.5 108t79.5 76
t121 28q105 0 165.5 -56t60.5 -165q0 -17 -2 -22zM308 246q-2 29 -17.5 46.5t-41.5 17.5q-27 0 -44 -17t-18 -47h121z" />
    <glyph glyph-name="Ecaron" unicode="&#x11a;" horiz-adv-x="517" 
d="M443 511h-235v-108h234v-144h-234v-110h235v-149h-406v660h406v-149zM236 839l125 92l60 -79l-185 -136l-185 136l59 80z" />
    <glyph glyph-name="ecaron" unicode="&#x11b;" horiz-adv-x="507" 
d="M208 132.5q22 -19.5 58 -19.5t71 11t56 26l72 -109q-57 -53 -205 -53q-108 0 -175 57t-67 165q0 60 27.5 108t79.5 76t121 28q105 0 165.5 -56t60.5 -165q0 -17 -2 -22h-287q3 -27 25 -46.5zM290.5 292.5q-15.5 17.5 -41.5 17.5q-27 0 -44 -17t-18 -47h121
q-2 29 -17.5 46.5zM236 589l125 92l60 -79l-185 -136l-185 136l59 80z" />
    <glyph glyph-name="Gbreve" unicode="&#x11e;" horiz-adv-x="699" 
d="M705 329q0 -95 -44 -173t-122 -123t-177 -45q-101 0 -178.5 45t-120.5 123.5t-43 173.5t45 173t123.5 123.5t173.5 45.5q81 0 150.5 -33t116.5 -91l-136 -103q-22 32 -56 50t-75 18q-48 0 -85.5 -24.5t-58.5 -66.5t-21 -92t21 -91.5t58.5 -66t85.5 -24.5q49 0 86.5 26.5
t54.5 69.5h-149v128h351v-43zM473.5 791.5q-53.5 -42.5 -135.5 -42.5q-81 0 -134.5 42t-61.5 112l111 28q5 -36 26 -61t59 -25t59.5 25t26.5 61l111 -28q-8 -69 -61.5 -111.5z" />
    <glyph glyph-name="gbreve" unicode="&#x11f;" horiz-adv-x="565" 
d="M525 410v-421q0 -67 -34.5 -114t-94.5 -71t-135 -24q-165 0 -233 83l100 106q47 -55 125 -55q46 0 73 21.5t27 63.5v63q-6 -12 -24.5 -29.5t-47.5 -31t-64 -13.5q-59 0 -104 29.5t-69.5 79t-24.5 108.5q0 58 24.5 108t69.5 79.5t104 29.5q50 0 85.5 -20.5t49.5 -45.5v54
h173zM329 146.5q23 23.5 23 58.5t-23 59t-58 24t-59 -24t-24 -59t24 -58.5t59 -23.5t58 23.5zM399.5 541.5q-53.5 -42.5 -135.5 -42.5q-81 0 -134.5 42t-61.5 112l111 28q5 -36 26 -61t59 -25t59.5 25t26.5 61l111 -28q-8 -69 -61.5 -111.5z" />
    <glyph glyph-name="Gdotaccent" unicode="&#x120;" horiz-adv-x="699" 
d="M705 329q0 -95 -44 -173t-122 -123t-177 -45q-101 0 -178.5 45t-120.5 123.5t-43 173.5t45 173t123.5 123.5t173.5 45.5q81 0 150.5 -33t116.5 -91l-136 -103q-22 32 -56 50t-75 18q-48 0 -85.5 -24.5t-58.5 -66.5t-21 -92t21 -91.5t58.5 -66t85.5 -24.5q49 0 86.5 26.5
t54.5 69.5h-149v128h351v-43zM393 865.5q23 -23.5 23 -56.5t-23 -56.5t-56 -23.5q-34 0 -57 23.5t-23 56.5t23 56.5t57 23.5q33 0 56 -23.5z" />
    <glyph glyph-name="gdotaccent" unicode="&#x121;" horiz-adv-x="565" 
d="M525 410v-421q0 -67 -34.5 -114t-94.5 -71t-135 -24q-165 0 -233 83l100 106q47 -55 125 -55q46 0 73 21.5t27 63.5v63q-6 -12 -24.5 -29.5t-47.5 -31t-64 -13.5q-59 0 -104 29.5t-69.5 79t-24.5 108.5q0 58 24.5 108t69.5 79.5t104 29.5q50 0 85.5 -20.5t49.5 -45.5v54
h173zM329 146.5q23 23.5 23 58.5t-23 59t-58 24t-59 -24t-24 -59t24 -58.5t59 -23.5t58 23.5zM309 615.5q23 -23.5 23 -56.5t-23 -56.5t-56 -23.5q-34 0 -57 23.5t-23 56.5t23 56.5t57 23.5q33 0 56 -23.5z" />
    <glyph glyph-name="uni0122" unicode="&#x122;" horiz-adv-x="748" 
d="M705 329q0 -95 -44 -173t-122 -123t-177 -45q-101 0 -178.5 45t-120.5 123.5t-43 173.5t45 173t123.5 123.5t173.5 45.5q81 0 150.5 -33t116.5 -91l-136 -103q-22 32 -56 50t-75 18q-48 0 -85.5 -24.5t-58.5 -66.5t-21 -92t21 -91.5t58.5 -66t85.5 -24.5q49 0 86.5 26.5
t54.5 69.5h-149v128h351v-43zM431.5 -68.5q22.5 -23.5 22.5 -66.5q0 -54 -33.5 -107t-81.5 -79l-34 39q28 16 51 39t31 48q-10 -5 -23 -5q-27 0 -46.5 20.5t-19.5 55.5q0 32 23 55.5t54 23.5q34 0 56.5 -23.5z" />
    <glyph glyph-name="uni0123" unicode="&#x123;" horiz-adv-x="576" 
d="M525 410v-421q0 -67 -34.5 -114t-94.5 -71t-135 -24q-165 0 -233 83l100 106q47 -55 125 -55q46 0 73 21.5t27 63.5v63q-6 -12 -24.5 -29.5t-47.5 -31t-64 -13.5q-59 0 -104 29.5t-69.5 79t-24.5 108.5q0 58 24.5 108t69.5 79.5t104 29.5q50 0 85.5 -20.5t49.5 -45.5v54
h173zM329 146.5q23 23.5 23 58.5t-23 59t-58 24t-59 -24t-24 -59t24 -58.5t59 -23.5t58 23.5zM221.5 510.5q-17.5 18.5 -17.5 52.5q0 44 27.5 86t64.5 62l27 -31q-22 -13 -40.5 -31t-24.5 -38q5 4 18 4q21 0 37 -16.5t16 -43.5q0 -26 -18 -44.5t-44 -18.5q-28 0 -45.5 18.5z
" />
    <glyph glyph-name="Hbar" unicode="&#x126;" horiz-adv-x="638" 
d="M614 468h-45v-468h-170v257h-192v-257h-170v468h-49v113h49v79h170v-79h192v79h170v-79h45v-113zM399 468h-192v-63h192v63z" />
    <glyph glyph-name="hbar" unicode="&#x127;" horiz-adv-x="566" 
d="M430.5 403.5q41.5 -18.5 67.5 -57.5t26 -98v-248h-173v221q0 38 -17 59t-48 21t-55 -23.5t-24 -59.5v-218h-173v499h-50v101h50v88h173v-88h80v-101h-80v-144q10 25 48.5 46t86.5 21q47 0 88.5 -18.5z" />
    <glyph glyph-name="Imacron" unicode="&#x12a;" horiz-adv-x="283" 
d="M212 0h-170v660h170v-660zM290 858v-106h-336v106h336z" />
    <glyph glyph-name="imacron" unicode="&#x12b;" horiz-adv-x="226" 
d="M187 410v-410h-161v410h161zM274 608v-106h-336v106h336z" />
    <glyph glyph-name="Iogonek" unicode="&#x12e;" horiz-adv-x="283" 
d="M233 -162q-17 -24 -45.5 -41t-64.5 -17q-37 0 -68.5 23t-31.5 71q0 28 20 63t44 63h-45v660h170v-660h-58q-18 -24 -30.5 -54t-12.5 -57q0 -10 8 -18t16 -8q21 0 36 21z" />
    <glyph glyph-name="iogonek" unicode="&#x12f;" horiz-adv-x="272" 
d="M64 504.5q-28 28.5 -28 67.5t27.5 67t67.5 28q39 0 67.5 -28t28.5 -67t-28 -67.5t-68 -28.5q-39 0 -67 28.5zM232 -162q-17 -24 -45.5 -41t-64.5 -17q-37 0 -68.5 23t-31.5 71q0 28 20 63t44 63h-44v410h173v-410h-62q-18 -24 -30.5 -54t-12.5 -57q0 -10 8 -18t16 -8
q21 0 36 21z" />
    <glyph glyph-name="Idotaccent" unicode="&#x130;" horiz-adv-x="283" 
d="M212 0h-170v660h170v-660zM177 865.5q23 -23.5 23 -56.5t-23 -56.5t-56 -23.5q-34 0 -57 23.5t-23 56.5t23 56.5t57 23.5q33 0 56 -23.5z" />
    <glyph glyph-name="dotlessi" unicode="&#x131;" horiz-adv-x="226" 
d="M187 410v-410h-161v410h161z" />
    <glyph glyph-name="uni0136" unicode="&#x136;" horiz-adv-x="603" 
d="M383 0l-189 283v-283h-171v660h171v-260l172 260h192l-217 -316l245 -344h-203zM350.5 -68.5q22.5 -23.5 22.5 -66.5q0 -54 -33.5 -107t-81.5 -79l-34 39q28 16 51 39t31 48q-10 -5 -23 -5q-27 0 -46.5 20.5t-19.5 55.5q0 32 23 55.5t54 23.5q34 0 56.5 -23.5z" />
    <glyph glyph-name="uni0137" unicode="&#x137;" horiz-adv-x="539" 
d="M334 215l210 -215h-198l-149 160v-160h-173v688h173v-414l131 136h195zM316.5 -68.5q22.5 -23.5 22.5 -66.5q0 -54 -33.5 -107t-81.5 -79l-34 39q28 16 51 39t31 48q-10 -5 -23 -5q-27 0 -46.5 20.5t-19.5 55.5q0 32 23 55.5t54 23.5q34 0 56.5 -23.5z" />
    <glyph glyph-name="Lacute" unicode="&#x139;" horiz-adv-x="487" 
d="M213 149h233v-149h-403v660h170v-511zM272 927l79 -100l-196 -113l-49 68z" />
    <glyph glyph-name="lacute" unicode="&#x13a;" horiz-adv-x="261" 
d="M37 688h173v-688h-173v688zM209 955l79 -100l-196 -113l-49 68z" />
    <glyph glyph-name="uni013B" unicode="&#x13b;" horiz-adv-x="501" 
d="M213 149h233v-149h-403v660h170v-511zM326.5 -207.5q22.5 -23.5 22.5 -66.5q0 -54 -33.5 -107t-81.5 -79l-34 39q28 16 51 39t31 48q-10 -5 -23 -5q-27 0 -46.5 20.5t-19.5 55.5q0 32 23 55.5t54 23.5q34 0 56.5 -23.5z" />
    <glyph glyph-name="uni013C" unicode="&#x13c;" horiz-adv-x="261" 
d="M37 688h173v-688h-173v688zM170.5 -220.5q22.5 -23.5 22.5 -66.5q0 -54 -33.5 -107t-81.5 -79l-34 39q28 16 51 39t31 48q-10 -5 -23 -5q-27 0 -46.5 20.5t-19.5 55.5q0 32 23 55.5t54 23.5q34 0 56.5 -23.5z" />
    <glyph glyph-name="Lcaron" unicode="&#x13d;" horiz-adv-x="501" 
d="M446 149v-149h-403v660h170v-511h233zM494.5 627.5q17.5 -18.5 17.5 -52.5q0 -44 -27 -86.5t-65 -63.5l-28 32q22 13 41 31t25 38q-6 -3 -18 -3q-22 0 -37.5 16.5t-15.5 43.5q0 26 18 44.5t44 18.5q28 0 45.5 -18.5z" />
    <glyph glyph-name="lcaron" unicode="&#x13e;" horiz-adv-x="261" 
d="M210 688v-688h-173v688h173zM361 648q18 -19 18 -53q0 -45 -28 -88t-66 -64l-28 32q23 13 42 31.5t25 39.5q-7 -4 -19 -4q-22 0 -38 16.5t-16 44.5q0 26 19 45t45 19q28 0 46 -19z" />
    <glyph glyph-name="Lslash" unicode="&#x141;" horiz-adv-x="517" 
d="M12 189v133l59 46v292h170v-159l88 71v-135l-88 -69v-219h219v-149h-389v234z" />
    <glyph glyph-name="lslash" unicode="&#x142;" horiz-adv-x="303" 
d="M3 189v133l63 51v315h159v-190l62 48v-134l-62 -48v-364h-159v239z" />
    <glyph glyph-name="Nacute" unicode="&#x143;" horiz-adv-x="690" 
d="M209 0h-171v660h180l228 -389h1v389h171v-660h-180l-228 391h-1v-391zM371 927l79 -100l-196 -113l-49 68z" />
    <glyph glyph-name="nacute" unicode="&#x144;" horiz-adv-x="562" 
d="M426.5 403.5q41.5 -18.5 67.5 -57.5t26 -98v-248h-173v221q0 38 -18.5 59t-49.5 21t-53.5 -23.5t-22.5 -59.5v-218h-173v410h173v-55q10 25 49 46t86 21t88.5 -18.5zM376 677l79 -100l-196 -113l-49 68z" />
    <glyph glyph-name="uni0145" unicode="&#x145;" horiz-adv-x="687" 
d="M209 0h-171v660h180l228 -389h1v389h171v-660h-180l-228 391h-1v-391zM384.5 -68.5q22.5 -23.5 22.5 -66.5q0 -54 -33.5 -107t-81.5 -79l-34 39q28 16 51 39t31 48q-10 -5 -23 -5q-27 0 -46.5 20.5t-19.5 55.5q0 32 23 55.5t54 23.5q34 0 56.5 -23.5z" />
    <glyph glyph-name="uni0146" unicode="&#x146;" horiz-adv-x="562" 
d="M426.5 403.5q41.5 -18.5 67.5 -57.5t26 -98v-248h-173v221q0 38 -18.5 59t-49.5 21t-53.5 -23.5t-22.5 -59.5v-218h-173v410h173v-55q10 25 49 46t86 21t88.5 -18.5zM322.5 -68.5q22.5 -23.5 22.5 -66.5q0 -54 -33.5 -107t-81.5 -79l-34 39q28 16 51 39t31 48
q-10 -5 -23 -5q-27 0 -46.5 20.5t-19.5 55.5q0 32 23 55.5t54 23.5q34 0 56.5 -23.5z" />
    <glyph glyph-name="Ncaron" unicode="&#x147;" horiz-adv-x="690" 
d="M209 0h-171v660h180l228 -389h1v389h171v-660h-180l-228 391h-1v-391zM328 839l125 92l60 -79l-185 -136l-185 136l59 80z" />
    <glyph glyph-name="ncaron" unicode="&#x148;" horiz-adv-x="562" 
d="M426.5 403.5q41.5 -18.5 67.5 -57.5t26 -98v-248h-173v221q0 38 -18.5 59t-49.5 21t-53.5 -23.5t-22.5 -59.5v-218h-173v410h173v-55q10 25 49 46t86 21t88.5 -18.5zM262 589l125 92l60 -79l-185 -136l-185 136l59 80z" />
    <glyph glyph-name="Eng" unicode="&#x14a;" horiz-adv-x="687" 
d="M618 660v-674q0 -85 -42.5 -145t-127.5 -60q-47 0 -77 7.5t-60 20.5l55 133q22 -10 37 -10q16 0 26.5 12.5t10.5 35.5v20h-2l-228 391h-1v-391h-171v660h180l228 -389h1v389h171z" />
    <glyph glyph-name="eng" unicode="&#x14b;" horiz-adv-x="562" 
d="M426.5 403.5q41.5 -18.5 67.5 -57.5t26 -98v-270q0 -45 -20.5 -91t-60.5 -76t-96 -30q-78 0 -121 28l55 126q16 -9 35 -9q35 0 35 59v236q0 38 -18.5 59t-49.5 21t-53.5 -23.5t-22.5 -59.5v-218h-173v410h173v-55q10 25 49 46t86 21t88.5 -18.5z" />
    <glyph glyph-name="Omacron" unicode="&#x14c;" horiz-adv-x="738" 
d="M65 503q45 78 123.5 123.5t173.5 45.5q97 0 175.5 -45.5t123 -123.5t44.5 -173t-43.5 -173t-122 -123.5t-177.5 -45.5q-101 0 -178.5 45t-120.5 123.5t-43 173.5t45 173zM218 238.5q21 -41.5 58.5 -66t85.5 -24.5t85.5 24.5t58.5 66t21 91.5t-21 92t-58.5 66.5
t-85.5 24.5t-85.5 -24.5t-58.5 -66.5t-21 -92t21 -91.5zM520 857v-106h-336v106h336z" />
    <glyph glyph-name="omacron" unicode="&#x14d;" horiz-adv-x="509" 
d="M132.5 15.5q-53.5 27.5 -84 76.5t-30.5 112t30.5 112.5t84 77.5t121.5 28t121 -28t82.5 -77.5t29.5 -112.5t-29.5 -112t-82.5 -76.5t-121 -27.5t-121.5 27.5zM304.5 150.5q18.5 20.5 18.5 54.5t-18.5 55t-50.5 21t-51 -21t-19 -55t19 -54.5t51 -20.5t50.5 20.5zM417 608
v-106h-336v106h336z" />
    <glyph glyph-name="Ohungarumlaut" unicode="&#x150;" horiz-adv-x="738" 
d="M65 503q45 78 123.5 123.5t173.5 45.5q97 0 175.5 -45.5t123 -123.5t44.5 -173t-43.5 -173t-122 -123.5t-177.5 -45.5q-101 0 -178.5 45t-120.5 123.5t-43 173.5t45 173zM218 238.5q21 -41.5 58.5 -66t85.5 -24.5t85.5 24.5t58.5 66t21 91.5t-21 92t-58.5 66.5
t-85.5 24.5t-85.5 -24.5t-58.5 -66.5t-21 -92t21 -91.5zM323 941l72 -89l-162 -139l-49 69zM491 941l72 -89l-162 -139l-49 69z" />
    <glyph glyph-name="ohungarumlaut" unicode="&#x151;" horiz-adv-x="509" 
d="M132.5 15.5q-53.5 27.5 -84 76.5t-30.5 112t30.5 112.5t84 77.5t121.5 28t121 -28t82.5 -77.5t29.5 -112.5t-29.5 -112t-82.5 -76.5t-121 -27.5t-121.5 27.5zM304.5 150.5q18.5 20.5 18.5 54.5t-18.5 55t-50.5 21t-51 -21t-19 -55t19 -54.5t51 -20.5t50.5 20.5zM221 693
l72 -89l-162 -139l-49 69zM389 693l72 -89l-162 -139l-49 69z" />
    <glyph glyph-name="OE" unicode="&#x152;" horiz-adv-x="840" 
d="M181.5 42.5q-77.5 42.5 -124 118t-46.5 169.5t46 169.5t123.5 118t168.5 42.5h428v-149h-216v-106h206v-148h-206v-108h216v-149h-428q-90 0 -167.5 42.5zM391 508h-22q-50 0 -89.5 -23.5t-62 -64t-22.5 -90.5t22.5 -90.5t62 -64t89.5 -23.5h22v356z" />
    <glyph glyph-name="oe" unicode="&#x153;" horiz-adv-x="827" 
d="M789 179h-287q3 -27 25 -46.5t58 -19.5t71 11t56 26l72 -109q-57 -53 -205 -53q-103 0 -168 51q-64 -51 -157 -51q-68 0 -121.5 27.5t-84 76.5t-30.5 112t30.5 112.5t84 77.5t121.5 28q92 0 156 -51q61 51 155 51q105 0 165.5 -56t60.5 -165q0 -17 -2 -22zM627 246
q-2 29 -17.5 46.5t-41.5 17.5q-27 0 -44 -17t-18 -47h121zM304.5 150.5q18.5 20.5 18.5 54.5t-18.5 55t-50.5 21t-51 -21t-19 -55t19 -54.5t51 -20.5t50.5 20.5z" />
    <glyph glyph-name="Racute" unicode="&#x154;" horiz-adv-x="600" 
d="M419 635q46 -25 72 -71t26 -108q0 -59 -20.5 -99t-50 -61t-58.5 -26l159 -270h-191l-140 256h-12v-256h-171v660h282q58 0 104 -25zM316.5 391q25.5 18 25.5 59t-24.5 59t-62.5 18h-51v-154h49q38 0 63.5 18zM328 926l79 -100l-196 -113l-49 68z" />
    <glyph glyph-name="racute" unicode="&#x155;" horiz-adv-x="419" 
d="M374 414.5q23 -7.5 40 -18.5l-66 -140q-10 12 -28 20t-42 8q-41 0 -62 -26t-21 -59v-199h-173v410h173v-55q14 25 47 46t83 21q26 0 49 -7.5zM284 677l79 -100l-196 -113l-49 68z" />
    <glyph glyph-name="uni0156" unicode="&#x156;" horiz-adv-x="603" 
d="M419 635q46 -25 72 -71t26 -108q0 -59 -20.5 -99t-50 -61t-58.5 -26l159 -270h-191l-140 256h-12v-256h-171v660h282q58 0 104 -25zM316.5 391q25.5 18 25.5 59t-24.5 59t-62.5 18h-51v-154h49q38 0 63.5 18zM336.5 -68.5q22.5 -23.5 22.5 -66.5q0 -54 -33.5 -107
t-81.5 -79l-34 39q28 16 51 39t31 48q-10 -5 -23 -5q-27 0 -46.5 20.5t-19.5 55.5q0 32 23 55.5t54 23.5q34 0 56.5 -23.5z" />
    <glyph glyph-name="uni0157" unicode="&#x157;" horiz-adv-x="412" 
d="M374 414.5q23 -7.5 40 -18.5l-66 -140q-10 12 -28 20t-42 8q-41 0 -62 -26t-21 -59v-199h-173v410h173v-55q14 25 47 46t83 21q26 0 49 -7.5zM250.5 -68.5q22.5 -23.5 22.5 -66.5q0 -54 -33.5 -107t-81.5 -79l-34 39q28 16 51 39t31 48q-10 -5 -23 -5q-27 0 -46.5 20.5
t-19.5 55.5q0 32 23 55.5t54 23.5q34 0 56.5 -23.5z" />
    <glyph glyph-name="Rcaron" unicode="&#x158;" horiz-adv-x="600" 
d="M419 635q46 -25 72 -71t26 -108q0 -59 -20.5 -99t-50 -61t-58.5 -26l159 -270h-191l-140 256h-12v-256h-171v660h282q58 0 104 -25zM316.5 391q25.5 18 25.5 59t-24.5 59t-62.5 18h-51v-154h49q38 0 63.5 18zM257 839l125 92l60 -79l-185 -136l-185 136l59 80z" />
    <glyph glyph-name="rcaron" unicode="&#x159;" horiz-adv-x="419" 
d="M374 414.5q23 -7.5 40 -18.5l-66 -140q-10 12 -28 20t-42 8q-41 0 -62 -26t-21 -59v-199h-173v410h173v-55q14 25 47 46t83 21q26 0 49 -7.5zM198 589l125 92l60 -79l-185 -136l-185 136l59 80z" />
    <glyph glyph-name="Sacute" unicode="&#x15a;" horiz-adv-x="570" 
d="M393 660q48 -12 78.5 -27t40.5 -24l-81 -137q-19 15 -54.5 30.5t-68.5 15.5q-34 0 -54.5 -11t-20.5 -33q0 -23 25 -39.5t87 -39.5q82 -28 130 -79t48 -129q0 -67 -36 -111.5t-94.5 -66t-125.5 -21.5q-64 0 -119 14.5t-91 32.5t-47 28l84 143q10 -8 40 -23t66.5 -27
t67.5 -12q38 0 57.5 13.5t19.5 37.5q0 25 -26.5 44t-93.5 44q-76 29 -121 75.5t-45 126.5q0 56 32 98.5t85 65.5t113 23q56 0 104 -12zM313 926l79 -100l-196 -113l-49 68z" />
    <glyph glyph-name="sacute" unicode="&#x15b;" horiz-adv-x="409" 
d="M338 409q49 -13 62 -22l-55 -101q-13 9 -38 18.5t-54 9.5q-48 0 -48 -22q0 -11 15.5 -18.5t48.5 -13.5q55 -11 94.5 -39.5t39.5 -86.5q0 -81 -62.5 -113.5t-148.5 -32.5q-66 0 -109.5 15t-64.5 30l54 113q16 -13 44.5 -25.5t58.5 -12.5q28 0 43 6.5t15 18.5
q0 13 -14.5 20.5t-47.5 13.5q-51 10 -90.5 40.5t-39.5 89.5q0 60 56 92.5t136 32.5q56 0 105 -13zM273 677l79 -100l-196 -113l-49 68z" />
    <glyph glyph-name="Scedilla" unicode="&#x15e;" horiz-adv-x="570" 
d="M237 -11l-11 -25q46 2 77 -20.5t31 -60.5q0 -46 -34 -73.5t-84 -27.5q-46 0 -80 13.5t-52 32.5l55 61q12 -13 28.5 -22.5t33.5 -9.5q16 0 25.5 7.5t9.5 20.5q0 16 -13 24t-32 8q-28 0 -39 -7l-5 5l29 81q-61 12 -106.5 33t-59.5 34l84 143q10 -8 40 -23t66.5 -27
t67.5 -12q38 0 57.5 13.5t19.5 37.5q0 25 -26.5 44t-93.5 44q-76 29 -121 75.5t-45 126.5q0 56 32 98.5t85 65.5t113 23q56 0 104 -12t78.5 -27t40.5 -24l-81 -137q-19 15 -54.5 30.5t-68.5 15.5q-34 0 -54.5 -11t-20.5 -33q0 -23 25 -39.5t87 -39.5q82 -28 130 -79t48 -129
q0 -67 -36 -111.5t-94.5 -66t-125.5 -21.5q-20 0 -30 1z" />
    <glyph glyph-name="scedilla" unicode="&#x15f;" horiz-adv-x="409" 
d="M353.5 29.5q-49.5 -33.5 -123.5 -39.5l-11 -26q46 2 77 -20.5t31 -60.5q0 -46 -34 -73.5t-84 -27.5q-46 0 -80 13.5t-52 32.5l55 61q12 -13 28.5 -22.5t33.5 -9.5q16 0 25.5 7.5t9.5 20.5q0 16 -13 24t-32 8q-28 0 -39 -7l-5 5l26 74q-56 3 -92 17t-56 27l54 113
q16 -13 44.5 -25.5t58.5 -12.5q28 0 43 6.5t15 18.5q0 13 -14.5 20.5t-47.5 13.5q-51 10 -90.5 40.5t-39.5 89.5q0 60 56 92.5t136 32.5q56 0 105 -13t62 -22l-55 -101q-13 9 -38 18.5t-54 9.5q-48 0 -48 -22q0 -11 15.5 -18.5t48.5 -13.5q55 -11 94.5 -39.5t39.5 -86.5
q0 -71 -49.5 -104.5z" />
    <glyph glyph-name="Scaron" unicode="&#x160;" horiz-adv-x="570" 
d="M393 660q48 -12 78.5 -27t40.5 -24l-81 -137q-19 15 -54.5 30.5t-68.5 15.5q-34 0 -54.5 -11t-20.5 -33q0 -23 25 -39.5t87 -39.5q82 -28 130 -79t48 -129q0 -67 -36 -111.5t-94.5 -66t-125.5 -21.5q-64 0 -119 14.5t-91 32.5t-47 28l84 143q10 -8 40 -23t66.5 -27
t67.5 -12q38 0 57.5 13.5t19.5 37.5q0 25 -26.5 44t-93.5 44q-76 29 -121 75.5t-45 126.5q0 56 32 98.5t85 65.5t113 23q56 0 104 -12zM269 839l125 92l60 -79l-185 -136l-185 136l59 80z" />
    <glyph glyph-name="scaron" unicode="&#x161;" horiz-adv-x="409" 
d="M338 409q49 -13 62 -22l-55 -101q-13 9 -38 18.5t-54 9.5q-48 0 -48 -22q0 -11 15.5 -18.5t48.5 -13.5q55 -11 94.5 -39.5t39.5 -86.5q0 -81 -62.5 -113.5t-148.5 -32.5q-66 0 -109.5 15t-64.5 30l54 113q16 -13 44.5 -25.5t58.5 -12.5q28 0 43 6.5t15 18.5
q0 13 -14.5 20.5t-47.5 13.5q-51 10 -90.5 40.5t-39.5 89.5q0 60 56 92.5t136 32.5q56 0 105 -13zM200 589l125 92l60 -79l-185 -136l-185 136l59 80z" />
    <glyph glyph-name="uni0162" unicode="&#x162;" horiz-adv-x="515" 
d="M289 0l-16 -36q46 2 77 -20.5t31 -60.5q0 -46 -34 -73.5t-84 -27.5q-46 0 -80 13.5t-52 32.5l55 61q12 -13 28.5 -22.5t33.5 -9.5q16 0 25.5 7.5t9.5 20.5q0 16 -13 24t-32 8q-28 0 -39 -7l-5 5l30 85h-69v511h-150v149h471v-149h-150v-511h-37z" />
    <glyph glyph-name="uni0163" unicode="&#x163;" horiz-adv-x="374" 
d="M70 579h171v-169h88v-141h-88v-78q0 -25 7 -39t25 -14q10 0 20 5t12 8l58 -129q-12 -9 -53 -21.5t-89 -12.5q-69 0 -110 38t-41 111v132h-66v141h66v169zM255 -123q46 2 77 -20.5t31 -60.5q0 -46 -34 -73.5t-84 -27.5q-46 0 -80 13.5t-52 32.5l55 61q12 -13 28.5 -22.5
t33.5 -9.5q16 0 25.5 7.5t9.5 20.5q0 16 -13 24t-32 8q-28 0 -39 -7l-5 5l38 106l58 -19z" />
    <glyph glyph-name="Tcaron" unicode="&#x164;" horiz-adv-x="515" 
d="M5 660h471v-149h-150v-511h-171v511h-150v149zM241 838l125 92l60 -79l-185 -136l-185 136l59 80z" />
    <glyph glyph-name="tcaron" unicode="&#x165;" horiz-adv-x="366" 
d="M397.5 611q16.5 -17 16.5 -48q0 -41 -25 -79.5t-59 -58.5l-26 29q21 12 38 28.5t23 35.5q-7 -3 -17 -3q-20 0 -34.5 15t-14.5 40q0 24 17 41t40 17q25 0 41.5 -17zM241 579v-169h88v-141h-88v-78q0 -25 7 -39t25 -14q10 0 20 5t12 8l58 -129q-12 -9 -53 -21.5t-89 -12.5
q-69 0 -110 38t-41 111v132h-66v141h66v169h171z" />
    <glyph glyph-name="Tbar" unicode="&#x166;" horiz-adv-x="515" 
d="M479 293h-153v-293h-171v293h-150v124h150v94h-150v149h471v-149h-150v-94h153v-124z" />
    <glyph glyph-name="tbar" unicode="&#x167;" horiz-adv-x="366" 
d="M363 22q-12 -9 -53 -21.5t-89 -12.5q-69 0 -110 38t-41 111v18h-61v114h-5v141h66v169h171v-169h88v-141h-25v-114h-58q8 -17 27 -17q10 0 20 5t12 8z" />
    <glyph glyph-name="Umacron" unicode="&#x16a;" horiz-adv-x="635" 
d="M579 256q0 -124 -71.5 -196t-199.5 -72t-199.5 72t-71.5 196v404h171v-395q0 -61 25.5 -91.5t74.5 -30.5t74.5 30.5t25.5 91.5v395h171v-404zM466 858v-106h-336v106h336z" />
    <glyph glyph-name="umacron" unicode="&#x16b;" horiz-adv-x="560" 
d="M219.5 154.5q16.5 -24.5 53.5 -24.5q38 0 54.5 24.5t16.5 71.5v184h170v-202q0 -102 -63.5 -161t-177.5 -59t-177.5 59t-63.5 161v202h171v-184q0 -47 16.5 -71.5zM426 608v-106h-336v106h336z" />
    <glyph glyph-name="Uring" unicode="&#x16e;" horiz-adv-x="635" 
d="M579 256q0 -124 -71.5 -196t-199.5 -72t-199.5 72t-71.5 196v404h171v-395q0 -61 25.5 -91.5t74.5 -30.5t74.5 30.5t25.5 91.5v395h171v-404zM199.5 923q39.5 34 97.5 34q59 0 98 -34t39 -87t-38.5 -87t-98.5 -34q-61 0 -99 34t-38 87t39.5 87zM268.5 805.5
q11.5 -12.5 28.5 -12.5t28.5 13t11.5 30t-12 29.5t-28 12.5t-28 -12.5t-12 -29.5q0 -18 11.5 -30.5z" />
    <glyph glyph-name="uring" unicode="&#x16f;" horiz-adv-x="560" 
d="M219.5 154.5q16.5 -24.5 53.5 -24.5q38 0 54.5 24.5t16.5 71.5v184h170v-202q0 -102 -63.5 -161t-177.5 -59t-177.5 59t-63.5 161v202h171v-184q0 -47 16.5 -71.5zM165.5 673q39.5 34 97.5 34q59 0 98 -34t39 -87t-38.5 -87t-98.5 -34q-61 0 -99 34t-38 87t39.5 87z
M234.5 555.5q11.5 -12.5 28.5 -12.5t28.5 13t11.5 30t-12 29.5t-28 12.5t-28 -12.5t-12 -29.5q0 -18 11.5 -30.5z" />
    <glyph glyph-name="Uhungarumlaut" unicode="&#x170;" horiz-adv-x="635" 
d="M579 256q0 -124 -71.5 -196t-199.5 -72t-199.5 72t-71.5 196v404h171v-395q0 -61 25.5 -91.5t74.5 -30.5t74.5 30.5t25.5 91.5v395h171v-404zM273 941l72 -89l-162 -139l-49 69zM441 941l72 -89l-162 -139l-49 69z" />
    <glyph glyph-name="uhungarumlaut" unicode="&#x171;" horiz-adv-x="560" 
d="M219.5 154.5q16.5 -24.5 53.5 -24.5q38 0 54.5 24.5t16.5 71.5v184h170v-202q0 -102 -63.5 -161t-177.5 -59t-177.5 59t-63.5 161v202h171v-184q0 -47 16.5 -71.5zM236 693l72 -89l-162 -139l-49 69zM404 693l72 -89l-162 -139l-49 69z" />
    <glyph glyph-name="Uogonek" unicode="&#x172;" horiz-adv-x="635" 
d="M579 660v-404q0 -115 -62 -186t-174 -81q-13 -18 -24.5 -45.5t-11.5 -54.5q0 -10 8 -18t16 -8q21 0 36 21l62 -46q-17 -24 -45.5 -41t-64.5 -17q-37 0 -68.5 23t-31.5 71q0 46 55 115q-112 10 -174.5 81t-62.5 186v404h171v-395q0 -61 25.5 -91.5t74.5 -30.5t74.5 30.5
t25.5 91.5v395h171z" />
    <glyph glyph-name="uogonek" unicode="&#x173;" horiz-adv-x="560" 
d="M514 410v-202q0 -96 -56.5 -154t-159.5 -65q-35 -55 -35 -100q0 -10 8 -18t16 -8q21 0 36 21l62 -46q-17 -24 -45.5 -41t-64.5 -17q-37 0 -68.5 23t-31.5 71q0 26 16.5 57t39.5 59q-95 11 -147 68.5t-52 149.5v202h171v-184q0 -47 16.5 -71.5t53.5 -24.5q38 0 54.5 24.5
t16.5 71.5v184h170z" />
    <glyph glyph-name="Wcircumflex" unicode="&#x174;" horiz-adv-x="923" 
d="M901 660l-156 -660h-203l-88 365l-88 -365h-204l-155 660h197l71 -430l117 430h124l117 -430l71 430h197zM440 927l185 -136l-60 -79l-125 91l-126 -91l-59 79z" />
    <glyph glyph-name="wcircumflex" unicode="&#x175;" horiz-adv-x="752" 
d="M121 0l-144 410h184l63 -198l91 190h109l91 -190l63 198h184l-143 -410h-156l-93 208l-93 -208h-156zM368 675l185 -136l-60 -79l-125 91l-126 -91l-59 79z" />
    <glyph glyph-name="Ycircumflex" unicode="&#x176;" horiz-adv-x="616" 
d="M184 660l108 -228l107 228h206l-228 -422v-238h-171v238l-229 422h207zM283 927l185 -136l-60 -79l-125 91l-126 -91l-59 79z" />
    <glyph glyph-name="ycircumflex" unicode="&#x177;" horiz-adv-x="532" 
d="M529 410l-284 -618h-173l95 208l-172 410h173l90 -261l102 261h169zM231 675l185 -136l-60 -79l-125 91l-126 -91l-59 79z" />
    <glyph glyph-name="Ydieresis" unicode="&#x178;" horiz-adv-x="616" 
d="M184 660l108 -228l107 228h206l-228 -422v-238h-171v238l-229 422h207zM245.5 865.5q23.5 -23.5 23.5 -56.5t-23.5 -56.5t-56.5 -23.5t-56.5 23.5t-23.5 56.5t23.5 56.5t56.5 23.5t56.5 -23.5zM449 865.5q23 -23.5 23 -56.5t-23 -56.5t-56 -23.5q-34 0 -57 23.5t-23 56.5
t23 56.5t57 23.5q33 0 56 -23.5z" />
    <glyph glyph-name="Zacute" unicode="&#x179;" horiz-adv-x="644" 
d="M297 149h291v-149h-588l312 511h-265v149h563zM349 926l79 -100l-196 -113l-49 68z" />
    <glyph glyph-name="zacute" unicode="&#x17a;" horiz-adv-x="459" 
d="M260 119h174v-119h-440l192 292h-157v118h423zM310 677l79 -100l-196 -113l-49 68z" />
    <glyph glyph-name="Zdotaccent" unicode="&#x17b;" horiz-adv-x="644" 
d="M297 149h291v-149h-588l312 511h-265v149h563zM361 865.5q23 -23.5 23 -56.5t-23 -56.5t-56 -23.5q-34 0 -57 23.5t-23 56.5t23 56.5t57 23.5q33 0 56 -23.5z" />
    <glyph glyph-name="zdotaccent" unicode="&#x17c;" horiz-adv-x="459" 
d="M260 119h174v-119h-440l192 292h-157v118h423zM280 615.5q23 -23.5 23 -56.5t-23 -56.5t-56 -23.5q-34 0 -57 23.5t-23 56.5t23 56.5t57 23.5q33 0 56 -23.5z" />
    <glyph glyph-name="Zcaron" unicode="&#x17d;" horiz-adv-x="644" 
d="M297 149h291v-149h-588l312 511h-265v149h563zM305 840l125 92l60 -79l-185 -136l-185 136l59 80z" />
    <glyph glyph-name="zcaron" unicode="&#x17e;" horiz-adv-x="459" 
d="M260 119h174v-119h-440l192 292h-157v118h423zM230 589l125 92l60 -79l-185 -136l-185 136l59 80z" />
    <glyph glyph-name="uni01CD" unicode="&#x1cd;" horiz-adv-x="700" 
d="M689 0h-182l-46 124h-244l-46 -124h-183l267 660h168zM340 445h-2l-65 -173h132zM348 839l125 92l60 -79l-185 -136l-185 136l59 80z" />
    <glyph glyph-name="uni01CE" unicode="&#x1ce;" horiz-adv-x="576" 
d="M328.5 32.5q-18.5 -17.5 -47.5 -31t-64 -13.5q-59 0 -104 29.5t-69.5 79t-24.5 108.5q0 58 24.5 108t69.5 79.5t104 29.5q50 0 85.5 -20.5t49.5 -45.5v54h173v-410h-172v62q-6 -12 -24.5 -29.5zM212 146.5q24 -23.5 59 -23.5t58 23.5t23 58.5t-23 59t-58 24t-59 -24
t-24 -59t24 -58.5zM289 589l125 92l60 -79l-185 -136l-185 136l59 80z" />
    <glyph glyph-name="uni01CF" unicode="&#x1cf;" horiz-adv-x="283" 
d="M212 0h-170v660h170v-660zM136 839l125 92l60 -79l-185 -136l-185 136l59 80z" />
    <glyph glyph-name="uni01D0" unicode="&#x1d0;" horiz-adv-x="226" 
d="M187 410v-410h-161v410h161zM116 589l125 92l60 -79l-185 -136l-185 136l59 80z" />
    <glyph glyph-name="uni01D1" unicode="&#x1d1;" horiz-adv-x="749" 
d="M65 503q45 78 123.5 123.5t173.5 45.5q97 0 175.5 -45.5t123 -123.5t44.5 -173t-43.5 -173t-122 -123.5t-177.5 -45.5q-101 0 -178.5 45t-120.5 123.5t-43 173.5t45 173zM218 238.5q21 -41.5 58.5 -66t85.5 -24.5t85.5 24.5t58.5 66t21 91.5t-21 92t-58.5 66.5
t-85.5 24.5t-85.5 -24.5t-58.5 -66.5t-21 -92t21 -91.5zM371 839l125 92l60 -79l-185 -136l-185 136l59 80z" />
    <glyph glyph-name="uni01D2" unicode="&#x1d2;" horiz-adv-x="521" 
d="M132.5 15.5q-53.5 27.5 -84 76.5t-30.5 112t30.5 112.5t84 77.5t121.5 28t121 -28t82.5 -77.5t29.5 -112.5t-29.5 -112t-82.5 -76.5t-121 -27.5t-121.5 27.5zM304.5 150.5q18.5 20.5 18.5 54.5t-18.5 55t-50.5 21t-51 -21t-19 -55t19 -54.5t51 -20.5t50.5 20.5zM261 589
l125 92l60 -79l-185 -136l-185 136l59 80z" />
    <glyph glyph-name="uni01D3" unicode="&#x1d3;" horiz-adv-x="642" 
d="M579 256q0 -124 -71.5 -196t-199.5 -72t-199.5 72t-71.5 196v404h171v-395q0 -61 25.5 -91.5t74.5 -30.5t74.5 30.5t25.5 91.5v395h171v-404zM317 839l125 92l60 -79l-185 -136l-185 136l59 80z" />
    <glyph glyph-name="uni01D4" unicode="&#x1d4;" horiz-adv-x="560" 
d="M219.5 154.5q16.5 -24.5 53.5 -24.5q38 0 54.5 24.5t16.5 71.5v184h170v-202q0 -102 -63.5 -161t-177.5 -59t-177.5 59t-63.5 161v202h171v-184q0 -47 16.5 -71.5zM282 589l125 92l60 -79l-185 -136l-185 136l59 80z" />
    <glyph glyph-name="uni01D5" unicode="&#x1d5;" horiz-adv-x="642" 
d="M579 256q0 -124 -71.5 -196t-199.5 -72t-199.5 72t-71.5 196v404h171v-395q0 -61 25.5 -91.5t74.5 -30.5t74.5 30.5t25.5 91.5v395h171v-404zM270.5 865.5q23.5 -23.5 23.5 -56.5t-23.5 -56.5t-56.5 -23.5t-56.5 23.5t-23.5 56.5t23.5 56.5t56.5 23.5t56.5 -23.5z
M474 865.5q23 -23.5 23 -56.5t-23 -56.5t-56 -23.5q-34 0 -57 23.5t-23 56.5t23 56.5t57 23.5q33 0 56 -23.5zM484 1087v-106h-336v106h336z" />
    <glyph glyph-name="uni01D6" unicode="&#x1d6;" horiz-adv-x="560" 
d="M219.5 154.5q16.5 -24.5 53.5 -24.5q38 0 54.5 24.5t16.5 71.5v184h170v-202q0 -102 -63.5 -161t-177.5 -59t-177.5 59t-63.5 161v202h171v-184q0 -47 16.5 -71.5zM235.5 615.5q23.5 -23.5 23.5 -56.5t-23.5 -56.5t-56.5 -23.5t-56.5 23.5t-23.5 56.5t23.5 56.5
t56.5 23.5t56.5 -23.5zM439 615.5q23 -23.5 23 -56.5t-23 -56.5t-56 -23.5q-34 0 -57 23.5t-23 56.5t23 56.5t57 23.5q33 0 56 -23.5zM449 837v-106h-336v106h336z" />
    <glyph glyph-name="uni01D7" unicode="&#x1d7;" horiz-adv-x="642" 
d="M579 256q0 -124 -71.5 -196t-199.5 -72t-199.5 72t-71.5 196v404h171v-395q0 -61 25.5 -91.5t74.5 -30.5t74.5 30.5t25.5 91.5v395h171v-404zM270.5 865.5q23.5 -23.5 23.5 -56.5t-23.5 -56.5t-56.5 -23.5t-56.5 23.5t-23.5 56.5t23.5 56.5t56.5 23.5t56.5 -23.5z
M474 865.5q23 -23.5 23 -56.5t-23 -56.5t-56 -23.5q-34 0 -57 23.5t-23 56.5t23 56.5t57 23.5q33 0 56 -23.5zM359 1156l79 -100l-196 -113l-49 68z" />
    <glyph glyph-name="uni01D8" unicode="&#x1d8;" horiz-adv-x="560" 
d="M219.5 154.5q16.5 -24.5 53.5 -24.5q38 0 54.5 24.5t16.5 71.5v184h170v-202q0 -102 -63.5 -161t-177.5 -59t-177.5 59t-63.5 161v202h171v-184q0 -47 16.5 -71.5zM235.5 615.5q23.5 -23.5 23.5 -56.5t-23.5 -56.5t-56.5 -23.5t-56.5 23.5t-23.5 56.5t23.5 56.5
t56.5 23.5t56.5 -23.5zM439 615.5q23 -23.5 23 -56.5t-23 -56.5t-56 -23.5q-34 0 -57 23.5t-23 56.5t23 56.5t57 23.5q33 0 56 -23.5zM324 906l79 -100l-196 -113l-49 68z" />
    <glyph glyph-name="uni01D9" unicode="&#x1d9;" horiz-adv-x="642" 
d="M579 256q0 -124 -71.5 -196t-199.5 -72t-199.5 72t-71.5 196v404h171v-395q0 -61 25.5 -91.5t74.5 -30.5t74.5 30.5t25.5 91.5v395h171v-404zM270.5 865.5q23.5 -23.5 23.5 -56.5t-23.5 -56.5t-56.5 -23.5t-56.5 23.5t-23.5 56.5t23.5 56.5t56.5 23.5t56.5 -23.5z
M474 865.5q23 -23.5 23 -56.5t-23 -56.5t-56 -23.5q-34 0 -57 23.5t-23 56.5t23 56.5t57 23.5q33 0 56 -23.5zM317 1068l125 92l60 -79l-185 -136l-185 136l59 80z" />
    <glyph glyph-name="uni01DA" unicode="&#x1da;" horiz-adv-x="560" 
d="M219.5 154.5q16.5 -24.5 53.5 -24.5q38 0 54.5 24.5t16.5 71.5v184h170v-202q0 -102 -63.5 -161t-177.5 -59t-177.5 59t-63.5 161v202h171v-184q0 -47 16.5 -71.5zM235.5 615.5q23.5 -23.5 23.5 -56.5t-23.5 -56.5t-56.5 -23.5t-56.5 23.5t-23.5 56.5t23.5 56.5
t56.5 23.5t56.5 -23.5zM439 615.5q23 -23.5 23 -56.5t-23 -56.5t-56 -23.5q-34 0 -57 23.5t-23 56.5t23 56.5t57 23.5q33 0 56 -23.5zM282 818l125 92l60 -79l-185 -136l-185 136l59 80z" />
    <glyph glyph-name="uni01DB" unicode="&#x1db;" horiz-adv-x="642" 
d="M579 256q0 -124 -71.5 -196t-199.5 -72t-199.5 72t-71.5 196v404h171v-395q0 -61 25.5 -91.5t74.5 -30.5t74.5 30.5t25.5 91.5v395h171v-404zM270.5 865.5q23.5 -23.5 23.5 -56.5t-23.5 -56.5t-56.5 -23.5t-56.5 23.5t-23.5 56.5t23.5 56.5t56.5 23.5t56.5 -23.5z
M474 865.5q23 -23.5 23 -56.5t-23 -56.5t-56 -23.5q-34 0 -57 23.5t-23 56.5t23 56.5t57 23.5q33 0 56 -23.5zM273 1156l166 -145l-49 -68l-197 113z" />
    <glyph glyph-name="uni01DC" unicode="&#x1dc;" horiz-adv-x="560" 
d="M219.5 154.5q16.5 -24.5 53.5 -24.5q38 0 54.5 24.5t16.5 71.5v184h170v-202q0 -102 -63.5 -161t-177.5 -59t-177.5 59t-63.5 161v202h171v-184q0 -47 16.5 -71.5zM235.5 615.5q23.5 -23.5 23.5 -56.5t-23.5 -56.5t-56.5 -23.5t-56.5 23.5t-23.5 56.5t23.5 56.5
t56.5 23.5t56.5 -23.5zM439 615.5q23 -23.5 23 -56.5t-23 -56.5t-56 -23.5q-34 0 -57 23.5t-23 56.5t23 56.5t57 23.5q33 0 56 -23.5zM238 906l166 -145l-49 -68l-197 113z" />
    <glyph glyph-name="uni0218" unicode="&#x218;" horiz-adv-x="570" 
d="M393 660q48 -12 78.5 -27t40.5 -24l-81 -137q-19 15 -54.5 30.5t-68.5 15.5q-34 0 -54.5 -11t-20.5 -33q0 -23 25 -39.5t87 -39.5q82 -28 130 -79t48 -129q0 -67 -36 -111.5t-94.5 -66t-125.5 -21.5q-64 0 -119 14.5t-91 32.5t-47 28l84 143q10 -8 40 -23t66.5 -27
t67.5 -12q38 0 57.5 13.5t19.5 37.5q0 25 -26.5 44t-93.5 44q-76 29 -121 75.5t-45 126.5q0 56 32 98.5t85 65.5t113 23q56 0 104 -12zM321.5 -68.5q22.5 -23.5 22.5 -66.5q0 -54 -33.5 -107t-81.5 -79l-34 39q28 16 51 39t31 48q-10 -5 -23 -5q-27 0 -46.5 20.5t-19.5 55.5
q0 32 23 55.5t54 23.5q34 0 56.5 -23.5z" />
    <glyph glyph-name="uni0219" unicode="&#x219;" horiz-adv-x="439" 
d="M338 409q49 -13 62 -22l-55 -101q-13 9 -38 18.5t-54 9.5q-48 0 -48 -22q0 -11 15.5 -18.5t48.5 -13.5q55 -11 94.5 -39.5t39.5 -86.5q0 -81 -62.5 -113.5t-148.5 -32.5q-66 0 -109.5 15t-64.5 30l54 113q16 -13 44.5 -25.5t58.5 -12.5q28 0 43 6.5t15 18.5
q0 13 -14.5 20.5t-47.5 13.5q-51 10 -90.5 40.5t-39.5 89.5q0 60 56 92.5t136 32.5q56 0 105 -13zM267.5 -68.5q22.5 -23.5 22.5 -66.5q0 -54 -33.5 -107t-81.5 -79l-34 39q28 16 51 39t31 48q-10 -5 -23 -5q-27 0 -46.5 20.5t-19.5 55.5q0 32 23 55.5t54 23.5
q34 0 56.5 -23.5z" />
    <glyph glyph-name="uni021A" unicode="&#x21a;" horiz-adv-x="515" 
d="M5 660h471v-149h-150v-511h-171v511h-150v149zM294.5 -68.5q22.5 -23.5 22.5 -66.5q0 -54 -33.5 -107t-81.5 -79l-34 39q28 16 51 39t31 48q-10 -5 -23 -5q-27 0 -46.5 20.5t-19.5 55.5q0 32 23 55.5t54 23.5q34 0 56.5 -23.5z" />
    <glyph glyph-name="uni021B" unicode="&#x21b;" horiz-adv-x="374" 
d="M70 579h171v-169h88v-141h-88v-78q0 -25 7 -39t25 -14q10 0 20 5t12 8l58 -129q-12 -9 -53 -21.5t-89 -12.5q-69 0 -110 38t-41 111v132h-66v141h66v169zM276.5 -155.5q22.5 -23.5 22.5 -66.5q0 -54 -33.5 -107t-81.5 -79l-34 39q28 16 51 39t31 48q-10 -5 -23 -5
q-27 0 -46.5 20.5t-19.5 55.5q0 32 23 55.5t54 23.5q34 0 56.5 -23.5z" />
    <glyph glyph-name="circumflex" unicode="&#x2c6;" horiz-adv-x="488" 
d="M238 675l185 -136l-60 -79l-125 91l-126 -91l-59 79z" />
    <glyph glyph-name="caron" unicode="&#x2c7;" horiz-adv-x="488" 
d="M238 589l125 92l60 -79l-185 -136l-185 136l59 80z" />
    <glyph glyph-name="breve" unicode="&#x2d8;" horiz-adv-x="504" 
d="M380.5 541.5q-53.5 -42.5 -135.5 -42.5q-81 0 -134.5 42t-61.5 112l111 28q5 -36 26 -61t59 -25t59.5 25t26.5 61l111 -28q-8 -69 -61.5 -111.5z" />
    <glyph glyph-name="dotaccent" unicode="&#x2d9;" horiz-adv-x="281" 
d="M190 615.5q23 -23.5 23 -56.5t-23 -56.5t-56 -23.5q-34 0 -57 23.5t-23 56.5t23 56.5t57 23.5q33 0 56 -23.5z" />
    <glyph glyph-name="ring" unicode="&#x2da;" horiz-adv-x="392" 
d="M91.5 673q39.5 34 97.5 34q59 0 98 -34t39 -87t-38.5 -87t-98.5 -34q-61 0 -99 34t-38 87t39.5 87zM160.5 555.5q11.5 -12.5 28.5 -12.5t28.5 13t11.5 30t-12 29.5t-28 12.5t-28 -12.5t-12 -29.5q0 -18 11.5 -30.5z" />
    <glyph glyph-name="ogonek" unicode="&#x2db;" horiz-adv-x="345" 
d="M92.5 -197q-31.5 23 -31.5 71q0 30 24 70t58 77l49 -21q-18 -24 -30.5 -54t-12.5 -57q0 -10 8 -18t16 -8q21 0 36 21l62 -46q-17 -24 -45.5 -41t-64.5 -17q-37 0 -68.5 23z" />
    <glyph glyph-name="tilde" unicode="&#x2dc;" horiz-adv-x="504" 
d="M154.5 513q-8.5 -11 -13.5 -26h-86q11 61 39.5 104t73.5 43q22 0 40.5 -5t46.5 -15q37 -16 60 -16q12 0 21 10.5t14 25.5h86q-11 -61 -39.5 -104t-73.5 -43q-23 0 -41.5 5.5t-44.5 15.5q-22 8 -35 12t-27 4q-12 0 -20.5 -11z" />
    <glyph glyph-name="hungarumlaut" unicode="&#x2dd;" horiz-adv-x="507" 
d="M218 693l72 -89l-162 -139l-49 69zM386 693l72 -89l-162 -139l-49 69z" />
    <glyph glyph-name="gravecomb" unicode="&#x300;" 
d="M-210 677l166 -145l-49 -68l-197 113z" />
    <glyph glyph-name="acutecomb" unicode="&#x301;" 
d="M-191 677l79 -100l-196 -113l-49 68z" />
    <glyph glyph-name="uni0302" unicode="&#x302;" 
d="M-242 675l185 -136l-60 -79l-125 91l-126 -91l-59 79z" />
    <glyph glyph-name="tildecomb" unicode="&#x303;" 
d="M-341.5 513q-8.5 -11 -13.5 -26h-86q11 61 39.5 104t73.5 43q22 0 40.5 -5t46.5 -15q37 -16 60 -16q12 0 21 10.5t14 25.5h86q-11 -61 -39.5 -104t-73.5 -43q-23 0 -41.5 5.5t-44.5 15.5q-22 8 -35 12t-27 4q-12 0 -20.5 -11z" />
    <glyph glyph-name="uni0304" unicode="&#x304;" 
d="M-61 608v-106h-336v106h336z" />
    <glyph glyph-name="uni0306" unicode="&#x306;" 
d="M-115.5 541.5q-53.5 -42.5 -135.5 -42.5q-81 0 -134.5 42t-61.5 112l111 28q5 -36 26 -61t59 -25t59.5 25t26.5 61l111 -28q-8 -69 -61.5 -111.5z" />
    <glyph glyph-name="uni0307" unicode="&#x307;" 
d="M-83 615.5q23 -23.5 23 -56.5t-23 -56.5t-56 -23.5q-34 0 -57 23.5t-23 56.5t23 56.5t57 23.5q33 0 56 -23.5z" />
    <glyph glyph-name="uni0308" unicode="&#x308;" 
d="M-279.5 615.5q23.5 -23.5 23.5 -56.5t-23.5 -56.5t-56.5 -23.5t-56.5 23.5t-23.5 56.5t23.5 56.5t56.5 23.5t56.5 -23.5zM-76 615.5q23 -23.5 23 -56.5t-23 -56.5t-56 -23.5q-34 0 -57 23.5t-23 56.5t23 56.5t57 23.5q33 0 56 -23.5z" />
    <glyph glyph-name="uni030A" unicode="&#x30a;" 
d="M-292.5 673q39.5 34 97.5 34q59 0 98 -34t39 -87t-38.5 -87t-98.5 -34q-61 0 -99 34t-38 87t39.5 87zM-223.5 555.5q11.5 -12.5 28.5 -12.5t28.5 13t11.5 30t-12 29.5t-28 12.5t-28 -12.5t-12 -29.5q0 -18 11.5 -30.5z" />
    <glyph glyph-name="uni030B" unicode="&#x30b;" 
d="M-281 693l72 -89l-162 -139l-49 69zM-113 693l72 -89l-162 -139l-49 69z" />
    <glyph glyph-name="uni030C" unicode="&#x30c;" 
d="M-242 589l125 92l60 -79l-185 -136l-185 136l59 80z" />
    <glyph glyph-name="uni0312" unicode="&#x312;" 
d="M-185.5 510.5q-17.5 18.5 -17.5 52.5q0 44 27.5 86t64.5 62l27 -31q-22 -13 -40.5 -31t-24.5 -38q5 4 18 4q21 0 37 -16.5t16 -43.5q0 -26 -18 -44.5t-44 -18.5q-28 0 -45.5 18.5z" />
    <glyph glyph-name="uni0326" unicode="&#x326;" 
d="M-99.5 -68.5q22.5 -23.5 22.5 -66.5q0 -54 -33.5 -107t-81.5 -79l-34 39q28 16 51 39t31 48q-10 -5 -23 -5q-27 0 -46.5 20.5t-19.5 55.5q0 32 23 55.5t54 23.5q34 0 56.5 -23.5z" />
    <glyph glyph-name="uni0327" unicode="&#x327;" 
d="M-166 -36q46 2 77 -20.5t31 -60.5q0 -46 -34 -73.5t-84 -27.5q-46 0 -80 13.5t-52 32.5l55 61q12 -13 28.5 -22.5t33.5 -9.5q16 0 25.5 7.5t9.5 20.5q0 16 -13 24t-32 8q-28 0 -39 -7l-5 5l38 106l58 -19z" />
    <glyph glyph-name="uni0328" unicode="&#x328;" 
d="M-244.5 -197q-31.5 23 -31.5 71q0 30 24 70t58 77l49 -21q-18 -24 -30.5 -54t-12.5 -57q0 -10 8 -18t16 -8q21 0 36 21l62 -46q-17 -24 -45.5 -41t-64.5 -17q-37 0 -68.5 23z" />
    <glyph glyph-name="Wgrave" unicode="&#x1e80;" horiz-adv-x="923" 
d="M901 660l-156 -660h-203l-88 365l-88 -365h-204l-155 660h197l71 -430l117 430h124l117 -430l71 430h197zM357 928l166 -145l-49 -68l-197 113z" />
    <glyph glyph-name="wgrave" unicode="&#x1e81;" horiz-adv-x="752" 
d="M121 0l-144 410h184l63 -198l91 190h109l91 -190l63 198h184l-143 -410h-156l-93 208l-93 -208h-156zM303 677l166 -145l-49 -68l-197 113z" />
    <glyph glyph-name="Wacute" unicode="&#x1e82;" horiz-adv-x="923" 
d="M901 660l-156 -660h-203l-88 365l-88 -365h-204l-155 660h197l71 -430l117 430h124l117 -430l71 430h197zM526 927l79 -100l-196 -113l-49 68z" />
    <glyph glyph-name="wacute" unicode="&#x1e83;" horiz-adv-x="752" 
d="M121 0l-144 410h184l63 -198l91 190h109l91 -190l63 198h184l-143 -410h-156l-93 208l-93 -208h-156zM422 677l79 -100l-196 -113l-49 68z" />
    <glyph glyph-name="Wdieresis" unicode="&#x1e84;" horiz-adv-x="923" 
d="M901 660l-156 -660h-203l-88 365l-88 -365h-204l-155 660h197l71 -430l117 430h124l117 -430l71 430h197zM391.5 861.5q23.5 -23.5 23.5 -56.5t-23.5 -56.5t-56.5 -23.5t-56.5 23.5t-23.5 56.5t23.5 56.5t56.5 23.5t56.5 -23.5zM595 861.5q23 -23.5 23 -56.5t-23 -56.5
t-56 -23.5q-34 0 -57 23.5t-23 56.5t23 56.5t57 23.5q33 0 56 -23.5z" />
    <glyph glyph-name="wdieresis" unicode="&#x1e85;" horiz-adv-x="752" 
d="M121 0l-144 410h184l63 -198l91 190h109l91 -190l63 198h184l-143 -410h-156l-93 208l-93 -208h-156zM322.5 615.5q23.5 -23.5 23.5 -56.5t-23.5 -56.5t-56.5 -23.5t-56.5 23.5t-23.5 56.5t23.5 56.5t56.5 23.5t56.5 -23.5zM526 615.5q23 -23.5 23 -56.5t-23 -56.5
t-56 -23.5q-34 0 -57 23.5t-23 56.5t23 56.5t57 23.5q33 0 56 -23.5z" />
    <glyph glyph-name="uni1E9E" unicode="&#x1e9e;" horiz-adv-x="650" 
d="M346 125q37 0 62.5 20t25.5 52q0 34 -33.5 54t-93.5 20q-12 0 -40 -2v146l104 116q-32 5 -60 5q-59 0 -80 -37.5t-21 -106.5v-392h-167v465q0 106 75 158t210 52q46 0 105 -8.5t105 -23.5l-1 -134l-119 -131q82 -3 135 -43.5t53 -148.5q0 -66 -32.5 -111t-87 -67
t-119.5 -22q-53 0 -110 12v141q42 -14 89 -14z" />
    <glyph glyph-name="Ygrave" unicode="&#x1ef2;" horiz-adv-x="616" 
d="M184 660l108 -228l107 228h206l-228 -422v-238h-171v238l-229 422h207zM205 928l166 -145l-49 -68l-197 113z" />
    <glyph glyph-name="ygrave" unicode="&#x1ef3;" horiz-adv-x="532" 
d="M529 410l-284 -618h-173l95 208l-172 410h173l90 -261l102 261h169zM124 677l166 -145l-49 -68l-197 113z" />
    <glyph glyph-name="endash" unicode="&#x2013;" horiz-adv-x="449" 
d="M438 301v-147h-440v147h440z" />
    <glyph glyph-name="emdash" unicode="&#x2014;" horiz-adv-x="870" 
d="M872 301v-147h-887v147h887z" />
    <glyph glyph-name="quoteleft" unicode="&#x2018;" horiz-adv-x="247" 
d="M61.5 398q-26.5 30 -26.5 85q0 68 37.5 118.5t93.5 74.5l39 -31q-27 -13 -57.5 -42.5t-30.5 -60.5q4 5 15.5 8t24.5 3q28 0 49.5 -22t21.5 -63q0 -45 -27 -72.5t-69 -27.5q-44 0 -70.5 30z" />
    <glyph glyph-name="quoteright" unicode="&#x2019;" horiz-adv-x="247" 
d="M178.5 651q26.5 -30 26.5 -85q0 -68 -37.5 -118.5t-93.5 -74.5l-39 31q27 13 57.5 42.5t30.5 60.5q-4 -5 -15.5 -8t-24.5 -3q-28 0 -49.5 22t-21.5 63q0 46 27.5 73t68.5 27q44 0 70.5 -30z" />
    <glyph glyph-name="quotesinglbase" unicode="&#x201a;" horiz-adv-x="249" 
d="M202 156q28 -29 28 -82q0 -68 -42 -133.5t-101 -98.5l-43 49q35 20 63.5 48.5t38.5 59.5q-10 -6 -28 -6q-34 0 -58.5 25.5t-24.5 68.5q0 40 28.5 69t68.5 29q42 0 70 -29z" />
    <glyph glyph-name="quotedblleft" unicode="&#x201c;" horiz-adv-x="538" 
d="M322.5 398q-26.5 30 -26.5 85q0 68 37.5 118.5t93.5 74.5l39 -31q-27 -13 -57.5 -42.5t-30.5 -60.5q4 5 15.5 8t24.5 3q28 0 49.5 -22t21.5 -63q0 -45 -27 -72.5t-69 -27.5q-44 0 -70.5 30zM85.5 398q-26.5 30 -26.5 85q0 68 37.5 118.5t93.5 74.5l39 -31
q-27 -13 -57.5 -42.5t-30.5 -60.5q4 5 15.5 8t24.5 3q28 0 49.5 -22t21.5 -63q0 -45 -27 -72.5t-69 -27.5q-44 0 -70.5 30z" />
    <glyph glyph-name="quotedblright" unicode="&#x201d;" horiz-adv-x="538" 
d="M204.5 649q26.5 -30 26.5 -85q0 -68 -37.5 -118.5t-93.5 -74.5l-39 31q27 13 57.5 42.5t30.5 60.5q-4 -5 -15.5 -8t-24.5 -3q-28 0 -49.5 22t-21.5 63q0 46 27.5 73t68.5 27q44 0 70.5 -30zM441.5 649q26.5 -30 26.5 -85q0 -68 -37.5 -118.5t-93.5 -74.5l-39 31
q27 13 57.5 42.5t30.5 60.5q-4 -5 -15.5 -8t-24.5 -3q-28 0 -49.5 22t-21.5 63q0 46 27.5 73t68.5 27q44 0 70.5 -30z" />
    <glyph glyph-name="quotedblbase" unicode="&#x201e;" horiz-adv-x="495" 
d="M427 156q28 -29 28 -82q0 -68 -42 -133.5t-101 -98.5l-43 49q35 20 63.5 48.5t38.5 59.5q-10 -6 -28 -6q-34 0 -58.5 25.5t-24.5 68.5q0 40 28.5 69t68.5 29q42 0 70 -29zM202 156q28 -29 28 -82q0 -68 -42 -133.5t-101 -98.5l-43 49q35 20 63.5 48.5t38.5 59.5
q-10 -6 -28 -6q-34 0 -58.5 25.5t-24.5 68.5q0 40 28.5 69t68.5 29q42 0 70 -29z" />
    <glyph glyph-name="dagger" unicode="&#x2020;" horiz-adv-x="435" 
d="M368 385h-85v-385h-154v385h-90v147h90v156h154v-156h85v-147z" />
    <glyph glyph-name="daggerdbl" unicode="&#x2021;" horiz-adv-x="437" 
d="M290 385v-74h86v-147h-86v-164h-154v164h-89v147h89v74h-86v147h86v156h154v-156h89v-147h-89z" />
    <glyph glyph-name="bullet" unicode="&#x2022;" horiz-adv-x="576" 
d="M366.5 433q39.5 -23 62.5 -62t23 -86q0 -46 -23 -85t-62.5 -62t-85.5 -23q-47 0 -86 23t-61.5 62t-22.5 85t22.5 85.5t61.5 62.5t86 23q46 0 85.5 -23z" />
    <glyph glyph-name="ellipsis" unicode="&#x2026;" horiz-adv-x="838" 
d="M63 17q-29 29 -29 70t29 69.5t70 28.5t69.5 -28.5t28.5 -69.5t-28.5 -70t-69.5 -29t-70 29zM351 17q-29 29 -29 70t29 69.5t70 28.5t69.5 -28.5t28.5 -69.5t-28.5 -70t-69.5 -29t-70 29zM638 17q-29 29 -29 70t29 69.5t70 28.5t69.5 -28.5t28.5 -69.5t-28.5 -70
t-69.5 -29t-70 29z" />
    <glyph glyph-name="perthousand" unicode="&#x2030;" horiz-adv-x="1169" 
d="M52.5 597q23.5 38 65.5 60.5t96 22.5t96 -22.5t65 -60.5t23 -83q0 -44 -23 -82t-65 -60.5t-96 -22.5t-96 22.5t-65.5 60.5t-23.5 82q0 45 23.5 83zM167 132h-169l801 496h168zM164.5 463.5q18.5 -19.5 49.5 -19.5q29 0 47.5 19.5t18.5 50.5t-18.5 51.5t-47.5 20.5
q-30 0 -49 -20.5t-19 -51.5t18.5 -50.5zM405.5 228q23.5 38 65.5 60.5t96 22.5t96 -22.5t65 -60.5t23 -83q0 -44 -23 -82t-65 -60.5t-96 -22.5t-96 22.5t-65.5 60.5t-23.5 82q0 45 23.5 83zM804 228q23 38 65 60.5t96 22.5t96 -22.5t65.5 -60.5t23.5 -83q0 -44 -23.5 -82
t-65.5 -60.5t-96 -22.5t-96 22.5t-65 60.5t-23 82q0 45 23 83zM517.5 94.5q18.5 -19.5 49.5 -19.5q30 0 48 19.5t18 50.5q0 32 -18.5 52t-47.5 20q-30 0 -49 -20t-19 -52q0 -31 18.5 -50.5zM916 94.5q19 -19.5 49 -19.5t48.5 19.5t18.5 50.5q0 32 -18.5 52t-48.5 20t-49 -20
t-19 -52q0 -31 19 -50.5z" />
    <glyph glyph-name="guilsinglleft" unicode="&#x2039;" horiz-adv-x="314" 
d="M21 222l159 205l83 -66l-107 -139l107 -138l-83 -65z" />
    <glyph glyph-name="guilsinglright" unicode="&#x203a;" horiz-adv-x="314" 
d="M147 222l-107 139l83 66l159 -205l-159 -203l-83 65z" />
    <glyph glyph-name="fraction" unicode="&#x2044;" horiz-adv-x="227" 
d="M-28 0h-102l384 660h102z" />
    <glyph glyph-name="Euro" unicode="&#x20ac;" horiz-adv-x="656" 
d="M496.5 167.5q34.5 10.5 59.5 25.5l72 -144q-34 -26 -89.5 -43.5t-125.5 -17.5q-77 0 -146 28.5t-119 80.5t-74 120h-68v91h50q-1 7 -1 21q0 15 1 22h-50v90h68q24 68 74.5 120.5t119 81.5t145.5 29q70 0 125.5 -17.5t89.5 -43.5l-72 -144q-25 15 -59.5 25.5t-70.5 10.5
q-99 0 -148 -62h225v-90h-261q-1 -7 -1 -21q0 -15 1 -22h261v-91h-224q50 -60 147 -60q36 0 70.5 10.5z" />
    <glyph glyph-name="trademark" unicode="&#x2122;" horiz-adv-x="426" 
d="M155 615h-46v-161h-53v161h-47v45h146v-45zM342 568h-1l-45 -113h-27l-45 113h-1l-10 -114h-52l19 206h53l49 -112l48 112h54l19 -206h-52z" />
    <glyph glyph-name="minus" unicode="&#x2212;" horiz-adv-x="523" 
d="M474 402v-140h-438v140h438z" />
    <glyph glyph-name="notequal" unicode="&#x2260;" horiz-adv-x="529" 
d="M309 361l-34 -59h198v-140h-279l-64 -111h-104l64 111h-36v140h117l34 59h-151v140h232l62 108h104l-62 -108h83v-140h-164z" />
    <glyph glyph-name="lessequal" unicode="&#x2264;" horiz-adv-x="551" 
d="M485 189l-444 184v126l444 184v-149l-265 -99l265 -97v-149zM491 -8h-467v140h467v-140z" />
    <glyph glyph-name="greaterequal" unicode="&#x2265;" horiz-adv-x="551" 
d="M49 534v149l444 -184v-126l-444 -184v149l265 97zM510 -8h-467v140h467v-140z" />
    <glyph glyph-name="C.ss01" horiz-adv-x="648" 
d="M466.5 167.5q34.5 10.5 59.5 25.5l72 -144q-34 -26 -89.5 -43.5t-125.5 -17.5q-97 0 -179 44.5t-130.5 122.5t-48.5 174t48.5 174.5t130.5 123.5t179 45q70 0 125.5 -17.5t89.5 -43.5l-72 -144q-25 15 -59.5 25.5t-70.5 10.5q-62 0 -104 -24.5t-61.5 -64t-19.5 -84.5
t19.5 -84.5t61.5 -64t104 -24.5q36 0 70.5 10.5z" />
    <glyph glyph-name="Q.ss01" horiz-adv-x="736" 
d="M679 193.5q-26 -63.5 -74 -110.5l97 -166h-183l-50 86q-49 -15 -107 -15q-101 0 -178.5 45t-120.5 123.5t-43 173.5t45 173t123.5 123.5t173.5 45.5q97 0 175.5 -45.5t123 -123.5t44.5 -173q0 -73 -26 -136.5zM383 149l-47 81h166q25 45 25 100q0 50 -21 92t-58.5 66.5
t-85.5 24.5t-85.5 -24.5t-58.5 -66.5t-21 -92t21 -91.5t58.5 -66t85.5 -24.5q14 0 21 1z" />
    <glyph glyph-name="Q.ss02" horiz-adv-x="739" 
d="M659 142q18 -7 63 -20l-75 -152q-73 30 -122 66q-76 -48 -176 -48q-95 0 -171 45t-118.5 123.5t-42.5 173.5q0 94 45 172.5t121.5 124t165.5 45.5q91 0 167.5 -45.5t121 -123.5t44.5 -173q0 -96 -47 -179q6 -2 24 -9zM498 330q0 72 -36.5 120t-112.5 48q-75 0 -111.5 -48
t-36.5 -120q0 -73 34.5 -120t113.5 -47q4 0 11.5 -3t11.5 -5q-40 41 -72 86l72 89q8 -11 38.5 -39t69.5 -56q18 40 18 95zM372 330z" />
    <glyph glyph-name="i.loclTRK" horiz-adv-x="226" 
d="M187 410v-410h-161v410h161zM159 615.5q23 -23.5 23 -56.5t-23 -56.5t-56 -23.5q-34 0 -57 23.5t-23 56.5t23 56.5t57 23.5q33 0 56 -23.5z" />
    <glyph glyph-name="germandbls.calt" horiz-adv-x="650" 
d="M346 125q37 0 62.5 20t25.5 52q0 34 -33.5 54t-93.5 20q-12 0 -40 -2v146l104 116q-32 5 -60 5q-59 0 -80 -37.5t-21 -106.5v-392h-167v465q0 106 75 158t210 52q46 0 105 -8.5t105 -23.5l-1 -134l-119 -131q82 -3 135 -43.5t53 -148.5q0 -66 -32.5 -111t-87 -67
t-119.5 -22q-53 0 -110 12v141q42 -14 89 -14z" />
    </font>
</defs>
</svg>
