<svg xmlns="http://www.w3.org/2000/svg" width="17.536" height="19.727" viewBox="0 0 17.536 19.727">
  <g id="Icon" transform="translate(-442.999 -875.028)">
    <g id="Group_155" data-name="Group 155">
      <path id="Path_262" data-name="Path 262" d="M460.535,894.755h-1.1v-4.439a2.614,2.614,0,0,0-2.74-2.466h-9.864a2.613,2.613,0,0,0-2.74,2.466v4.439H443v-4.439a3.659,3.659,0,0,1,3.836-3.452H456.7a3.66,3.66,0,0,1,3.836,3.452Z" fill="#7f7f7f"/>
      <path id="Path_263" data-name="Path 263" d="M451.767,885.878c-3.33,0-6.028-2.429-6.028-5.425s2.7-5.425,6.028-5.425,6.028,2.429,6.028,5.425S455.1,885.878,451.767,885.878Zm0-9.864a4.463,4.463,0,1,0,4.932,4.439A4.7,4.7,0,0,0,451.767,876.014Z" fill="#7f7f7f"/>
    </g>
  </g>
</svg>
