<svg xmlns="http://www.w3.org/2000/svg" width="53.958" height="54" viewBox="0 0 53.958 54">
  <g id="Cart" transform="translate(-1414.436 -72.969)">
    <g id="Group_97" data-name="Group 97">
      <path id="Path_153" data-name="Path 153" d="M1467.6,125.38h-8.777V113.148a4.561,4.561,0,0,0,.509.032,4.448,4.448,0,0,0,4.44-4.441V108.7a4.441,4.441,0,0,0,3.118-6.837,4.436,4.436,0,0,0-.461-7.014,4.433,4.433,0,0,0-2.171-5.428,4.263,4.263,0,0,0,.067-.755,4.445,4.445,0,0,0-3.631-4.362,4.44,4.44,0,0,0-8.875-.006,4.341,4.341,0,0,0-.749.218h0a5.2,5.2,0,0,0,.1-1.034,5.292,5.292,0,0,0-4.471-5.22,5.287,5.287,0,0,0-10.575-.006,5.3,5.3,0,0,0-4.471,5.225,5.216,5.216,0,0,0,.1,1.035h0a4.319,4.319,0,0,0-.748-.215,4.44,4.44,0,0,0-8.875,0,4.447,4.447,0,0,0-3.631,4.366,4.255,4.255,0,0,0,.067.755,4.435,4.435,0,0,0-2.173,5.427,4.438,4.438,0,0,0-.461,7.014,4.444,4.444,0,0,0,3.118,6.837v.042a4.448,4.448,0,0,0,4.44,4.441,4.56,4.56,0,0,0,.509-.032V125.38h-8.777a.795.795,0,0,0,0,1.589h52.37a.795.795,0,0,0,0-1.589Zm-14.339-39.845a.791.791,0,0,0,.181-.638,2.8,2.8,0,0,1-.038-.439,2.852,2.852,0,0,1,5.7,0,2.815,2.815,0,0,1-.039.439.805.805,0,0,0,.2.635.829.829,0,0,0,.618.277,2.841,2.841,0,0,1,2.682,3.812.8.8,0,0,0,.48,1.017l.034.011a2.846,2.846,0,0,1,1.634,4.142.794.794,0,0,0,.292,1.084.756.756,0,0,0,.081.04,2.849,2.849,0,0,1,.265,5.1.8.8,0,0,0-.3,1.082.8.8,0,0,0,.133.174,2.85,2.85,0,0,1-2.008,4.876c-.077,0-.153-.006-.229-.012a.794.794,0,0,0-.855.728.845.845,0,0,0,.017.24,2.885,2.885,0,0,1,.074.635,2.849,2.849,0,0,1-5.257,1.527.794.794,0,0,0-1.1-.243.781.781,0,0,0-.243.243,2.844,2.844,0,0,1-5.2-1,5.275,5.275,0,0,0,.106-1.049c0-.072,0-.144,0-.216a5.288,5.288,0,0,0,3.786-8.294,5.283,5.283,0,0,0-.544-8.535,5.291,5.291,0,0,0-.953-5.372A.83.83,0,0,0,1453.261,85.535ZM1445.2,113.5a5.279,5.279,0,0,0,4.322-2.251,4.463,4.463,0,0,0,3.655,1.928,4.543,4.543,0,0,0,.508-.032V125.38h-9.295V113.435A5.364,5.364,0,0,0,1445.2,113.5Zm-11.777-28.157a.794.794,0,0,0,.038-.623,3.691,3.691,0,0,1,3.439-4.945.836.836,0,0,0,.681-.274.793.793,0,0,0,.181-.639,3.7,3.7,0,1,1,7.349-.568,3.474,3.474,0,0,1-.049.568.805.805,0,0,0,.2.638.832.832,0,0,0,.621.277,3.69,3.69,0,0,1,3.479,4.943.8.8,0,0,0,.481,1.016l.033.011A3.69,3.69,0,0,1,1452,91.121a.794.794,0,0,0,.294,1.085.735.735,0,0,0,.079.04,3.7,3.7,0,0,1,.346,6.614.8.8,0,0,0-.3,1.083.813.813,0,0,0,.131.173,3.7,3.7,0,0,1-2.6,6.324c-.1,0-.2-.008-.3-.016a.794.794,0,0,0-.854.729.779.779,0,0,0,.017.24,3.694,3.694,0,0,1-6.721,2.8.8.8,0,0,0-1.1-.245.8.8,0,0,0-.244.245,3.692,3.692,0,0,1-6.721-2.8.794.794,0,0,0-.6-.951.8.8,0,0,0-.24-.018c-.1.008-.2.016-.3.016a3.7,3.7,0,0,1-2.6-6.324.794.794,0,0,0,0-1.124.769.769,0,0,0-.174-.132,3.7,3.7,0,0,1,.344-6.614.8.8,0,0,0,.413-1.045.87.87,0,0,0-.04-.08,3.692,3.692,0,0,1,2.119-5.371A.8.8,0,0,0,1433.427,85.346Zm-3.778,27.834a4.461,4.461,0,0,0,3.655-1.928,5.212,5.212,0,0,0,5.132,2.183V125.38h-9.3V113.148A4.545,4.545,0,0,0,1429.649,113.18Zm-9-4.441a2.892,2.892,0,0,1,.074-.635.794.794,0,0,0-.6-.95.8.8,0,0,0-.24-.018c-.075.007-.152.013-.229.013a2.852,2.852,0,0,1-2.008-4.878.792.792,0,0,0-.168-1.255,2.85,2.85,0,0,1,.265-5.1.793.793,0,0,0,.413-1.044.752.752,0,0,0-.04-.081,2.847,2.847,0,0,1,1.634-4.142.8.8,0,0,0,.527-.993l-.012-.034a2.845,2.845,0,0,1,2.643-3.813.83.83,0,0,0,.672-.275.8.8,0,0,0,.182-.638,2.8,2.8,0,0,1-.039-.438,2.852,2.852,0,1,1,5.7,0,2.8,2.8,0,0,1-.038.438.806.806,0,0,0,.673.9,5.29,5.29,0,0,0-.958,5.376,5.283,5.283,0,0,0-.545,8.535,5.288,5.288,0,0,0,3.785,8.3c0,.072-.005.144-.005.216a5.273,5.273,0,0,0,.1,1.048,2.844,2.844,0,0,1-5.2,1,.794.794,0,0,0-1.1-.243.781.781,0,0,0-.243.243,2.849,2.849,0,0,1-5.257-1.527Zm4.947,16.641V112.653a4.457,4.457,0,0,0,.98-.712,4.4,4.4,0,0,0,.979.712v12.728Zm14.43,0V112.925a1.456,1.456,0,0,1,2.781,0v12.457Zm15.252,0V112.653a4.4,4.4,0,0,0,.98-.712,4.454,4.454,0,0,0,.979.712v12.728Z" fill="#231f20"/>
      <path id="Path_154" data-name="Path 154" d="M1445.069,85.988a.8.8,0,0,0,.512,1,.807.807,0,0,0,.244.038.8.8,0,0,0,.756-.551,2.455,2.455,0,0,0-.732-2.718.795.795,0,0,0-1.086,1.16A.893.893,0,0,1,1445.069,85.988Z" fill="#231f20"/>
      <path id="Path_155" data-name="Path 155" d="M1446.608,103.335h0a.8.8,0,0,0-.792.8h0c0,.8-.077.883-.464,1.3a.794.794,0,1,0,1.162,1.083,2.851,2.851,0,0,0,.891-2.389A.8.8,0,0,0,1446.608,103.335Z" fill="#231f20"/>
      <path id="Path_156" data-name="Path 156" d="M1446.6,88.681a.794.794,0,0,0,.213,1.1,3.108,3.108,0,0,1,1.245,1.908,3.167,3.167,0,0,1-.863,2.444.8.8,0,0,0,1.09,1.157,4.8,4.8,0,0,0,1.351-3.761,4.693,4.693,0,0,0-1.935-3.063A.794.794,0,0,0,1446.6,88.681Z" fill="#231f20"/>
    </g>
  </g>
</svg>
