<svg xmlns="http://www.w3.org/2000/svg" width="84.861" height="84.72" viewBox="0 0 84.861 84.72">
  <g id="Icon_left_" data-name="Icon (left)" transform="translate(-144.25 -929.042)">
    <path id="Path_23468" data-name="Path 23468" d="M219.8,937.257s-3.012-.411-3.012,1.506c0,1.643,2.875,1.232,2.875,1.232a7.307,7.307,0,0,1,6.709,6.435l-.274,8.626a1.294,1.294,0,0,0,1.37,1.369,1.228,1.228,0,0,0,1.369-1.369l.274-8.763A9.76,9.76,0,0,0,219.8,937.257Z" fill="#545050"/>
    <path id="Path_23469" data-name="Path 23469" d="M227.331,959.3a1.293,1.293,0,0,0-1.369,1.369s-.274,6.3-.274,6.435a4.366,4.366,0,0,1-1.369,3.56l-40.938,40.116a1.666,1.666,0,0,1-2.191,0l-27.246-26.561a1.453,1.453,0,0,1,0-2.054l9.858-9.584a1.356,1.356,0,1,0-1.917-1.917l-9.721,9.447a4.4,4.4,0,0,0-1.369,3.012,4.151,4.151,0,0,0,1.369,3.013L179.41,1012.7a4.761,4.761,0,0,0,6.025,0l40.937-40.116a7.322,7.322,0,0,0,2.191-5.614l.274-6.161a1.739,1.739,0,0,0-1.506-1.506Z" fill="#545050"/>
    <path id="Path_23470" data-name="Path 23470" d="M169.416,963.271l-2.739,2.6a1.325,1.325,0,0,0,0,1.917,1.434,1.434,0,0,0,1.917,0l2.738-2.6a1.355,1.355,0,0,0-1.916-1.917Z" fill="#545050"/>
    <path id="Path_23471" data-name="Path 23471" d="M174.618,960.122a1.416,1.416,0,0,0,1.917,0l18.484-18.073a4.531,4.531,0,0,1,3.56-1.369l11.227-.411a1.372,1.372,0,0,0,1.369-1.369,1.472,1.472,0,0,0-1.369-1.369l-11.091.41a7.325,7.325,0,0,0-5.613,2.191l-18.484,17.936a1.491,1.491,0,0,0,0,2.054Z" fill="#545050"/>
    <path id="Path_23472" data-name="Path 23472" d="M210.627,948.758a6.846,6.846,0,1,0,6.846-6.846,8.079,8.079,0,0,0-1.917.274,11.064,11.064,0,0,1-.137-2.191c0-5.34,1.78-8.215,2.738-8.215.411,0,1.37.959,2.054,3.149a1.345,1.345,0,0,0,2.6-.684c-.959-3.423-2.739-5.2-4.656-5.2-3.559,0-5.476,5.477-5.476,10.953a33.553,33.553,0,0,0,.274,3.7A6.819,6.819,0,0,0,210.627,948.758Zm3.149-1.917c.959,2.327,2.328,4.107,4.381,4.107a1.369,1.369,0,1,0,0-2.738c-.547,0-1.506-1.1-2.19-3.286a4.918,4.918,0,0,1,1.506-.274,4.107,4.107,0,1,1-4.108,4.108,4.827,4.827,0,0,1,.411-1.917Z" fill="#545050"/>
    <path id="Path_23473" data-name="Path 23473" d="M167.91,1004.345a2.268,2.268,0,0,1-1.643-.684l-1.643-2.739a1.41,1.41,0,0,0-2.465,1.369l1.643,2.739a4.5,4.5,0,0,0,3.7,2.054,1.511,1.511,0,0,0,1.643-1.507c.274-.684-.411-1.232-1.232-1.232Z" fill="#545050"/>
    <path id="Path_23474" data-name="Path 23474" d="M147.1,970.938a1.325,1.325,0,0,1,.684-1.917L180.1,950.675a1.516,1.516,0,0,0,.548-1.917,1.472,1.472,0,0,0-1.917-.548l-32.312,18.484a4.4,4.4,0,0,0-2.054,2.875,4.049,4.049,0,0,0,.411,2.875l3.149,5.2a1.51,1.51,0,0,0,1.917.547,1.471,1.471,0,0,0,.547-1.916Z" fill="#545050"/>
    <path id="Path_23475" data-name="Path 23475" d="M185.024,1001.333l-2.875,2.875-2.875-2.875a1.356,1.356,0,1,0-1.917,1.917l2.875,2.875a2.646,2.646,0,0,0,3.834,0l2.875-2.875a1.356,1.356,0,0,0-1.917-1.917Z" fill="#545050"/>
    <path id="Path_23476" data-name="Path 23476" d="M191.048,995.583l-1.917,1.916a1.325,1.325,0,0,0,0,1.917c.548.685,1.643.274,1.917,0l1.917-1.917a1.355,1.355,0,0,0-1.917-1.916Z" fill="#545050"/>
    <path id="Path_23477" data-name="Path 23477" d="M151.891,974.361a1.361,1.361,0,0,0,1.916.411,1.346,1.346,0,0,0,.411-1.917l-.684-1.1,3.7-1.916a1.41,1.41,0,0,0-1.369-2.465l-3.834,2.054a2.02,2.02,0,0,0-1.232,1.369,2.121,2.121,0,0,0,.274,2.328Z" fill="#545050"/>
  </g>
</svg>
