<svg xmlns="http://www.w3.org/2000/svg" width="75.48" height="84" viewBox="0 0 75.48 84">
  <g id="Icon_left_copy_2" data-name="Icon (left) copy 2" transform="translate(-858.589 -929.762)">
    <g id="Group_167" data-name="Group 167">
      <g id="Group_166" data-name="Group 166">
        <path id="Path_23499" data-name="Path 23499" d="M926.04,956.03a13.332,13.332,0,0,0,.984-5.059c0-.356-.014-.717-.042-1.07a1.2,1.2,0,1,0-2.384.188c.023.291.035.588.035.882a10.961,10.961,0,0,1-1.236,5.085,1.2,1.2,0,0,0,.6,1.65,12.574,12.574,0,0,1-4.317,24.146,1.2,1.2,0,0,0-1.1.876c-.891,3.227-4.47,5.57-8.51,5.57a9.956,9.956,0,0,1-5.274-1.459l3.95-6.233a2.769,2.769,0,0,0-4.309-3.428l-2.964,3,.966-7.158a2.768,2.768,0,0,0-2.274-3.1,2.7,2.7,0,0,0-.283-.034l-1.068-.072A2.761,2.761,0,0,0,895.9,972.1l-.935,5.312-.935,5.311-5.772-7.1a2.712,2.712,0,0,0-.665-.589l-.005,0c-.026-.016-.054-.031-.082-.047a2.8,2.8,0,0,0-1.158-.369l-.039,0c-.061-.005-.121-.008-.181-.009a2.734,2.734,0,0,0-1.091.214l-1.115.469a2.769,2.769,0,0,0-1.3,3.977l4.724,7.875a10.129,10.129,0,0,1-4.75,1.16c-4.041,0-7.62-2.342-8.511-5.569a1.194,1.194,0,0,0-1.1-.876,12.574,12.574,0,0,1-4.317-24.146,1.2,1.2,0,0,0,.6-1.651,10.961,10.961,0,0,1-1.236-5.085,11.1,11.1,0,0,1,11.088-11.088,10.987,10.987,0,0,1,4.863,1.122,1.195,1.195,0,0,0,1.676-.752,11.087,11.087,0,0,1,21.354,0,1.195,1.195,0,0,0,1.676.752,11.094,11.094,0,0,1,14.633,4.718,1.2,1.2,0,0,0,2.105-1.133,13.5,13.5,0,0,0-16.542-6.267,13.479,13.479,0,0,0-25.1,0,13.347,13.347,0,0,0-4.667-.831,13.494,13.494,0,0,0-13.478,13.479,13.314,13.314,0,0,0,.984,5.059,14.966,14.966,0,0,0,5.427,28.151c1.5,3.871,5.7,6.507,10.545,6.507a12.535,12.535,0,0,0,5.981-1.5l.592.987a7.012,7.012,0,0,1,.942,4.493c-.174,1.341-.388,2.92-.659,4.465a1.195,1.195,0,1,0,2.354.413c.28-1.592.5-3.2.676-4.57a9.417,9.417,0,0,0-1.262-6.031l-6.548-10.913a.379.379,0,0,1,.178-.544l1.116-.468a.379.379,0,0,1,.44.11l6.371,7.835c.017.021.035.04.052.06a1.928,1.928,0,0,0,1.947.6l.012,0h0a1.965,1.965,0,0,0,.92-.535l.029-.029.025-.029a1.959,1.959,0,0,0,.461-.962l2.034-11.558a.382.382,0,0,1,.4-.312l1.068.072a.378.378,0,0,1,.349.428l-1.139,8.444A1.958,1.958,0,0,0,900,983.164q.072.035.144.063a1.956,1.956,0,0,0,2.112-.445l3.875-3.923a.378.378,0,0,1,.243-.111h.018a.383.383,0,0,1,.2.05.41.41,0,0,1,.06.042.376.376,0,0,1,.071.488l-5.263,8.3a9.562,9.562,0,0,0-1.437,5.906c.5,5.783,1.369,12.3,5.14,17.834H887.487a25.019,25.019,0,0,0,3.181-6.9,1.2,1.2,0,0,0-2.29-.686,21.4,21.4,0,0,1-4.21,8,1.2,1.2,0,0,0,.908,1.974h22.506a1.2,1.2,0,0,0,.908-1.974c-4.6-5.365-5.554-12.34-6.084-18.457a7.152,7.152,0,0,1,1.074-4.42l.034-.053a12.354,12.354,0,0,0,6.553,1.831c4.844,0,9.049-2.637,10.545-6.508a14.966,14.966,0,0,0,5.428-28.151Z" fill="#545050"/>
      </g>
    </g>
  </g>
</svg>
