<svg xmlns="http://www.w3.org/2000/svg" width="23" height="23" viewBox="0 0 23 23">
  <g id="Icon" transform="translate(-121.954 -874.192)">
    <g id="Group_152" data-name="Group 152">
      <g id="Group_151" data-name="Group 151">
        <path id="Path_258" data-name="Path 258" d="M141.821,884.376v-6.49a2.005,2.005,0,0,0-2.114-1.909H138V874.6a.356.356,0,0,0-.3-.407.346.346,0,0,0-.111,0h-2.42c-.28,0-.484.127-.484.407v1.374h-5.6V874.6c0-.28-.331-.407-.611-.407h-2.42c-.28,0-.535.127-.535.407v1.374h-1.554a1.916,1.916,0,0,0-2.012,1.909v14.761a1.916,1.916,0,0,0,2.012,1.909h8.507a7.005,7.005,0,0,0,12.481-4.327A7.275,7.275,0,0,0,141.821,884.376Zm-6.113-9.163h1.274V877.5h-1.274Zm-9.169,0h1.528V877.5h-1.528Zm-3.566,2.673a.9.9,0,0,1,.993-.891h1.554v.967a.585.585,0,0,0,.535.56h2.42a.661.661,0,0,0,.611-.56v-.967h5.6v.967a.535.535,0,0,0,.484.56h2.42c.28,0,.408-.28.408-.56v-.967h1.706a.989.989,0,0,1,1.1.891v3.181H122.973Zm.993,15.652a.9.9,0,0,1-.993-.891V882.085H140.8v1.756a7.66,7.66,0,0,0-2.827-.611,7,7,0,0,0-6.164,10.308Zm13.958,2.647a5.981,5.981,0,1,1,5.96-6.007v.051A5.958,5.958,0,0,1,137.924,896.185Z" fill="#7f7f7f"/>
        <path id="Path_259" data-name="Path 259" d="M140.318,890.229H138v-3.054a.51.51,0,0,0-1.019,0v3.563a.611.611,0,0,0,.611.509h2.725a.509.509,0,1,0,0-1.018Z" fill="#7f7f7f"/>
      </g>
    </g>
  </g>
</svg>
