<svg xmlns="http://www.w3.org/2000/svg" width="13.711" height="13.711" viewBox="0 0 13.711 13.711">
  <path id="Path_146" data-name="Path 146" d="M136.454,25.668a1.769,1.769,0,0,1-1.759,1.759H124.5a1.768,1.768,0,0,1-1.758-1.759V15.474a1.767,1.767,0,0,1,1.758-1.758H134.7a1.768,1.768,0,0,1,1.759,1.758Zm-1.554-6.15h-1.2a3.879,3.879,0,0,1,.179,1.17,4.265,4.265,0,0,1-8.525,0,3.91,3.91,0,0,1,.179-1.17h-1.259V25.3a.541.541,0,0,0,.544.545h9.543a.541.541,0,0,0,.544-.545Zm-5.293-1.643a2.67,2.67,0,1,0,2.758,2.669A2.711,2.711,0,0,0,129.607,17.875Zm5.293-2.017a.617.617,0,0,0-.615-.616h-1.554a.618.618,0,0,0-.616.616v1.473a.618.618,0,0,0,.616.616h1.554a.617.617,0,0,0,.615-.616Z" transform="translate(-122.743 -13.716)" fill="#fff"/>
</svg>
