<svg xmlns="http://www.w3.org/2000/svg" width="14.069" height="11.426" viewBox="0 0 14.069 11.426">
  <path id="Path_147" data-name="Path 147" d="M159.071,17.706c.009.125.009.25.009.375a8.208,8.208,0,0,1-12.631,6.909,5.937,5.937,0,0,0,.7.035,5.776,5.776,0,0,0,3.579-1.231,2.89,2.89,0,0,1-2.7-2,3.61,3.61,0,0,0,.545.045,3.072,3.072,0,0,0,.759-.1,2.884,2.884,0,0,1-2.312-2.83v-.036a2.892,2.892,0,0,0,1.3.366,2.889,2.889,0,0,1-.893-3.856,8.2,8.2,0,0,0,5.945,3.017,3.293,3.293,0,0,1-.071-.66,2.886,2.886,0,0,1,4.99-1.973,5.694,5.694,0,0,0,1.83-.7,2.881,2.881,0,0,1-1.268,1.589,5.8,5.8,0,0,0,1.661-.447A6.19,6.19,0,0,1,159.071,17.706Z" transform="translate(-146.449 -14.858)" fill="#fff"/>
</svg>
