<svg xmlns="http://www.w3.org/2000/svg" width="12.445" height="14" viewBox="0 0 12.445 14">
  <g id="User_icon" data-name="User icon" transform="translate(-1358.487 -13)">
    <path id="Path_149" data-name="Path 149" d="M1370.932,27h-.778V23.85a1.856,1.856,0,0,0-1.945-1.75h-7a1.856,1.856,0,0,0-1.945,1.75V27h-.777V23.85a2.6,2.6,0,0,1,2.722-2.45h7a2.6,2.6,0,0,1,2.723,2.45Z" fill="#fff"/>
    <path id="Path_150" data-name="Path 150" d="M1364.709,20.7a4.081,4.081,0,0,1-4.278-3.85,4.3,4.3,0,0,1,8.556,0A4.081,4.081,0,0,1,1364.709,20.7Zm0-7a3.339,3.339,0,0,0-3.5,3.15,3.519,3.519,0,0,0,7,0A3.339,3.339,0,0,0,1364.709,13.7Z" fill="#fff"/>
  </g>
</svg>
