<svg xmlns="http://www.w3.org/2000/svg" width="15.996" height="11.426" viewBox="0 0 15.996 11.426">
  <path id="Path_148" data-name="Path 148" d="M186.224,24.445a2.027,2.027,0,0,1-1.723,1.616,53.625,53.625,0,0,1-5.99.223,53.634,53.634,0,0,1-5.99-.223,2.046,2.046,0,0,1-1.731-1.616,18.079,18.079,0,0,1-.277-3.874A17.531,17.531,0,0,1,170.8,16.7a2.035,2.035,0,0,1,1.722-1.615,53.4,53.4,0,0,1,5.99-.224,53.387,53.387,0,0,1,5.99.224,2.044,2.044,0,0,1,1.731,1.615,18.087,18.087,0,0,1,.277,3.874A17.582,17.582,0,0,1,186.224,24.445Zm-4.553-4.356-4.57-2.856a.565.565,0,0,0-.58-.018.578.578,0,0,0-.295.5v5.713a.578.578,0,0,0,.295.5A.612.612,0,0,0,176.8,24a.53.53,0,0,0,.3-.089l4.57-2.857a.567.567,0,0,0,0-.964Z" transform="translate(-170.513 -14.858)" fill="#fff"/>
</svg>
